<svg width="280" height="52" viewBox="0 0 280 52" fill="none" xmlns="http://www.w3.org/2000/svg">
<path d="M4.448 16.472C4.34133 16.472 4.25067 16.4347 4.176 16.36C4.10133 16.2853 4.064 16.1947 4.064 16.088V12.968H0.992C0.885333 12.968 0.794667 12.9307 0.72 12.856C0.645333 12.7813 0.608 12.6907 0.608 12.584V11.736C0.608 11.6187 0.645333 11.528 0.72 11.464C0.794667 11.3893 0.885333 11.352 0.992 11.352H4.064V8.312C4.064 8.20533 4.10133 8.11467 4.176 8.04C4.25067 7.96533 4.34133 7.928 4.448 7.928H5.376C5.49333 7.928 5.584 7.96533 5.648 8.04C5.72267 8.11467 5.76 8.20533 5.76 8.312V11.352H8.832C8.93867 11.352 9.02933 11.3893 9.104 11.464C9.17867 11.528 9.216 11.6187 9.216 11.736V12.584C9.216 12.6907 9.17867 12.7813 9.104 12.856C9.02933 12.9307 8.93867 12.968 8.832 12.968H5.76V16.088C5.76 16.1947 5.72267 16.2853 5.648 16.36C5.584 16.4347 5.49333 16.472 5.376 16.472H4.448ZM11.3513 17C11.2553 17 11.1753 16.968 11.1113 16.904C11.0473 16.8293 11.0153 16.744 11.0153 16.648C11.0153 16.6053 11.0259 16.5573 11.0473 16.504L14.9033 7.704H9.87925C9.76192 7.704 9.66592 7.66667 9.59125 7.592C9.52725 7.51733 9.49525 7.42667 9.49525 7.32V6.2C9.49525 6.08267 9.52725 5.98667 9.59125 5.912C9.66592 5.83733 9.76192 5.8 9.87925 5.8H16.9033C17.0206 5.8 17.1113 5.83733 17.1753 5.912C17.2499 5.98667 17.2873 6.08267 17.2873 6.2V7.192C17.2873 7.34133 17.2713 7.46933 17.2393 7.576C17.2179 7.672 17.1859 7.77333 17.1433 7.88L13.3193 16.616C13.2873 16.6907 13.2286 16.776 13.1432 16.872C13.0686 16.9573 12.9566 17 12.8073 17H11.3513ZM26.383 19.544C25.679 19.544 25.0603 19.4 24.527 19.112C23.9937 18.824 23.551 18.376 23.199 17.768C22.8577 17.1707 22.6017 16.3973 22.431 15.448C22.2603 14.4987 22.175 13.368 22.175 12.056C22.175 10.7333 22.2603 9.60267 22.431 8.664C22.6017 7.71467 22.8577 6.94133 23.199 6.344C23.551 5.736 23.9937 5.29333 24.527 5.016C25.0603 4.728 25.679 4.584 26.383 4.584C26.4897 4.584 26.5803 4.62133 26.655 4.696C26.7297 4.77067 26.767 4.86133 26.767 4.968V5.928C26.767 6.03467 26.7297 6.12533 26.655 6.2C26.591 6.27467 26.511 6.312 26.415 6.312C25.9777 6.33333 25.6097 6.46133 25.311 6.696C25.0123 6.92 24.7723 7.26667 24.591 7.736C24.4203 8.19467 24.2977 8.78133 24.223 9.496C24.1483 10.2107 24.111 11.064 24.111 12.056C24.111 13.048 24.1483 13.9013 24.223 14.616C24.2977 15.3307 24.4203 15.9227 24.591 16.392C24.7723 16.8613 25.0123 17.208 25.311 17.432C25.6097 17.6667 25.9777 17.7947 26.415 17.816C26.511 17.816 26.591 17.8533 26.655 17.928C26.7297 18.0027 26.767 18.0933 26.767 18.2V19.16C26.767 19.2667 26.7297 19.3573 26.655 19.432C26.5803 19.5067 26.4897 19.544 26.383 19.544ZM32.0293 17.16C31.3253 17.16 30.6959 17.0747 30.1413 16.904C29.5866 16.7333 29.1173 16.4933 28.7333 16.184C28.3599 15.8747 28.0719 15.512 27.8693 15.096C27.6773 14.68 27.5813 14.216 27.5813 13.704C27.5813 13.0853 27.7306 12.552 28.0293 12.104C28.3386 11.6453 28.7386 11.2933 29.2293 11.048C28.8346 10.8027 28.5253 10.488 28.3013 10.104C28.0879 9.72 27.9813 9.272 27.9813 8.76C27.9813 8.14133 28.1359 7.60267 28.4453 7.144C28.7653 6.67467 29.2239 6.30667 29.8213 6.04C30.4293 5.77333 31.1653 5.64 32.0293 5.64C32.8933 5.64 33.6239 5.77333 34.2213 6.04C34.8186 6.296 35.2719 6.65867 35.5813 7.128C35.8906 7.58667 36.0453 8.12533 36.0453 8.744C36.0453 9.256 35.9386 9.704 35.7253 10.088C35.5119 10.472 35.2133 10.792 34.8293 11.048C35.3306 11.2827 35.7306 11.6347 36.0293 12.104C36.3279 12.5627 36.4773 13.1013 36.4773 13.72C36.4773 14.392 36.3013 14.9893 35.9493 15.512C35.6079 16.024 35.1013 16.4293 34.4293 16.728C33.7679 17.016 32.9679 17.16 32.0293 17.16ZM32.0293 15.496C32.4453 15.496 32.8186 15.4267 33.1493 15.288C33.4906 15.1387 33.7573 14.9307 33.9493 14.664C34.1519 14.3973 34.2533 14.0827 34.2533 13.72C34.2533 13.3467 34.1519 13.032 33.9493 12.776C33.7573 12.5093 33.4906 12.3067 33.1493 12.168C32.8186 12.0187 32.4453 11.944 32.0293 11.944C31.6133 11.944 31.2346 12.0187 30.8932 12.168C30.5626 12.3067 30.2959 12.5093 30.0933 12.776C29.9013 13.032 29.8053 13.3467 29.8053 13.72C29.8053 14.0827 29.9013 14.3973 30.0933 14.664C30.2959 14.9307 30.5626 15.1387 30.8932 15.288C31.2346 15.4267 31.6133 15.496 32.0293 15.496ZM32.0293 10.36C32.3813 10.3493 32.7013 10.28 32.9893 10.152C33.2879 10.024 33.5226 9.85333 33.6933 9.64C33.8746 9.416 33.9653 9.14933 33.9653 8.84C33.9653 8.53067 33.8799 8.264 33.7093 8.04C33.5493 7.80533 33.3199 7.624 33.0213 7.496C32.7333 7.368 32.4026 7.304 32.0293 7.304C31.6559 7.304 31.3199 7.368 31.0213 7.496C30.7333 7.624 30.5039 7.80533 30.3333 8.04C30.1733 8.264 30.0933 8.53067 30.0933 8.84C30.0933 9.14933 30.1733 9.416 30.3333 9.64C30.5039 9.864 30.7333 10.04 31.0213 10.168C31.3199 10.296 31.6559 10.36 32.0293 10.36ZM42.5293 17.16C41.7719 17.16 41.1266 17.048 40.5933 16.824C40.0599 16.6 39.6226 16.2907 39.2812 15.896C38.9399 15.5013 38.6839 15.048 38.5133 14.536C38.3426 14.0133 38.2413 13.4587 38.2093 12.872C38.1986 12.584 38.1879 12.2693 38.1773 11.928C38.1773 11.576 38.1773 11.224 38.1773 10.872C38.1879 10.52 38.1986 10.1947 38.2093 9.896C38.2306 9.30933 38.3319 8.76 38.5133 8.248C38.6946 7.72533 38.9559 7.272 39.2973 6.888C39.6493 6.504 40.0919 6.2 40.6253 5.976C41.1586 5.752 41.7933 5.64 42.5293 5.64C43.2759 5.64 43.9159 5.752 44.4493 5.976C44.9826 6.2 45.4199 6.504 45.7613 6.888C46.1133 7.272 46.3746 7.72533 46.5453 8.248C46.7266 8.76 46.8279 9.30933 46.8493 9.896C46.8706 10.1947 46.8813 10.52 46.8813 10.872C46.8813 11.224 46.8813 11.576 46.8813 11.928C46.8813 12.2693 46.8706 12.584 46.8493 12.872C46.8279 13.4587 46.7319 14.0133 46.5613 14.536C46.3906 15.048 46.1346 15.5013 45.7933 15.896C45.4519 16.2907 45.0093 16.6 44.4653 16.824C43.9319 17.048 43.2866 17.16 42.5293 17.16ZM42.5293 15.32C43.2226 15.32 43.7293 15.096 44.0493 14.648C44.3799 14.1893 44.5506 13.5707 44.5613 12.792C44.5826 12.4827 44.5933 12.1733 44.5933 11.864C44.5933 11.544 44.5933 11.224 44.5933 10.904C44.5933 10.584 44.5826 10.28 44.5613 9.992C44.5506 9.23467 44.3799 8.62667 44.0493 8.168C43.7293 7.69867 43.2226 7.464 42.5293 7.464C41.8466 7.464 41.3399 7.69867 41.0093 8.168C40.6893 8.62667 40.5186 9.23467 40.4973 9.992C40.4973 10.28 40.4919 10.584 40.4813 10.904C40.4813 11.224 40.4813 11.544 40.4813 11.864C40.4919 12.1733 40.4973 12.4827 40.4973 12.792C40.5186 13.5707 40.6946 14.1893 41.0253 14.648C41.3559 15.096 41.8573 15.32 42.5293 15.32ZM53.0449 17.16C52.2875 17.16 51.6422 17.048 51.1089 16.824C50.5755 16.6 50.1382 16.2907 49.7969 15.896C49.4555 15.5013 49.1995 15.048 49.0289 14.536C48.8582 14.0133 48.7569 13.4587 48.7249 12.872C48.7142 12.584 48.7035 12.2693 48.6929 11.928C48.6929 11.576 48.6929 11.224 48.6929 10.872C48.7035 10.52 48.7142 10.1947 48.7249 9.896C48.7462 9.30933 48.8475 8.76 49.0289 8.248C49.2102 7.72533 49.4715 7.272 49.8129 6.888C50.1649 6.504 50.6075 6.2 51.1409 5.976C51.6742 5.752 52.3089 5.64 53.0449 5.64C53.7915 5.64 54.4315 5.752 54.9649 5.976C55.4982 6.2 55.9355 6.504 56.2769 6.888C56.6289 7.272 56.8902 7.72533 57.0609 8.248C57.2422 8.76 57.3435 9.30933 57.3649 9.896C57.3862 10.1947 57.3969 10.52 57.3969 10.872C57.3969 11.224 57.3969 11.576 57.3969 11.928C57.3969 12.2693 57.3862 12.584 57.3649 12.872C57.3435 13.4587 57.2475 14.0133 57.0769 14.536C56.9062 15.048 56.6502 15.5013 56.3089 15.896C55.9675 16.2907 55.5249 16.6 54.9809 16.824C54.4475 17.048 53.8022 17.16 53.0449 17.16ZM53.0449 15.32C53.7382 15.32 54.2449 15.096 54.5649 14.648C54.8955 14.1893 55.0662 13.5707 55.0769 12.792C55.0982 12.4827 55.1089 12.1733 55.1089 11.864C55.1089 11.544 55.1089 11.224 55.1089 10.904C55.1089 10.584 55.0982 10.28 55.0769 9.992C55.0662 9.23467 54.8955 8.62667 54.5649 8.168C54.2449 7.69867 53.7382 7.464 53.0449 7.464C52.3622 7.464 51.8555 7.69867 51.5249 8.168C51.2049 8.62667 51.0342 9.23467 51.0129 9.992C51.0129 10.28 51.0075 10.584 50.9969 10.904C50.9969 11.224 50.9969 11.544 50.9969 11.864C51.0075 12.1733 51.0129 12.4827 51.0129 12.792C51.0342 13.5707 51.2102 14.1893 51.5409 14.648C51.8715 15.096 52.3729 15.32 53.0449 15.32ZM58.6586 19.544C58.552 19.544 58.4613 19.5067 58.3866 19.432C58.312 19.3573 58.2746 19.2667 58.2746 19.16V18.2C58.2746 18.0933 58.3066 18.0027 58.3706 17.928C58.4453 17.8533 58.5306 17.816 58.6266 17.816C59.0746 17.7947 59.4426 17.6667 59.7306 17.432C60.0293 17.208 60.264 16.8613 60.4346 16.392C60.616 15.9227 60.744 15.3307 60.8186 14.616C60.904 13.9013 60.9466 13.048 60.9466 12.056C60.9466 11.064 60.904 10.2107 60.8186 9.496C60.744 8.78133 60.616 8.19467 60.4346 7.736C60.264 7.26667 60.0293 6.92 59.7306 6.696C59.4426 6.46133 59.0746 6.33333 58.6266 6.312C58.5306 6.312 58.4453 6.27467 58.3706 6.2C58.3066 6.12533 58.2746 6.03467 58.2746 5.928V4.968C58.2746 4.86133 58.312 4.77067 58.3866 4.696C58.4613 4.62133 58.552 4.584 58.6586 4.584C59.3626 4.584 59.9813 4.728 60.5146 5.016C61.048 5.29333 61.4853 5.736 61.8266 6.344C62.1786 6.94133 62.44 7.71467 62.6106 8.664C62.7813 9.60267 62.8666 10.7333 62.8666 12.056C62.8666 13.368 62.7813 14.4987 62.6106 15.448C62.44 16.3973 62.1786 17.1707 61.8266 17.768C61.4853 18.376 61.048 18.824 60.5146 19.112C59.9813 19.4 59.3626 19.544 58.6586 19.544ZM72.4321 17.16C71.5148 17.16 70.7255 16.9893 70.0641 16.648C69.4028 16.296 68.8908 15.8267 68.5281 15.24C68.1655 14.6427 67.9841 13.976 67.9841 13.24C67.9841 12.9093 68.0268 12.5893 68.1121 12.28C68.1975 11.9707 68.3095 11.6773 68.4481 11.4C68.5868 11.1227 68.7201 10.8773 68.8481 10.664C68.9868 10.44 69.1095 10.264 69.2161 10.136L72.1441 6.12C72.1868 6.06667 72.2508 6.00267 72.3361 5.928C72.4215 5.84267 72.5388 5.8 72.6881 5.8H74.1761C74.2721 5.8 74.3521 5.83733 74.4161 5.912C74.4801 5.976 74.5121 6.056 74.5121 6.152C74.5121 6.19467 74.5015 6.23733 74.4801 6.28C74.4695 6.312 74.4535 6.33867 74.4321 6.36L72.1921 9.464C72.2881 9.432 72.4001 9.41067 72.5281 9.4C72.6561 9.38933 72.7735 9.384 72.8801 9.384C73.4135 9.39467 73.9201 9.50133 74.4001 9.704C74.8801 9.896 75.3015 10.1627 75.6641 10.504C76.0268 10.8453 76.3095 11.2453 76.5121 11.704C76.7255 12.1627 76.8321 12.664 76.8321 13.208C76.8321 13.912 76.6561 14.568 76.3041 15.176C75.9521 15.7733 75.4455 16.2533 74.7841 16.616C74.1335 16.9787 73.3495 17.16 72.4321 17.16ZM72.4161 15.32C72.8001 15.32 73.1521 15.24 73.4721 15.08C73.8028 14.92 74.0695 14.6853 74.2721 14.376C74.4748 14.0667 74.5761 13.6827 74.5761 13.224C74.5761 12.776 74.4748 12.3973 74.2721 12.088C74.0695 11.7787 73.8028 11.544 73.4721 11.384C73.1521 11.224 72.8001 11.144 72.4161 11.144C72.0321 11.144 71.6748 11.224 71.3441 11.384C71.0241 11.544 70.7628 11.7787 70.5601 12.088C70.3575 12.3973 70.2561 12.776 70.2561 13.224C70.2561 13.6827 70.3575 14.0667 70.5601 14.376C70.7628 14.6853 71.0241 14.92 71.3441 15.08C71.6748 15.24 72.0321 15.32 72.4161 15.32ZM82.6074 17.16C81.85 17.16 81.2047 17.048 80.6714 16.824C80.138 16.6 79.7007 16.2907 79.3594 15.896C79.018 15.5013 78.762 15.048 78.5914 14.536C78.4207 14.0133 78.3194 13.4587 78.2874 12.872C78.2767 12.584 78.266 12.2693 78.2554 11.928C78.2554 11.576 78.2554 11.224 78.2554 10.872C78.266 10.52 78.2767 10.1947 78.2874 9.896C78.3087 9.30933 78.41 8.76 78.5914 8.248C78.7727 7.72533 79.034 7.272 79.3754 6.888C79.7274 6.504 80.17 6.2 80.7034 5.976C81.2367 5.752 81.8714 5.64 82.6074 5.64C83.354 5.64 83.994 5.752 84.5274 5.976C85.0607 6.2 85.498 6.504 85.8394 6.888C86.1914 7.272 86.4527 7.72533 86.6234 8.248C86.8047 8.76 86.906 9.30933 86.9274 9.896C86.9487 10.1947 86.9594 10.52 86.9594 10.872C86.9594 11.224 86.9594 11.576 86.9594 11.928C86.9594 12.2693 86.9487 12.584 86.9274 12.872C86.906 13.4587 86.81 14.0133 86.6394 14.536C86.4687 15.048 86.2127 15.5013 85.8714 15.896C85.53 16.2907 85.0874 16.6 84.5434 16.824C84.01 17.048 83.3647 17.16 82.6074 17.16ZM82.6074 15.32C83.3007 15.32 83.8074 15.096 84.1274 14.648C84.458 14.1893 84.6287 13.5707 84.6394 12.792C84.6607 12.4827 84.6714 12.1733 84.6714 11.864C84.6714 11.544 84.6714 11.224 84.6714 10.904C84.6714 10.584 84.6607 10.28 84.6394 9.992C84.6287 9.23467 84.458 8.62667 84.1274 8.168C83.8074 7.69867 83.3007 7.464 82.6074 7.464C81.9247 7.464 81.418 7.69867 81.0874 8.168C80.7674 8.62667 80.5967 9.23467 80.5754 9.992C80.5754 10.28 80.57 10.584 80.5594 10.904C80.5594 11.224 80.5594 11.544 80.5594 11.864C80.57 12.1733 80.5754 12.4827 80.5754 12.792C80.5967 13.5707 80.7727 14.1893 81.1034 14.648C81.434 15.096 81.9354 15.32 82.6074 15.32ZM93.123 17.16C92.3657 17.16 91.7203 17.048 91.187 16.824C90.6537 16.6 90.2163 16.2907 89.875 15.896C89.5337 15.5013 89.2777 15.048 89.107 14.536C88.9363 14.0133 88.835 13.4587 88.803 12.872C88.7923 12.584 88.7817 12.2693 88.771 11.928C88.771 11.576 88.771 11.224 88.771 10.872C88.7817 10.52 88.7923 10.1947 88.803 9.896C88.8243 9.30933 88.9257 8.76 89.107 8.248C89.2883 7.72533 89.5497 7.272 89.891 6.888C90.243 6.504 90.6857 6.2 91.219 5.976C91.7523 5.752 92.387 5.64 93.123 5.64C93.8697 5.64 94.5097 5.752 95.043 5.976C95.5763 6.2 96.0137 6.504 96.355 6.888C96.707 7.272 96.9683 7.72533 97.139 8.248C97.3203 8.76 97.4217 9.30933 97.443 9.896C97.4643 10.1947 97.475 10.52 97.475 10.872C97.475 11.224 97.475 11.576 97.475 11.928C97.475 12.2693 97.4643 12.584 97.443 12.872C97.4217 13.4587 97.3257 14.0133 97.155 14.536C96.9843 15.048 96.7283 15.5013 96.387 15.896C96.0457 16.2907 95.603 16.6 95.059 16.824C94.5257 17.048 93.8803 17.16 93.123 17.16ZM93.123 15.32C93.8163 15.32 94.323 15.096 94.643 14.648C94.9737 14.1893 95.1443 13.5707 95.155 12.792C95.1763 12.4827 95.187 12.1733 95.187 11.864C95.187 11.544 95.187 11.224 95.187 10.904C95.187 10.584 95.1763 10.28 95.155 9.992C95.1443 9.23467 94.9737 8.62667 94.643 8.168C94.323 7.69867 93.8163 7.464 93.123 7.464C92.4403 7.464 91.9337 7.69867 91.603 8.168C91.283 8.62667 91.1123 9.23467 91.091 9.992C91.091 10.28 91.0857 10.584 91.075 10.904C91.075 11.224 91.075 11.544 91.075 11.864C91.0857 12.1733 91.091 12.4827 91.091 12.792C91.1123 13.5707 91.2883 14.1893 91.619 14.648C91.9497 15.096 92.451 15.32 93.123 15.32ZM99.7826 13.112C99.6653 13.112 99.5693 13.0747 99.4946 13C99.4306 12.9253 99.3986 12.8347 99.3986 12.728V11.672C99.3986 11.5653 99.4306 11.4747 99.4946 11.4C99.5693 11.3253 99.6653 11.288 99.7826 11.288H104.695C104.801 11.288 104.892 11.3253 104.967 11.4C105.041 11.4747 105.079 11.5653 105.079 11.672V12.728C105.079 12.8347 105.041 12.9253 104.967 13C104.892 13.0747 104.801 13.112 104.695 13.112H99.7826ZM111.326 17.16C110.622 17.16 109.993 17.0747 109.438 16.904C108.883 16.7333 108.414 16.4933 108.03 16.184C107.657 15.8747 107.369 15.512 107.166 15.096C106.974 14.68 106.878 14.216 106.878 13.704C106.878 13.0853 107.027 12.552 107.326 12.104C107.635 11.6453 108.035 11.2933 108.526 11.048C108.131 10.8027 107.822 10.488 107.598 10.104C107.385 9.72 107.278 9.272 107.278 8.76C107.278 8.14133 107.433 7.60267 107.742 7.144C108.062 6.67467 108.521 6.30667 109.118 6.04C109.726 5.77333 110.462 5.64 111.326 5.64C112.19 5.64 112.921 5.77333 113.518 6.04C114.115 6.296 114.569 6.65867 114.878 7.128C115.187 7.58667 115.342 8.12533 115.342 8.744C115.342 9.256 115.235 9.704 115.022 10.088C114.809 10.472 114.51 10.792 114.126 11.048C114.627 11.2827 115.027 11.6347 115.326 12.104C115.625 12.5627 115.774 13.1013 115.774 13.72C115.774 14.392 115.598 14.9893 115.246 15.512C114.905 16.024 114.398 16.4293 113.726 16.728C113.065 17.016 112.265 17.16 111.326 17.16ZM111.326 15.496C111.742 15.496 112.115 15.4267 112.446 15.288C112.787 15.1387 113.054 14.9307 113.246 14.664C113.449 14.3973 113.55 14.0827 113.55 13.72C113.55 13.3467 113.449 13.032 113.246 12.776C113.054 12.5093 112.787 12.3067 112.446 12.168C112.115 12.0187 111.742 11.944 111.326 11.944C110.91 11.944 110.531 12.0187 110.19 12.168C109.859 12.3067 109.593 12.5093 109.39 12.776C109.198 13.032 109.102 13.3467 109.102 13.72C109.102 14.0827 109.198 14.3973 109.39 14.664C109.593 14.9307 109.859 15.1387 110.19 15.288C110.531 15.4267 110.91 15.496 111.326 15.496ZM111.326 10.36C111.678 10.3493 111.998 10.28 112.286 10.152C112.585 10.024 112.819 9.85333 112.99 9.64C113.171 9.416 113.262 9.14933 113.262 8.84C113.262 8.53067 113.177 8.264 113.006 8.04C112.846 7.80533 112.617 7.624 112.318 7.496C112.03 7.368 111.699 7.304 111.326 7.304C110.953 7.304 110.617 7.368 110.318 7.496C110.03 7.624 109.801 7.80533 109.63 8.04C109.47 8.264 109.39 8.53067 109.39 8.84C109.39 9.14933 109.47 9.416 109.63 9.64C109.801 9.864 110.03 10.04 110.318 10.168C110.617 10.296 110.953 10.36 111.326 10.36ZM121.474 17.176C120.557 17.176 119.783 17.0267 119.154 16.728C118.525 16.4187 118.045 16.0187 117.714 15.528C117.394 15.0373 117.223 14.5147 117.202 13.96C117.191 13.864 117.218 13.7893 117.282 13.736C117.357 13.672 117.442 13.64 117.538 13.64H119.026C119.143 13.64 119.239 13.6667 119.314 13.72C119.399 13.7627 119.463 13.8427 119.506 13.96C119.613 14.28 119.762 14.5413 119.954 14.744C120.157 14.9467 120.386 15.096 120.642 15.192C120.909 15.288 121.186 15.336 121.474 15.336C121.858 15.336 122.205 15.2613 122.514 15.112C122.834 14.952 123.09 14.7173 123.282 14.408C123.474 14.0987 123.57 13.72 123.57 13.272C123.57 12.8773 123.479 12.536 123.298 12.248C123.117 11.96 122.866 11.736 122.546 11.576C122.237 11.4053 121.879 11.32 121.474 11.32C121.175 11.32 120.93 11.3573 120.738 11.432C120.546 11.5067 120.381 11.592 120.242 11.688C120.114 11.784 119.997 11.8693 119.89 11.944C119.794 12.0187 119.682 12.056 119.554 12.056H118.082C117.986 12.056 117.901 12.024 117.826 11.96C117.762 11.8853 117.73 11.8 117.73 11.704L118.29 6.232C118.301 6.09333 118.349 5.98667 118.434 5.912C118.519 5.83733 118.621 5.8 118.738 5.8H124.754C124.861 5.8 124.951 5.83733 125.026 5.912C125.101 5.98667 125.138 6.07733 125.138 6.184V7.256C125.138 7.36267 125.101 7.45333 125.026 7.528C124.951 7.60267 124.861 7.64 124.754 7.64H120.13L119.874 10.248C120.066 10.12 120.322 9.99733 120.642 9.88C120.962 9.76267 121.405 9.704 121.97 9.704C122.482 9.704 122.967 9.78933 123.426 9.96C123.895 10.12 124.311 10.36 124.674 10.68C125.037 10.9893 125.319 11.368 125.522 11.816C125.735 12.2533 125.842 12.7547 125.842 13.32C125.842 14.0987 125.661 14.776 125.298 15.352C124.935 15.928 124.429 16.376 123.778 16.696C123.127 17.016 122.359 17.176 121.474 17.176ZM127.892 13.112C127.775 13.112 127.679 13.0747 127.604 13C127.54 12.9253 127.508 12.8347 127.508 12.728V11.672C127.508 11.5653 127.54 11.4747 127.604 11.4C127.679 11.3253 127.775 11.288 127.892 11.288H132.804C132.911 11.288 133.001 11.3253 133.076 11.4C133.151 11.4747 133.188 11.5653 133.188 11.672V12.728C133.188 12.8347 133.151 12.9253 133.076 13C133.001 13.0747 132.911 13.112 132.804 13.112H127.892ZM139.436 17.16C138.732 17.16 138.102 17.0747 137.548 16.904C136.993 16.7333 136.524 16.4933 136.14 16.184C135.766 15.8747 135.478 15.512 135.276 15.096C135.084 14.68 134.988 14.216 134.988 13.704C134.988 13.0853 135.137 12.552 135.436 12.104C135.745 11.6453 136.145 11.2933 136.636 11.048C136.241 10.8027 135.932 10.488 135.708 10.104C135.494 9.72 135.388 9.272 135.388 8.76C135.388 8.14133 135.542 7.60267 135.852 7.144C136.172 6.67467 136.63 6.30667 137.228 6.04C137.836 5.77333 138.572 5.64 139.436 5.64C140.3 5.64 141.03 5.77333 141.628 6.04C142.225 6.296 142.678 6.65867 142.988 7.128C143.297 7.58667 143.452 8.12533 143.452 8.744C143.452 9.256 143.345 9.704 143.132 10.088C142.918 10.472 142.62 10.792 142.236 11.048C142.737 11.2827 143.137 11.6347 143.436 12.104C143.734 12.5627 143.884 13.1013 143.884 13.72C143.884 14.392 143.708 14.9893 143.356 15.512C143.014 16.024 142.508 16.4293 141.836 16.728C141.174 17.016 140.374 17.16 139.436 17.16ZM139.436 15.496C139.852 15.496 140.225 15.4267 140.556 15.288C140.897 15.1387 141.164 14.9307 141.356 14.664C141.558 14.3973 141.66 14.0827 141.66 13.72C141.66 13.3467 141.558 13.032 141.356 12.776C141.164 12.5093 140.897 12.3067 140.556 12.168C140.225 12.0187 139.852 11.944 139.436 11.944C139.02 11.944 138.641 12.0187 138.299 12.168C137.969 12.3067 137.702 12.5093 137.5 12.776C137.308 13.032 137.212 13.3467 137.212 13.72C137.212 14.0827 137.308 14.3973 137.5 14.664C137.702 14.9307 137.969 15.1387 138.299 15.288C138.641 15.4267 139.02 15.496 139.436 15.496ZM139.436 10.36C139.788 10.3493 140.108 10.28 140.396 10.152C140.694 10.024 140.929 9.85333 141.1 9.64C141.281 9.416 141.372 9.14933 141.372 8.84C141.372 8.53067 141.286 8.264 141.116 8.04C140.956 7.80533 140.726 7.624 140.428 7.496C140.14 7.368 139.809 7.304 139.436 7.304C139.062 7.304 138.726 7.368 138.428 7.496C138.14 7.624 137.91 7.80533 137.74 8.04C137.58 8.264 137.5 8.53067 137.5 8.84C137.5 9.14933 137.58 9.416 137.74 9.64C137.91 9.864 138.14 10.04 138.428 10.168C138.726 10.296 139.062 10.36 139.436 10.36ZM147.632 17C147.536 17 147.456 16.968 147.392 16.904C147.328 16.8293 147.296 16.744 147.296 16.648C147.296 16.5947 147.301 16.552 147.312 16.52C147.333 16.488 147.349 16.4613 147.36 16.44L149.712 13.192C149.498 13.2453 149.274 13.2667 149.04 13.256C148.506 13.2453 148.005 13.144 147.536 12.952C147.077 12.7493 146.672 12.4827 146.32 12.152C145.978 11.8107 145.706 11.4213 145.504 10.984C145.312 10.536 145.215 10.0507 145.215 9.528C145.215 9.048 145.306 8.57867 145.488 8.12C145.669 7.65067 145.936 7.22933 146.288 6.856C146.65 6.48267 147.098 6.18933 147.632 5.976C148.176 5.752 148.81 5.64 149.536 5.64C150.25 5.64 150.88 5.74133 151.424 5.944C151.968 6.14667 152.421 6.42933 152.784 6.792C153.157 7.144 153.434 7.54933 153.616 8.008C153.808 8.46667 153.904 8.952 153.904 9.464C153.904 9.92267 153.829 10.3493 153.68 10.744C153.53 11.1387 153.344 11.5013 153.12 11.832C152.906 12.152 152.693 12.4667 152.48 12.776L149.664 16.68C149.621 16.7333 149.557 16.8027 149.472 16.888C149.397 16.9627 149.28 17 149.12 17H147.632ZM149.552 11.56C149.936 11.56 150.282 11.48 150.592 11.32C150.912 11.1493 151.162 10.9147 151.344 10.616C151.536 10.3067 151.632 9.944 151.632 9.528C151.632 9.10133 151.536 8.73867 151.344 8.44C151.162 8.13067 150.912 7.896 150.592 7.736C150.272 7.56533 149.925 7.48 149.552 7.48C149.168 7.48 148.816 7.56533 148.496 7.736C148.186 7.896 147.936 8.13067 147.744 8.44C147.562 8.73867 147.472 9.10133 147.472 9.528C147.472 9.944 147.562 10.3067 147.744 10.616C147.936 10.9147 148.186 11.1493 148.496 11.32C148.816 11.48 149.168 11.56 149.552 11.56Z" fill="white"/>
<path d="M4.64 45.16C3.456 45.16 2.51733 44.8187 1.824 44.136C1.13067 43.4533 0.757333 42.4827 0.704 41.224C0.693333 41.1173 0.688 40.984 0.688 40.824C0.688 40.6533 0.693333 40.52 0.704 40.424C0.746667 39.624 0.928 38.9307 1.248 38.344C1.57867 37.7573 2.032 37.3093 2.608 37C3.184 36.68 3.86133 36.52 4.64 36.52C5.504 36.52 6.22933 36.7013 6.816 37.064C7.40267 37.416 7.84533 37.912 8.144 38.552C8.44267 39.1813 8.592 39.912 8.592 40.744V41.08C8.592 41.1867 8.55467 41.2773 8.48 41.352C8.40533 41.4267 8.30933 41.464 8.192 41.464H2.88C2.88 41.464 2.88 41.48 2.88 41.512C2.88 41.544 2.88 41.5707 2.88 41.592C2.89067 41.9653 2.96 42.312 3.088 42.632C3.22667 42.9413 3.424 43.192 3.68 43.384C3.94667 43.576 4.26133 43.672 4.624 43.672C4.92267 43.672 5.17333 43.6293 5.376 43.544C5.57867 43.448 5.744 43.3413 5.872 43.224C6 43.1067 6.09067 43.0107 6.144 42.936C6.24 42.808 6.31467 42.7333 6.368 42.712C6.432 42.68 6.52267 42.664 6.64 42.664H8.016C8.12267 42.664 8.208 42.696 8.272 42.76C8.34667 42.824 8.37867 42.904 8.368 43C8.35733 43.1707 8.26667 43.3787 8.096 43.624C7.936 43.8693 7.70133 44.1093 7.392 44.344C7.08267 44.5787 6.69333 44.776 6.224 44.936C5.76533 45.0853 5.23733 45.16 4.64 45.16ZM2.88 40.12H6.416V40.072C6.416 39.656 6.34667 39.2933 6.208 38.984C6.06933 38.6747 5.86667 38.4293 5.6 38.248C5.33333 38.0667 5.01333 37.976 4.64 37.976C4.26667 37.976 3.94667 38.0667 3.68 38.248C3.41333 38.4293 3.21067 38.6747 3.072 38.984C2.944 39.2933 2.88 39.656 2.88 40.072V40.12ZM10.6904 48.04C10.5837 48.04 10.493 48.0027 10.4184 47.928C10.3437 47.8533 10.3064 47.7627 10.3064 47.656V37.064C10.3064 36.9573 10.3437 36.8667 10.4184 36.792C10.493 36.7173 10.5837 36.68 10.6904 36.68H11.9544C12.0717 36.68 12.1624 36.7173 12.2264 36.792C12.301 36.8667 12.3384 36.9573 12.3384 37.064V37.704C12.5944 37.3627 12.9304 37.08 13.3464 36.856C13.7624 36.632 14.2797 36.52 14.8984 36.52C15.4637 36.52 15.9544 36.6107 16.3704 36.792C16.7864 36.9733 17.133 37.2347 17.4104 37.576C17.6877 37.9067 17.901 38.3013 18.0504 38.76C18.1997 39.2187 18.285 39.7253 18.3064 40.28C18.317 40.4613 18.3224 40.648 18.3224 40.84C18.3224 41.032 18.317 41.224 18.3064 41.416C18.2957 41.9493 18.2157 42.4453 18.0664 42.904C17.917 43.352 17.6984 43.7467 17.4104 44.088C17.133 44.4187 16.7864 44.68 16.3704 44.872C15.9544 45.064 15.4637 45.16 14.8984 45.16C14.3224 45.16 13.8317 45.0587 13.4264 44.856C13.021 44.6427 12.6904 44.3653 12.4344 44.024V47.656C12.4344 47.7627 12.397 47.8533 12.3224 47.928C12.2584 48.0027 12.1677 48.04 12.0504 48.04H10.6904ZM14.3064 43.448C14.765 43.448 15.1224 43.352 15.3784 43.16C15.6344 42.9573 15.8157 42.696 15.9224 42.376C16.0397 42.056 16.109 41.704 16.1304 41.32C16.1517 41 16.1517 40.68 16.1304 40.36C16.109 39.976 16.0397 39.624 15.9224 39.304C15.8157 38.984 15.6344 38.728 15.3784 38.536C15.1224 38.3333 14.765 38.232 14.3064 38.232C13.869 38.232 13.5117 38.3333 13.2344 38.536C12.9677 38.7387 12.7704 39 12.6424 39.32C12.525 39.6293 12.4557 39.9493 12.4344 40.28C12.4237 40.472 12.4184 40.6747 12.4184 40.888C12.4184 41.1013 12.4237 41.3093 12.4344 41.512C12.445 41.832 12.5197 42.1413 12.6584 42.44C12.797 42.728 12.9997 42.968 13.2664 43.16C13.533 43.352 13.8797 43.448 14.3064 43.448ZM22.5345 45.16C21.9798 45.16 21.4785 45.0533 21.0305 44.84C20.5825 44.616 20.2252 44.3227 19.9585 43.96C19.7025 43.5867 19.5745 43.1707 19.5745 42.712C19.5745 41.9653 19.8732 41.3733 20.4705 40.936C21.0785 40.488 21.8785 40.1893 22.8705 40.04L25.0625 39.72V39.384C25.0625 38.936 24.9505 38.5893 24.7265 38.344C24.5025 38.0987 24.1185 37.976 23.5745 37.976C23.1905 37.976 22.8758 38.056 22.6305 38.216C22.3958 38.3653 22.2198 38.568 22.1025 38.824C22.0172 38.9627 21.8945 39.032 21.7345 39.032H20.4705C20.3532 39.032 20.2625 39 20.1985 38.936C20.1452 38.872 20.1185 38.7867 20.1185 38.68C20.1292 38.5093 20.1985 38.3013 20.3265 38.056C20.4545 37.8107 20.6572 37.576 20.9345 37.352C21.2118 37.1173 21.5692 36.92 22.0065 36.76C22.4438 36.6 22.9718 36.52 23.5905 36.52C24.2625 36.52 24.8278 36.6053 25.2865 36.776C25.7558 36.936 26.1292 37.1547 26.4065 37.432C26.6838 37.7093 26.8865 38.0347 27.0145 38.408C27.1425 38.7813 27.2065 39.176 27.2065 39.592V44.616C27.2065 44.7227 27.1692 44.8133 27.0945 44.888C27.0198 44.9627 26.9292 45 26.8225 45H25.5265C25.4092 45 25.3132 44.9627 25.2385 44.888C25.1745 44.8133 25.1425 44.7227 25.1425 44.616V43.992C25.0038 44.1947 24.8172 44.3867 24.5825 44.568C24.3478 44.7387 24.0598 44.8827 23.7185 45C23.3878 45.1067 22.9932 45.16 22.5345 45.16ZM23.0785 43.64C23.4518 43.64 23.7878 43.56 24.0865 43.4C24.3958 43.24 24.6358 42.9947 24.8065 42.664C24.9878 42.3227 25.0785 41.896 25.0785 41.384V41.048L23.4785 41.304C22.8492 41.4 22.3798 41.5547 22.0705 41.768C21.7612 41.9813 21.6065 42.2427 21.6065 42.552C21.6065 42.7867 21.6758 42.9893 21.8145 43.16C21.9638 43.32 22.1505 43.4427 22.3745 43.528C22.5985 43.6027 22.8332 43.64 23.0785 43.64ZM29.5471 45C29.4405 45 29.3498 44.9627 29.2751 44.888C29.2005 44.8133 29.1631 44.7227 29.1631 44.616V43.032C29.1631 42.9147 29.2005 42.8187 29.2751 42.744C29.3498 42.6693 29.4405 42.632 29.5471 42.632H31.1471C31.2538 42.632 31.3445 42.6693 31.4191 42.744C31.4938 42.8187 31.5311 42.9147 31.5311 43.032V44.616C31.5311 44.7227 31.4938 44.8133 31.4191 44.888C31.3445 44.9627 31.2538 45 31.1471 45H29.5471ZM33.9404 45C33.8337 45 33.743 44.9627 33.6684 44.888C33.5937 44.8133 33.5564 44.7227 33.5564 44.616V34.024C33.5564 33.9173 33.5937 33.8267 33.6684 33.752C33.743 33.6773 33.8337 33.64 33.9404 33.64H35.2364C35.3537 33.64 35.4444 33.6773 35.5084 33.752C35.583 33.8267 35.6204 33.9173 35.6204 34.024V39.496L38.3084 36.952C38.4044 36.8667 38.4897 36.8027 38.5644 36.76C38.639 36.7067 38.751 36.68 38.9004 36.68H40.3884C40.495 36.68 40.5804 36.712 40.6444 36.776C40.7084 36.84 40.7404 36.9253 40.7404 37.032C40.7404 37.0747 40.7297 37.1227 40.7084 37.176C40.687 37.2293 40.6444 37.2773 40.5804 37.32L37.2844 40.408L40.9804 44.376C41.087 44.4827 41.1404 44.5733 41.1404 44.648C41.1404 44.7547 41.103 44.84 41.0284 44.904C40.9644 44.968 40.8844 45 40.7884 45H39.2684C39.1084 45 38.991 44.9787 38.9164 44.936C38.8524 44.8827 38.7724 44.8133 38.6764 44.728L35.6204 41.512V44.616C35.6204 44.7227 35.583 44.8133 35.5084 44.888C35.4444 44.9627 35.3537 45 35.2364 45H33.9404ZM44.597 45.16C44.0423 45.16 43.541 45.0533 43.093 44.84C42.645 44.616 42.2877 44.3227 42.021 43.96C41.765 43.5867 41.637 43.1707 41.637 42.712C41.637 41.9653 41.9357 41.3733 42.533 40.936C43.141 40.488 43.941 40.1893 44.933 40.04L47.125 39.72V39.384C47.125 38.936 47.013 38.5893 46.789 38.344C46.565 38.0987 46.181 37.976 45.637 37.976C45.253 37.976 44.9383 38.056 44.693 38.216C44.4583 38.3653 44.2823 38.568 44.165 38.824C44.0797 38.9627 43.957 39.032 43.797 39.032H42.533C42.4157 39.032 42.325 39 42.261 38.936C42.2077 38.872 42.181 38.7867 42.181 38.68C42.1917 38.5093 42.261 38.3013 42.389 38.056C42.517 37.8107 42.7197 37.576 42.997 37.352C43.2743 37.1173 43.6317 36.92 44.069 36.76C44.5063 36.6 45.0343 36.52 45.653 36.52C46.325 36.52 46.8903 36.6053 47.349 36.776C47.8183 36.936 48.1917 37.1547 48.469 37.432C48.7463 37.7093 48.949 38.0347 49.077 38.408C49.205 38.7813 49.269 39.176 49.269 39.592V44.616C49.269 44.7227 49.2317 44.8133 49.157 44.888C49.0823 44.9627 48.9917 45 48.885 45H47.589C47.4717 45 47.3757 44.9627 47.301 44.888C47.237 44.8133 47.205 44.7227 47.205 44.616V43.992C47.0663 44.1947 46.8797 44.3867 46.645 44.568C46.4103 44.7387 46.1223 44.8827 45.781 45C45.4503 45.1067 45.0557 45.16 44.597 45.16ZM45.141 43.64C45.5143 43.64 45.8503 43.56 46.149 43.4C46.4583 43.24 46.6983 42.9947 46.869 42.664C47.0503 42.3227 47.141 41.896 47.141 41.384V41.048L45.541 41.304C44.9117 41.4 44.4423 41.5547 44.133 41.768C43.8237 41.9813 43.669 42.2427 43.669 42.552C43.669 42.7867 43.7383 42.9893 43.877 43.16C44.0263 43.32 44.213 43.4427 44.437 43.528C44.661 43.6027 44.8957 43.64 45.141 43.64ZM54.4736 45.16C53.8336 45.16 53.2843 45.0853 52.8256 44.936C52.3776 44.7867 52.0096 44.6 51.7216 44.376C51.4336 44.152 51.2203 43.928 51.0816 43.704C50.943 43.48 50.8683 43.2933 50.8576 43.144C50.847 43.0267 50.879 42.936 50.9536 42.872C51.039 42.7973 51.1296 42.76 51.2256 42.76H52.4896C52.5323 42.76 52.5696 42.7653 52.6016 42.776C52.6336 42.7867 52.6763 42.8187 52.7296 42.872C52.8683 42.9893 53.0123 43.112 53.1616 43.24C53.3216 43.368 53.5083 43.48 53.7216 43.576C53.935 43.6613 54.2016 43.704 54.5216 43.704C54.9376 43.704 55.2843 43.624 55.5616 43.464C55.8496 43.2933 55.9936 43.0533 55.9936 42.744C55.9936 42.52 55.9296 42.3387 55.8016 42.2C55.6843 42.0613 55.4603 41.9387 55.1296 41.832C54.799 41.7147 54.3296 41.592 53.7216 41.464C53.1243 41.3253 52.6283 41.1493 52.2336 40.936C51.839 40.7227 51.5456 40.456 51.3536 40.136C51.1616 39.816 51.0656 39.4427 51.0656 39.016C51.0656 38.6 51.1883 38.2053 51.4336 37.832C51.6896 37.448 52.063 37.1333 52.5536 36.888C53.055 36.6427 53.6736 36.52 54.4096 36.52C54.9856 36.52 55.487 36.5947 55.9136 36.744C56.3403 36.8827 56.6923 37.0587 56.9696 37.272C57.2576 37.4853 57.4763 37.704 57.6256 37.928C57.775 38.1413 57.855 38.328 57.8656 38.488C57.8763 38.6053 57.8443 38.7013 57.7696 38.776C57.695 38.84 57.6096 38.872 57.5136 38.872H56.3296C56.2763 38.872 56.2283 38.8613 56.1856 38.84C56.143 38.8187 56.1003 38.792 56.0576 38.76C55.9403 38.6533 55.8123 38.5413 55.6736 38.424C55.535 38.3067 55.3643 38.2053 55.1616 38.12C54.9696 38.024 54.7136 37.976 54.3936 37.976C53.9883 37.976 53.679 38.0667 53.4656 38.248C53.2523 38.4187 53.1456 38.6373 53.1456 38.904C53.1456 39.0853 53.1936 39.2453 53.2896 39.384C53.3963 39.512 53.6043 39.6347 53.9136 39.752C54.223 39.8693 54.6923 39.992 55.3216 40.12C56.0363 40.248 56.6016 40.44 57.0176 40.696C57.4443 40.9413 57.743 41.2293 57.9136 41.56C58.095 41.88 58.1856 42.2373 58.1856 42.632C58.1856 43.112 58.0416 43.544 57.7536 43.928C57.4763 44.312 57.0603 44.616 56.5056 44.84C55.9616 45.0533 55.2843 45.16 54.4736 45.16ZM60.2373 45C60.1306 45 60.0399 44.9627 59.9653 44.888C59.8906 44.8133 59.8533 44.7227 59.8533 44.616V34.024C59.8533 33.9173 59.8906 33.8267 59.9653 33.752C60.0399 33.6773 60.1306 33.64 60.2373 33.64H61.5333C61.6506 33.64 61.7413 33.6773 61.8053 33.752C61.8799 33.8267 61.9173 33.9173 61.9173 34.024V39.496L64.6053 36.952C64.7013 36.8667 64.7866 36.8027 64.8613 36.76C64.9359 36.7067 65.0479 36.68 65.1973 36.68H66.6853C66.7919 36.68 66.8773 36.712 66.9413 36.776C67.0053 36.84 67.0373 36.9253 67.0373 37.032C67.0373 37.0747 67.0266 37.1227 67.0052 37.176C66.9839 37.2293 66.9413 37.2773 66.8773 37.32L63.5813 40.408L67.2773 44.376C67.3839 44.4827 67.4373 44.5733 67.4373 44.648C67.4373 44.7547 67.3999 44.84 67.3253 44.904C67.2613 44.968 67.1813 45 67.0853 45H65.5653C65.4053 45 65.2879 44.9787 65.2133 44.936C65.1493 44.8827 65.0693 44.8133 64.9733 44.728L61.9173 41.512V44.616C61.9173 44.7227 61.8799 44.8133 61.8053 44.888C61.7413 44.9627 61.6506 45 61.5333 45H60.2373ZM70.8939 45.16C70.3392 45.16 69.8379 45.0533 69.3899 44.84C68.9419 44.616 68.5845 44.3227 68.3179 43.96C68.0619 43.5867 67.9339 43.1707 67.9339 42.712C67.9339 41.9653 68.2325 41.3733 68.8299 40.936C69.4379 40.488 70.2379 40.1893 71.2299 40.04L73.4219 39.72V39.384C73.4219 38.936 73.3099 38.5893 73.0859 38.344C72.8619 38.0987 72.4779 37.976 71.9339 37.976C71.5499 37.976 71.2352 38.056 70.9899 38.216C70.7552 38.3653 70.5792 38.568 70.4619 38.824C70.3765 38.9627 70.2539 39.032 70.0939 39.032H68.8299C68.7125 39.032 68.6219 39 68.5579 38.936C68.5045 38.872 68.4779 38.7867 68.4779 38.68C68.4885 38.5093 68.5579 38.3013 68.6859 38.056C68.8139 37.8107 69.0165 37.576 69.2939 37.352C69.5712 37.1173 69.9285 36.92 70.3659 36.76C70.8032 36.6 71.3312 36.52 71.9499 36.52C72.6219 36.52 73.1872 36.6053 73.6459 36.776C74.1152 36.936 74.4885 37.1547 74.7659 37.432C75.0432 37.7093 75.2459 38.0347 75.3739 38.408C75.5019 38.7813 75.5659 39.176 75.5659 39.592V44.616C75.5659 44.7227 75.5285 44.8133 75.4539 44.888C75.3792 44.9627 75.2885 45 75.1819 45H73.8859C73.7685 45 73.6725 44.9627 73.5979 44.888C73.5339 44.8133 73.5019 44.7227 73.5019 44.616V43.992C73.3632 44.1947 73.1765 44.3867 72.9419 44.568C72.7072 44.7387 72.4192 44.8827 72.0779 45C71.7472 45.1067 71.3525 45.16 70.8939 45.16ZM71.4379 43.64C71.8112 43.64 72.1472 43.56 72.4459 43.4C72.7552 43.24 72.9952 42.9947 73.1659 42.664C73.3472 42.3227 73.4379 41.896 73.4379 41.384V41.048L71.8379 41.304C71.2085 41.4 70.7392 41.5547 70.4299 41.768C70.1205 41.9813 69.9659 42.2427 69.9659 42.552C69.9659 42.7867 70.0352 42.9893 70.1739 43.16C70.3232 43.32 70.5099 43.4427 70.7339 43.528C70.9579 43.6027 71.1925 43.64 71.4379 43.64ZM80.7065 45.16C80.1518 45.16 79.6612 45.0693 79.2345 44.888C78.8185 44.696 78.4718 44.4293 78.1945 44.088C77.9172 43.7467 77.7038 43.3467 77.5545 42.888C77.4052 42.4187 77.3198 41.9067 77.2985 41.352C77.2878 41.16 77.2825 40.9893 77.2825 40.84C77.2825 40.68 77.2878 40.504 77.2985 40.312C77.3198 39.7787 77.3998 39.2827 77.5385 38.824C77.6878 38.3653 77.9012 37.9653 78.1785 37.624C78.4665 37.272 78.8185 37 79.2345 36.808C79.6612 36.616 80.1518 36.52 80.7065 36.52C81.2825 36.52 81.7678 36.6213 82.1625 36.824C82.5678 37.016 82.9038 37.2667 83.1705 37.576V34.024C83.1705 33.9173 83.2025 33.8267 83.2665 33.752C83.3412 33.6773 83.4372 33.64 83.5545 33.64H84.9145C85.0212 33.64 85.1118 33.6773 85.1865 33.752C85.2612 33.8267 85.2985 33.9173 85.2985 34.024V44.616C85.2985 44.7227 85.2612 44.8133 85.1865 44.888C85.1118 44.9627 85.0212 45 84.9145 45H83.6505C83.5332 45 83.4372 44.9627 83.3625 44.888C83.2985 44.8133 83.2665 44.7227 83.2665 44.616V44.024C82.9998 44.3547 82.6585 44.6267 82.2425 44.84C81.8372 45.0533 81.3252 45.16 80.7065 45.16ZM81.2985 43.448C81.7465 43.448 82.1038 43.3467 82.3705 43.144C82.6372 42.9413 82.8345 42.6853 82.9625 42.376C83.0905 42.056 83.1598 41.7307 83.1705 41.4C83.1812 41.208 83.1865 41.0053 83.1865 40.792C83.1865 40.568 83.1812 40.36 83.1705 40.168C83.1598 39.848 83.0852 39.544 82.9465 39.256C82.8078 38.9573 82.6052 38.712 82.3385 38.52C82.0718 38.328 81.7252 38.232 81.2985 38.232C80.8505 38.232 80.4932 38.3333 80.2265 38.536C79.9705 38.728 79.7838 38.984 79.6665 39.304C79.5492 39.624 79.4798 39.976 79.4585 40.36C79.4478 40.68 79.4478 41 79.4585 41.32C79.4798 41.704 79.5492 42.056 79.6665 42.376C79.7838 42.696 79.9705 42.9573 80.2265 43.16C80.4932 43.352 80.8505 43.448 81.2985 43.448ZM93.095 46.984C91.8683 46.984 90.839 46.7813 90.007 46.376C89.175 45.9707 88.5297 45.3947 88.071 44.648C87.623 43.9013 87.351 43.0267 87.255 42.024C87.2443 41.8747 87.2337 41.6773 87.223 41.432C87.2123 41.176 87.207 40.9093 87.207 40.632C87.207 40.3547 87.2123 40.0987 87.223 39.864C87.2337 39.6187 87.2443 39.4267 87.255 39.288C87.319 38.584 87.4897 37.928 87.767 37.32C88.0443 36.7013 88.4177 36.168 88.887 35.72C89.367 35.272 89.943 34.92 90.615 34.664C91.2977 34.408 92.0817 34.28 92.967 34.28C94.0017 34.28 94.8817 34.4027 95.607 34.648C96.343 34.8827 96.9457 35.224 97.415 35.672C97.895 36.1093 98.2523 36.6373 98.487 37.256C98.7323 37.864 98.8817 38.5413 98.935 39.288C98.9563 39.5333 98.967 39.7893 98.967 40.056C98.967 40.3227 98.9617 40.5733 98.951 40.808C98.951 41.032 98.9457 41.208 98.935 41.336C98.903 41.8587 98.7803 42.3013 98.567 42.664C98.3643 43.016 98.0923 43.2827 97.751 43.464C97.4203 43.6453 97.0417 43.736 96.615 43.736C96.263 43.736 95.959 43.6827 95.703 43.576C95.4577 43.4693 95.255 43.352 95.095 43.224C94.9457 43.0853 94.8337 42.968 94.759 42.872C94.6737 43.0107 94.5563 43.16 94.407 43.32C94.2577 43.48 94.0443 43.6187 93.767 43.736C93.5003 43.8427 93.1483 43.896 92.711 43.896C91.911 43.896 91.2763 43.608 90.807 43.032C90.3483 42.456 90.119 41.656 90.119 40.632C90.119 39.608 90.3483 38.808 90.807 38.232C91.2657 37.6453 91.8897 37.352 92.679 37.352C93.1057 37.352 93.4417 37.4267 93.687 37.576C93.943 37.7253 94.1457 37.9013 94.295 38.104V37.864C94.295 37.7573 94.3323 37.6667 94.407 37.592C94.4817 37.5173 94.5723 37.48 94.679 37.48H95.319C95.4257 37.48 95.5163 37.5173 95.591 37.592C95.6657 37.6667 95.703 37.7573 95.703 37.864V41.192C95.703 41.5973 95.7883 41.9013 95.959 42.104C96.1297 42.296 96.3483 42.392 96.615 42.392C96.871 42.392 97.063 42.328 97.191 42.2C97.3297 42.0613 97.4203 41.896 97.463 41.704C97.5163 41.512 97.543 41.3413 97.543 41.192C97.5537 41 97.559 40.7387 97.559 40.408C97.5697 40.0773 97.5643 39.7307 97.543 39.368C97.4897 38.536 97.303 37.8427 96.983 37.288C96.6737 36.7333 96.1937 36.3173 95.543 36.04C94.903 35.752 94.0443 35.608 92.967 35.608C92.071 35.608 91.319 35.7627 90.711 36.072C90.103 36.3813 89.6283 36.8187 89.287 37.384C88.9563 37.9387 88.743 38.6 88.647 39.368C88.6257 39.5493 88.6097 39.8053 88.599 40.136C88.599 40.4667 88.599 40.8027 88.599 41.144C88.6097 41.4747 88.6257 41.7413 88.647 41.944C88.775 43.1173 89.2017 44.0293 89.927 44.68C90.663 45.3307 91.719 45.656 93.095 45.656C93.8097 45.656 94.375 45.6027 94.791 45.496C95.2177 45.3893 95.5537 45.2613 95.799 45.112C96.0443 44.9733 96.247 44.84 96.407 44.712C96.4817 44.6587 96.551 44.6107 96.615 44.568C96.6897 44.5253 96.775 44.504 96.871 44.504H97.751C97.8577 44.504 97.9483 44.5413 98.023 44.616C98.0977 44.68 98.135 44.7653 98.135 44.872C98.135 44.9147 98.1243 44.9573 98.103 45C98.0817 45.032 98.0603 45.0693 98.039 45.112C97.751 45.432 97.3883 45.736 96.951 46.024C96.5137 46.312 95.9803 46.5413 95.351 46.712C94.7217 46.8933 93.9697 46.984 93.095 46.984ZM92.903 42.552C93.4043 42.552 93.7617 42.3867 93.975 42.056C94.1883 41.7253 94.295 41.2507 94.295 40.632C94.295 40.0133 94.1883 39.5387 93.975 39.208C93.7617 38.8667 93.4043 38.696 92.903 38.696C92.423 38.696 92.071 38.8667 91.847 39.208C91.623 39.5387 91.511 40.0133 91.511 40.632C91.511 41.0053 91.559 41.3413 91.655 41.64C91.7617 41.928 91.9163 42.152 92.119 42.312C92.3217 42.472 92.583 42.552 92.903 42.552ZM104.597 48.52C103.819 48.52 103.179 48.4187 102.677 48.216C102.176 48.0133 101.781 47.768 101.493 47.48C101.205 47.192 100.997 46.904 100.869 46.616C100.752 46.3387 100.688 46.12 100.677 45.96C100.667 45.8533 100.699 45.7573 100.773 45.672C100.859 45.5973 100.955 45.56 101.061 45.56H102.453C102.56 45.56 102.645 45.5813 102.709 45.624C102.773 45.6773 102.827 45.768 102.869 45.896C102.933 46.0347 103.019 46.184 103.125 46.344C103.232 46.504 103.392 46.6373 103.605 46.744C103.829 46.8613 104.133 46.92 104.517 46.92C104.923 46.92 105.264 46.8613 105.541 46.744C105.819 46.6267 106.027 46.4293 106.165 46.152C106.315 45.8747 106.389 45.4907 106.389 45V43.912C106.133 44.2213 105.803 44.472 105.397 44.664C105.003 44.856 104.512 44.952 103.925 44.952C103.349 44.952 102.853 44.8613 102.437 44.68C102.021 44.488 101.675 44.2267 101.397 43.896C101.12 43.5547 100.907 43.1547 100.757 42.696C100.619 42.2373 100.539 41.7307 100.517 41.176C100.507 40.888 100.507 40.6 100.517 40.312C100.539 39.7787 100.619 39.2827 100.757 38.824C100.896 38.3653 101.104 37.9653 101.381 37.624C101.669 37.272 102.021 37 102.437 36.808C102.853 36.616 103.349 36.52 103.925 36.52C104.533 36.52 105.045 36.6373 105.461 36.872C105.877 37.096 106.219 37.3787 106.485 37.72V37.08C106.485 36.9627 106.523 36.8667 106.597 36.792C106.672 36.7173 106.763 36.68 106.869 36.68H108.165C108.272 36.68 108.363 36.7173 108.437 36.792C108.512 36.8667 108.549 36.9627 108.549 37.08L108.565 44.792C108.565 45.56 108.421 46.2213 108.133 46.776C107.845 47.3307 107.408 47.7573 106.821 48.056C106.245 48.3653 105.504 48.52 104.597 48.52ZM104.517 43.256C104.955 43.256 105.307 43.16 105.573 42.968C105.84 42.776 106.037 42.5253 106.165 42.216C106.293 41.9067 106.368 41.592 106.389 41.272C106.4 41.1333 106.405 40.9573 106.405 40.744C106.405 40.5307 106.4 40.36 106.389 40.232C106.368 39.9013 106.293 39.5867 106.165 39.288C106.037 38.9787 105.84 38.728 105.573 38.536C105.307 38.3333 104.955 38.232 104.517 38.232C104.08 38.232 103.728 38.3333 103.461 38.536C103.195 38.728 103.003 38.984 102.885 39.304C102.779 39.624 102.715 39.976 102.693 40.36C102.672 40.616 102.672 40.8773 102.693 41.144C102.715 41.5173 102.779 41.8693 102.885 42.2C103.003 42.52 103.195 42.776 103.461 42.968C103.728 43.16 104.08 43.256 104.517 43.256ZM111.081 45C110.974 45 110.883 44.9627 110.809 44.888C110.734 44.8133 110.697 44.7227 110.697 44.616V37.064C110.697 36.9573 110.734 36.8667 110.809 36.792C110.883 36.7173 110.974 36.68 111.081 36.68H112.329C112.435 36.68 112.526 36.7173 112.601 36.792C112.675 36.8667 112.713 36.9573 112.713 37.064V37.608C112.937 37.3093 113.235 37.0587 113.609 36.856C113.993 36.6427 114.446 36.5307 114.969 36.52C116.185 36.4987 117.033 36.9733 117.513 37.944C117.758 37.5173 118.11 37.176 118.569 36.92C119.038 36.6533 119.555 36.52 120.121 36.52C120.675 36.52 121.177 36.648 121.625 36.904C122.083 37.16 122.441 37.5493 122.697 38.072C122.963 38.584 123.097 39.2347 123.097 40.024V44.616C123.097 44.7227 123.059 44.8133 122.985 44.888C122.91 44.9627 122.819 45 122.713 45H121.401C121.294 45 121.203 44.9627 121.129 44.888C121.054 44.8133 121.017 44.7227 121.017 44.616V40.152C121.017 39.672 120.947 39.2933 120.809 39.016C120.67 38.728 120.483 38.5253 120.249 38.408C120.014 38.2907 119.753 38.232 119.465 38.232C119.23 38.232 118.995 38.2907 118.761 38.408C118.526 38.5253 118.334 38.728 118.185 39.016C118.035 39.2933 117.961 39.672 117.961 40.152V44.616C117.961 44.7227 117.923 44.8133 117.849 44.888C117.774 44.9627 117.683 45 117.577 45H116.265C116.147 45 116.051 44.9627 115.977 44.888C115.913 44.8133 115.881 44.7227 115.881 44.616V40.152C115.881 39.672 115.806 39.2933 115.657 39.016C115.507 38.728 115.315 38.5253 115.081 38.408C114.846 38.2907 114.595 38.232 114.329 38.232C114.083 38.232 113.843 38.296 113.609 38.424C113.374 38.5413 113.182 38.7387 113.033 39.016C112.883 39.2933 112.809 39.672 112.809 40.152V44.616C112.809 44.7227 112.771 44.8133 112.697 44.888C112.622 44.9627 112.531 45 112.425 45H111.081ZM127.55 45.16C126.995 45.16 126.494 45.0533 126.046 44.84C125.598 44.616 125.241 44.3227 124.974 43.96C124.718 43.5867 124.59 43.1707 124.59 42.712C124.59 41.9653 124.889 41.3733 125.486 40.936C126.094 40.488 126.894 40.1893 127.886 40.04L130.078 39.72V39.384C130.078 38.936 129.966 38.5893 129.742 38.344C129.518 38.0987 129.134 37.976 128.59 37.976C128.206 37.976 127.891 38.056 127.646 38.216C127.411 38.3653 127.235 38.568 127.118 38.824C127.033 38.9627 126.91 39.032 126.75 39.032H125.486C125.369 39.032 125.278 39 125.214 38.936C125.161 38.872 125.134 38.7867 125.134 38.68C125.145 38.5093 125.214 38.3013 125.342 38.056C125.47 37.8107 125.673 37.576 125.95 37.352C126.227 37.1173 126.585 36.92 127.022 36.76C127.459 36.6 127.987 36.52 128.606 36.52C129.278 36.52 129.843 36.6053 130.302 36.776C130.771 36.936 131.145 37.1547 131.422 37.432C131.699 37.7093 131.902 38.0347 132.03 38.408C132.158 38.7813 132.222 39.176 132.222 39.592V44.616C132.222 44.7227 132.185 44.8133 132.11 44.888C132.035 44.9627 131.945 45 131.838 45H130.542C130.425 45 130.329 44.9627 130.254 44.888C130.19 44.8133 130.158 44.7227 130.158 44.616V43.992C130.019 44.1947 129.833 44.3867 129.598 44.568C129.363 44.7387 129.075 44.8827 128.734 45C128.403 45.1067 128.009 45.16 127.55 45.16ZM128.094 43.64C128.467 43.64 128.803 43.56 129.102 43.4C129.411 43.24 129.651 42.9947 129.822 42.664C130.003 42.3227 130.094 41.896 130.094 41.384V41.048L128.494 41.304C127.865 41.4 127.395 41.5547 127.086 41.768C126.777 41.9813 126.622 42.2427 126.622 42.552C126.622 42.7867 126.691 42.9893 126.83 43.16C126.979 43.32 127.166 43.4427 127.39 43.528C127.614 43.6027 127.849 43.64 128.094 43.64ZM134.659 45C134.552 45 134.461 44.9627 134.387 44.888C134.312 44.8133 134.275 44.7227 134.275 44.616V37.064C134.275 36.9573 134.312 36.8667 134.387 36.792C134.461 36.7173 134.552 36.68 134.659 36.68H135.987C136.104 36.68 136.195 36.7173 136.259 36.792C136.333 36.8667 136.371 36.9573 136.371 37.064V44.616C136.371 44.7227 136.333 44.8133 136.259 44.888C136.195 44.9627 136.104 45 135.987 45H134.659ZM134.595 35.304C134.477 35.304 134.381 35.272 134.307 35.208C134.243 35.1333 134.211 35.0373 134.211 34.92V33.768C134.211 33.6613 134.243 33.5707 134.307 33.496C134.381 33.4213 134.477 33.384 134.595 33.384H136.051C136.168 33.384 136.264 33.4213 136.339 33.496C136.413 33.5707 136.451 33.6613 136.451 33.768V34.92C136.451 35.0373 136.413 35.1333 136.339 35.208C136.264 35.272 136.168 35.304 136.051 35.304H134.595ZM138.894 45C138.787 45 138.696 44.9627 138.622 44.888C138.547 44.8133 138.51 44.7227 138.51 44.616V34.024C138.51 33.9173 138.547 33.8267 138.622 33.752C138.696 33.6773 138.787 33.64 138.894 33.64H140.222C140.328 33.64 140.419 33.6773 140.494 33.752C140.568 33.8267 140.606 33.9173 140.606 34.024V44.616C140.606 44.7227 140.568 44.8133 140.494 44.888C140.419 44.9627 140.328 45 140.222 45H138.894ZM143.016 45C142.909 45 142.819 44.9627 142.744 44.888C142.669 44.8133 142.632 44.7227 142.632 44.616V43.032C142.632 42.9147 142.669 42.8187 142.744 42.744C142.819 42.6693 142.909 42.632 143.016 42.632H144.616C144.723 42.632 144.813 42.6693 144.888 42.744C144.963 42.8187 145 42.9147 145 43.032V44.616C145 44.7227 144.963 44.8133 144.888 44.888C144.813 44.9627 144.723 45 144.616 45H143.016ZM150.5 45.16C149.732 45.16 149.054 45.016 148.468 44.728C147.892 44.44 147.438 44.024 147.108 43.48C146.788 42.9253 146.612 42.2587 146.58 41.48C146.569 41.32 146.564 41.112 146.564 40.856C146.564 40.5893 146.569 40.3707 146.58 40.2C146.612 39.4213 146.788 38.76 147.108 38.216C147.438 37.6613 147.892 37.24 148.468 36.952C149.054 36.664 149.732 36.52 150.5 36.52C151.182 36.52 151.764 36.616 152.244 36.808C152.724 37 153.118 37.24 153.428 37.528C153.737 37.816 153.966 38.12 154.116 38.44C154.276 38.7493 154.361 39.032 154.372 39.288C154.382 39.4053 154.345 39.5013 154.26 39.576C154.185 39.64 154.094 39.672 153.988 39.672H152.58C152.473 39.672 152.388 39.6453 152.324 39.592C152.27 39.5387 152.217 39.4587 152.164 39.352C152.004 38.9253 151.79 38.6267 151.524 38.456C151.268 38.2747 150.937 38.184 150.532 38.184C149.998 38.184 149.572 38.3547 149.252 38.696C148.942 39.0267 148.777 39.5547 148.756 40.28C148.734 40.6853 148.734 41.0587 148.756 41.4C148.777 42.136 148.942 42.6693 149.252 43C149.572 43.3307 149.998 43.496 150.532 43.496C150.948 43.496 151.284 43.4107 151.54 43.24C151.796 43.0587 152.004 42.7547 152.164 42.328C152.217 42.2213 152.27 42.1413 152.324 42.088C152.388 42.0347 152.473 42.008 152.58 42.008H153.988C154.094 42.008 154.185 42.0453 154.26 42.12C154.345 42.184 154.382 42.2747 154.372 42.392C154.361 42.584 154.308 42.8027 154.212 43.048C154.126 43.2827 153.982 43.528 153.78 43.784C153.588 44.0293 153.342 44.2587 153.044 44.472C152.745 44.6747 152.382 44.84 151.956 44.968C151.54 45.096 151.054 45.16 150.5 45.16ZM159.72 45.16C158.867 45.16 158.147 45.0107 157.56 44.712C156.984 44.4133 156.542 43.992 156.232 43.448C155.934 42.904 155.763 42.2693 155.72 41.544C155.71 41.352 155.704 41.1173 155.704 40.84C155.704 40.5627 155.71 40.328 155.72 40.136C155.763 39.4 155.939 38.7653 156.248 38.232C156.568 37.688 157.016 37.2667 157.592 36.968C158.179 36.6693 158.888 36.52 159.72 36.52C160.552 36.52 161.256 36.6693 161.832 36.968C162.419 37.2667 162.867 37.688 163.176 38.232C163.496 38.7653 163.678 39.4 163.72 40.136C163.731 40.328 163.736 40.5627 163.736 40.84C163.736 41.1173 163.731 41.352 163.72 41.544C163.678 42.2693 163.502 42.904 163.192 43.448C162.894 43.992 162.451 44.4133 161.864 44.712C161.288 45.0107 160.574 45.16 159.72 45.16ZM159.72 43.576C160.286 43.576 160.723 43.4 161.032 43.048C161.342 42.6853 161.512 42.1573 161.544 41.464C161.555 41.304 161.56 41.096 161.56 40.84C161.56 40.584 161.555 40.376 161.544 40.216C161.512 39.5333 161.342 39.0107 161.032 38.648C160.723 38.2853 160.286 38.104 159.72 38.104C159.155 38.104 158.718 38.2853 158.408 38.648C158.099 39.0107 157.928 39.5333 157.896 40.216C157.886 40.376 157.88 40.584 157.88 40.84C157.88 41.096 157.886 41.304 157.896 41.464C157.928 42.1573 158.099 42.6853 158.408 43.048C158.718 43.4 159.155 43.576 159.72 43.576ZM165.893 45C165.786 45 165.696 44.9627 165.621 44.888C165.546 44.8133 165.509 44.7227 165.509 44.616V37.064C165.509 36.9573 165.546 36.8667 165.621 36.792C165.696 36.7173 165.786 36.68 165.893 36.68H167.141C167.248 36.68 167.338 36.7173 167.413 36.792C167.488 36.8667 167.525 36.9573 167.525 37.064V37.608C167.749 37.3093 168.048 37.0587 168.421 36.856C168.805 36.6427 169.258 36.5307 169.781 36.52C170.997 36.4987 171.845 36.9733 172.325 37.944C172.57 37.5173 172.922 37.176 173.381 36.92C173.85 36.6533 174.368 36.52 174.933 36.52C175.488 36.52 175.989 36.648 176.437 36.904C176.896 37.16 177.253 37.5493 177.509 38.072C177.776 38.584 177.909 39.2347 177.909 40.024V44.616C177.909 44.7227 177.872 44.8133 177.797 44.888C177.722 44.9627 177.632 45 177.525 45H176.213C176.106 45 176.016 44.9627 175.941 44.888C175.866 44.8133 175.829 44.7227 175.829 44.616V40.152C175.829 39.672 175.76 39.2933 175.621 39.016C175.482 38.728 175.296 38.5253 175.061 38.408C174.826 38.2907 174.565 38.232 174.277 38.232C174.042 38.232 173.808 38.2907 173.573 38.408C173.338 38.5253 173.146 38.728 172.997 39.016C172.848 39.2933 172.773 39.672 172.773 40.152V44.616C172.773 44.7227 172.736 44.8133 172.661 44.888C172.586 44.9627 172.496 45 172.389 45H171.077C170.96 45 170.864 44.9627 170.789 44.888C170.725 44.8133 170.693 44.7227 170.693 44.616V40.152C170.693 39.672 170.618 39.2933 170.469 39.016C170.32 38.728 170.128 38.5253 169.893 38.408C169.658 38.2907 169.408 38.232 169.141 38.232C168.896 38.232 168.656 38.296 168.421 38.424C168.186 38.5413 167.994 38.7387 167.845 39.016C167.696 39.2933 167.621 39.672 167.621 40.152V44.616C167.621 44.7227 167.584 44.8133 167.509 44.888C167.434 44.9627 167.344 45 167.237 45H165.893Z" fill="white"/>
</svg>
