<svg width="180" height="60" viewBox="0 0 180 60" fill="none" xmlns="http://www.w3.org/2000/svg">
<g clip-path="url(#clip0_4421_1417)">
<path d="M55.8217 51.7881H10.9028V54.3436H55.8217V51.7881Z" fill="white"/>
<path d="M60.9823 55.8193H5.74463V58.3749H60.9823V55.8193Z" fill="white"/>
<path d="M48.7498 50.3386V29.5517V26.9961V12.7694V11.5048V10.2139H34.5747V10.7672V12.7694V26.9961V29.5517V50.3386H37.1544V29.5517H46.17V50.3386H48.7498ZM37.1278 26.9961V12.7694H46.1434V26.9961H37.1278Z" fill="white"/>
<path d="M52.7924 50.3391V8.73913V6.18359H50.2127H33.0856H30.5059V8.73913V50.3391H33.0856V8.73913H50.2127V50.3391H52.7924Z" fill="white"/>
<path d="M13.937 47.7836V50.3391H26.4632H29.0429V6.18359H26.4632H13.937V8.73913H26.4632V26.9968H13.937V29.5524H26.4632V47.7836H13.937Z" fill="white"/>
<path d="M66.2481 5.9725C65.7694 4.86598 64.9715 3.91753 63.9875 3.23254C63.1099 2.65294 62.0726 2.25775 60.9556 2.17871H5.71792V2.20505C5.05304 2.25775 4.41477 2.41582 3.82967 2.67928C2.68609 3.1535 1.72868 3.91753 1.0638 4.91867C0.398925 5.91982 0 7.10537 0 8.39632C0 9.23937 0.186165 10.0824 0.505304 10.8202C0.984012 11.9267 1.78186 12.8751 2.76588 13.5337C3.77649 14.1924 4.97326 14.5875 6.27642 14.5875C7.12745 14.5875 7.97849 14.4032 8.72315 14.1134C9.84012 13.6391 10.7975 12.8488 11.4624 11.874C12.1273 10.8729 12.5262 9.68728 12.5262 8.39632C12.5262 7.63228 12.3932 6.89461 12.1273 6.20962H9.20186C9.22847 6.26231 9.28168 6.315 9.3082 6.36769C9.70718 6.94729 9.94654 7.63228 9.94654 8.39632C9.94654 8.89685 9.84012 9.37111 9.65397 9.81902C9.38801 10.4776 8.9093 11.0309 8.32423 11.4261C7.73913 11.8213 7.02107 12.0584 6.27642 12.0584C5.77111 12.0584 5.2924 11.953 4.84029 11.7686C4.17541 11.5051 3.61691 11.0309 3.21799 10.4513C2.81906 9.87172 2.57971 9.16033 2.57971 8.42266C2.57971 7.92209 2.68609 7.44787 2.87226 6.99999C3.1648 6.34135 3.61691 5.78809 4.20201 5.39289C4.7871 4.99771 5.50516 4.7606 6.24982 4.7606H11.3029H55.4239H60.3972C60.4237 4.7606 60.4503 4.7606 60.4769 4.7606C60.9823 4.7606 61.461 4.86598 61.9131 5.0504C62.5779 5.34021 63.1365 5.78809 63.5354 6.36769C63.9343 6.94729 64.1737 7.65863 64.1737 8.39632C64.1737 8.89685 64.0673 9.37111 63.8811 9.81902C63.5886 10.4776 63.1365 11.0309 62.5513 11.4261C61.9663 11.8213 61.2482 12.0584 60.5035 12.0584C59.9982 12.0584 59.5195 11.953 59.0674 11.7686C58.4025 11.5051 57.844 11.0309 57.4451 10.4513C57.0462 9.87172 56.8069 9.16033 56.8069 8.42266C56.8069 7.92209 56.9132 7.44787 57.0994 6.99999C57.2058 6.73653 57.3653 6.47308 57.5515 6.23596H54.6527C54.3867 6.92095 54.2538 7.65863 54.2538 8.42266C54.2538 9.26572 54.4399 10.1088 54.759 10.8465C55.2377 11.953 56.0356 12.9015 57.0196 13.5601C58.0303 14.2188 59.227 14.6139 60.5301 14.6139C61.3811 14.6139 62.2322 14.4295 62.9769 14.1397C64.0939 13.6655 65.0513 12.8751 65.7428 11.9003C66.4076 10.8992 66.8065 9.71363 66.8065 8.42266C66.7534 7.5269 66.5672 6.71019 66.2481 5.9725Z" fill="white"/>
<path d="M79.4033 54.709C79.7398 54.709 80.0434 54.7877 80.3139 54.9452C80.5864 55.1005 80.7991 55.3163 80.9519 55.5924C81.1067 55.8685 81.1842 56.1772 81.1842 56.5187C81.1842 57.034 81.0169 57.4614 80.6825 57.8008C80.3479 58.1403 79.9257 58.31 79.4156 58.31C79.0667 58.31 78.7508 58.2323 78.4679 58.0769C78.185 57.9215 77.9631 57.7068 77.802 57.4327C77.643 57.1587 77.5635 56.852 77.5635 56.5125C77.5635 55.9911 77.737 55.5606 78.0838 55.2212C78.4307 54.8797 78.8705 54.709 79.4033 54.709ZM79.3661 55.1353C78.9862 55.1353 78.6703 55.2672 78.4183 55.531C78.1664 55.7927 78.0405 56.122 78.0405 56.5187C78.0405 56.9113 78.1695 57.2365 78.4277 57.4941C78.6857 57.7518 79.0109 57.8806 79.4033 57.8806C79.7853 57.8806 80.0981 57.7539 80.3417 57.5003C80.5875 57.2446 80.7103 56.9195 80.7103 56.5248C80.7103 56.1199 80.5844 55.7877 80.3325 55.5279C80.0806 55.2662 79.7584 55.1353 79.3661 55.1353Z" fill="white"/>
<path d="M84.7773 54.791C84.7773 54.791 84.7773 55.7961 84.7773 57.8062C84.7773 57.8062 84.9652 57.8062 85.341 57.8062C85.341 57.8062 85.341 58.2101 85.341 59.0178C85.341 59.0178 85.2337 59.0178 85.019 59.0178C85.019 59.0178 84.9622 58.7541 84.8486 58.2265C84.8486 58.2265 83.8503 58.2265 81.8535 58.2265C81.8535 58.2265 81.8535 57.0813 81.8535 54.791C81.8535 54.791 82.0105 54.791 82.3243 54.791C82.3243 54.791 82.3243 55.7961 82.3243 57.8062C82.3243 57.8062 82.9861 57.8062 84.3097 57.8062C84.3097 57.8062 84.3097 56.8012 84.3097 54.791C84.3097 54.791 84.4655 54.791 84.7773 54.791Z" fill="white"/>
<path d="M89.1696 56.6629C89.1696 56.6629 88.1238 56.6629 86.0318 56.6629C86.0504 57.0023 86.1908 57.2906 86.453 57.5279C86.7152 57.763 87.025 57.8806 87.3822 57.8806C87.6465 57.8806 87.8902 57.809 88.1133 57.6659C88.3363 57.5207 88.4961 57.3306 88.5936 57.0953H89.0826C88.9544 57.4573 88.7358 57.7507 88.4258 57.9757C88.1159 58.1985 87.7725 58.31 87.3946 58.31C87.1427 58.31 86.9031 58.263 86.6761 58.1689C86.4489 58.0749 86.2538 57.9471 86.0907 57.7855C85.9275 57.6239 85.7985 57.4307 85.7035 57.2058C85.6085 56.9808 85.561 56.7436 85.561 56.4942C85.561 56.167 85.6405 55.8664 85.7995 55.5924C85.9585 55.3184 86.1753 55.1026 86.45 54.9452C86.7245 54.7877 87.027 54.709 87.3574 54.709C87.7002 54.709 88.0149 54.7928 88.302 54.9605C88.5909 55.1282 88.8113 55.3562 88.9615 55.6445C89.0378 55.7897 89.0923 55.939 89.123 56.0924C89.1537 56.2437 89.1696 56.4339 89.1696 56.6629ZM86.0442 56.2426H88.7016C88.6234 55.9012 88.4636 55.6312 88.2213 55.4329C87.9824 55.2345 87.694 55.1353 87.3574 55.1353C87.0291 55.1353 86.7442 55.2376 86.5026 55.442C86.261 55.6445 86.1082 55.9113 86.0442 56.2426Z" fill="white"/>
<path d="M92.8394 58.2265C92.8394 58.2265 92.6823 58.2265 92.3688 58.2265C92.3688 58.2265 92.3688 57.7132 92.3688 56.6867C92.3688 56.6867 91.676 56.6867 90.2905 56.6867C90.2905 56.6867 90.2905 57.1999 90.2905 58.2265C90.2905 58.2265 90.1333 58.2265 89.8198 58.2265C89.8198 58.2265 89.8198 57.0813 89.8198 54.791C89.8198 54.791 89.9761 54.791 90.2905 54.791C90.2905 54.791 90.2905 55.2828 90.2905 56.2664C90.2905 56.2664 90.9832 56.2664 92.3688 56.2664C92.3688 56.2664 92.3688 55.7747 92.3688 54.791C92.3688 54.791 92.5251 54.791 92.8394 54.791C92.8394 54.791 92.8394 55.9361 92.8394 58.2265Z" fill="white"/>
<path d="M95.342 54.709C95.6782 54.709 95.9821 54.7877 96.2525 54.9452C96.5247 55.1005 96.7381 55.3163 96.8908 55.5924C97.0454 55.8685 97.1226 56.1772 97.1226 56.5187C97.1226 57.034 96.9558 57.4614 96.6213 57.8008C96.2867 58.1403 95.8644 58.31 95.3542 58.31C95.0057 58.31 94.6896 58.2323 94.4068 58.0769C94.1232 57.9215 93.902 57.7068 93.7404 57.4327C93.5815 57.1587 93.5024 56.852 93.5024 56.5125C93.5024 55.9911 93.6754 55.5606 94.0222 55.2212C94.3691 54.8797 94.809 54.709 95.342 54.709ZM95.3051 55.1353C94.9249 55.1353 94.6088 55.2672 94.3568 55.531C94.1048 55.7927 93.9792 56.122 93.9792 56.5187C93.9792 56.9113 94.1083 57.2365 94.3664 57.4941C94.6246 57.7518 94.9495 57.8806 95.342 57.8806C95.7239 57.8806 96.0365 57.7539 96.2806 57.5003C96.5264 57.2446 96.6494 56.9195 96.6494 56.5248C96.6494 56.1199 96.5229 55.7877 96.2709 55.5279C96.0189 55.2662 95.6967 55.1353 95.3051 55.1353Z" fill="white"/>
<path d="M100.31 54.791C100.31 54.791 100.31 55.9361 100.31 58.2265C100.31 58.2265 100.154 58.2265 99.8421 58.2265C99.8421 58.2265 99.8421 57.7704 99.8421 56.8584C99.4918 56.8993 99.1265 56.9198 98.7489 56.9198C98.6357 56.9198 98.5145 56.9024 98.3863 56.8676C98.259 56.8308 98.1554 56.7838 98.0772 56.7265C97.8103 56.5445 97.6777 56.247 97.6777 55.8339V54.791C97.6777 54.791 97.834 54.791 98.1484 54.791C98.1484 54.791 98.1484 55.1387 98.1484 55.8339C98.1484 55.9709 98.1615 56.0803 98.1888 56.1621C98.2177 56.244 98.2704 56.3115 98.3468 56.3646C98.4232 56.4157 98.5207 56.4514 98.641 56.472C98.7621 56.4903 98.9237 56.4995 99.1239 56.4995C99.3074 56.4995 99.5471 56.4801 99.8421 56.4413V54.791H100.31Z" fill="white"/>
<path d="M104.132 58.2265C104.132 58.2265 103.975 58.2265 103.662 58.2265C103.662 58.2265 103.662 57.7132 103.662 56.6867C103.662 56.6867 102.969 56.6867 101.583 56.6867C101.583 56.6867 101.583 57.1999 101.583 58.2265C101.583 58.2265 101.426 58.2265 101.113 58.2265C101.113 58.2265 101.113 57.0813 101.113 54.791C101.113 54.791 101.269 54.791 101.583 54.791C101.583 54.791 101.583 55.2828 101.583 56.2664C101.583 56.2664 102.276 56.2664 103.662 56.2664C103.662 56.2664 103.662 55.7747 103.662 54.791C103.662 54.791 103.818 54.791 104.132 54.791C104.132 54.791 104.132 55.9361 104.132 58.2265Z" fill="white"/>
<path d="M106.634 54.709C106.971 54.709 107.275 54.7877 107.545 54.9452C107.817 55.1005 108.031 55.3163 108.183 55.5924C108.338 55.8685 108.415 56.1772 108.415 56.5187C108.415 57.034 108.248 57.4614 107.914 57.8008C107.579 58.1403 107.157 58.31 106.647 58.31C106.298 58.31 105.982 58.2323 105.699 58.0769C105.417 57.9215 105.194 57.7068 105.033 57.4327C104.874 57.1587 104.795 56.852 104.795 56.5125C104.795 55.9911 104.968 55.5606 105.315 55.2212C105.662 54.8797 106.101 54.709 106.634 54.709ZM106.598 55.1353C106.217 55.1353 105.901 55.2672 105.649 55.531C105.397 55.7927 105.272 56.122 105.272 56.5187C105.272 56.9113 105.401 57.2365 105.659 57.4941C105.917 57.7518 106.242 57.8806 106.634 57.8806C107.016 57.8806 107.329 57.7539 107.573 57.5003C107.819 57.2446 107.942 56.9195 107.942 56.5248C107.942 56.1199 107.815 55.7877 107.563 55.5279C107.311 55.2662 106.989 55.1353 106.598 55.1353Z" fill="white"/>
<path d="M108.88 56.3682C108.88 56.3682 109.453 56.3682 110.599 56.3682C110.599 56.3682 110.599 56.5001 110.599 56.7639C110.599 56.7639 110.027 56.7639 108.88 56.7639C108.88 56.7639 108.88 56.632 108.88 56.3682Z" fill="white"/>
<path d="M111.578 57.2549C111.708 57.4492 111.873 57.6025 112.073 57.715C112.276 57.8254 112.497 57.8806 112.74 57.8806C113.095 57.8806 113.402 57.7681 113.663 57.5432C113.923 57.3183 114.075 57.0371 114.121 56.6997H112.055V56.2794C112.055 56.2794 112.742 56.2794 114.115 56.2794C114.061 55.9482 113.907 55.6752 113.653 55.4605C113.399 55.2437 113.101 55.1353 112.758 55.1353C112.246 55.1353 111.853 55.3552 111.578 55.7948H111.039C111.19 55.4553 111.415 55.1895 111.714 54.9973C112.015 54.8051 112.361 54.709 112.752 54.709C113.093 54.709 113.405 54.7887 113.691 54.9482C113.975 55.1057 114.199 55.3214 114.362 55.5954C114.528 55.8694 114.61 56.1711 114.61 56.5003C114.61 56.8357 114.528 57.1424 114.362 57.4205C114.197 57.6966 113.97 57.9144 113.681 58.0739C113.392 58.2313 113.072 58.31 112.721 58.31C112.337 58.31 112.002 58.2159 111.718 58.0279C111.434 57.8397 111.209 57.582 111.039 57.2549H111.578Z" fill="white"/>
<path d="M115.273 54.791C115.273 54.791 115.43 54.791 115.744 54.791C115.744 54.791 115.744 55.3013 115.744 56.3216C115.744 56.3216 116.272 55.8115 117.329 54.791C117.329 54.791 117.532 54.791 117.937 54.791C117.937 54.791 117.359 55.3452 116.205 56.4535C116.205 56.4535 116.782 57.0445 117.937 58.2265C117.937 58.2265 117.732 58.2265 117.323 58.2265C117.323 58.2265 116.797 57.6866 115.744 56.6069C115.744 56.6069 115.744 57.1468 115.744 58.2265C115.744 58.2265 115.586 58.2265 115.273 58.2265C115.273 58.2265 115.273 57.0813 115.273 54.791Z" fill="white"/>
<path d="M121.176 57.215C121.176 57.215 121.354 57.215 121.709 57.215C121.61 57.4011 121.519 57.5472 121.437 57.6536C121.354 57.7579 121.255 57.853 121.139 57.9389C120.821 58.1863 120.445 58.31 120.009 58.31C119.658 58.31 119.337 58.2313 119.049 58.0739C118.76 57.9144 118.532 57.6966 118.367 57.4205C118.202 57.1424 118.12 56.8357 118.12 56.5003C118.12 56.1711 118.201 55.8694 118.364 55.5954C118.53 55.3214 118.754 55.1057 119.039 54.9482C119.324 54.7887 119.637 54.709 119.978 54.709C120.37 54.709 120.72 54.8102 121.028 55.0126C121.338 55.2151 121.562 55.4891 121.703 55.8346H121.176C121.043 55.6098 120.871 55.437 120.665 55.3163C120.459 55.1957 120.228 55.1353 119.971 55.1353C119.585 55.1353 119.259 55.2682 118.993 55.5341C118.729 55.7999 118.596 56.1261 118.596 56.5125C118.596 56.895 118.731 57.2191 118.999 57.4849C119.27 57.7487 119.6 57.8806 119.99 57.8806C120.238 57.8806 120.452 57.8295 120.632 57.7272C120.813 57.625 120.994 57.4542 121.176 57.215Z" fill="white"/>
<path d="M125.348 58.2265C125.348 58.2265 125.191 58.2265 124.878 58.2265C124.878 58.2265 124.878 57.2214 124.878 55.2113C124.878 55.2113 124.194 55.2113 122.83 55.2113C122.83 55.2113 122.83 56.2163 122.83 58.2265C122.83 58.2265 122.673 58.2265 122.359 58.2265C122.359 58.2265 122.359 57.0813 122.359 54.791C122.359 54.791 123.356 54.791 125.348 54.791C125.348 54.791 125.348 55.9361 125.348 58.2265Z" fill="white"/>
<path d="M129.619 56.6629C129.619 56.6629 128.573 56.6629 126.482 56.6629C126.5 57.0023 126.641 57.2906 126.903 57.5279C127.165 57.763 127.475 57.8806 127.832 57.8806C128.097 57.8806 128.34 57.809 128.563 57.6659C128.786 57.5207 128.947 57.3306 129.043 57.0953H129.532C129.405 57.4573 129.185 57.7507 128.876 57.9757C128.566 58.1985 128.222 58.31 127.845 58.31C127.593 58.31 127.353 58.263 127.126 58.1689C126.899 58.0749 126.704 57.9471 126.541 57.7855C126.377 57.6239 126.248 57.4307 126.153 57.2058C126.059 56.9808 126.011 56.7436 126.011 56.4942C126.011 56.167 126.09 55.8664 126.249 55.5924C126.408 55.3184 126.625 55.1026 126.9 54.9452C127.175 54.7877 127.477 54.709 127.808 54.709C128.15 54.709 128.465 54.7928 128.752 54.9605C129.041 55.1282 129.261 55.3562 129.412 55.6445C129.488 55.7897 129.542 55.939 129.573 56.0924C129.604 56.2437 129.619 56.4339 129.619 56.6629ZM126.494 56.2426H129.152C129.073 55.9012 128.913 55.6312 128.672 55.4329C128.432 55.2345 128.144 55.1353 127.808 55.1353C127.479 55.1353 127.194 55.2376 126.953 55.442C126.711 55.6445 126.558 55.9113 126.494 56.2426Z" fill="white"/>
<path d="M130.27 54.7918C130.27 54.7918 130.427 54.7918 130.741 54.7918C130.741 54.7918 130.741 54.9881 130.741 55.3807C130.886 55.1619 131.073 54.9952 131.304 54.8807C131.538 54.7662 131.804 54.709 132.103 54.709C132.444 54.709 132.754 54.7877 133.032 54.9452C133.312 55.1026 133.53 55.3193 133.689 55.5954C133.851 55.8694 133.931 56.1752 133.931 56.5125C133.931 56.8459 133.851 57.1505 133.689 57.4266C133.528 57.7006 133.306 57.9164 133.024 58.0739C132.743 58.2313 132.432 58.31 132.091 58.31C131.804 58.31 131.545 58.2528 131.314 58.1383C131.085 58.0217 130.893 57.854 130.741 57.6352V59.4326H130.27V54.7918ZM132.066 55.1353C131.685 55.1353 131.362 55.2682 131.1 55.5341C130.838 55.7999 130.706 56.1261 130.706 56.5125C130.706 56.8991 130.839 57.2242 131.103 57.4879C131.368 57.7498 131.695 57.8806 132.085 57.8806C132.475 57.8806 132.801 57.7518 133.06 57.4941C133.323 57.2344 133.454 56.9113 133.454 56.5248C133.454 56.1199 133.323 55.7877 133.06 55.5279C132.801 55.2662 132.469 55.1353 132.066 55.1353Z" fill="white"/>
<path d="M136.412 55.2113C136.412 55.2113 136.112 55.2113 135.51 55.2113C135.51 55.2113 135.51 56.2163 135.51 58.2265C135.51 58.2265 135.354 58.2265 135.039 58.2265C135.039 58.2265 135.039 57.2214 135.039 55.2113C135.039 55.2113 134.737 55.2113 134.129 55.2113C134.129 55.2113 134.129 55.0712 134.129 54.791C134.129 54.791 134.89 54.791 136.412 54.791C136.412 54.791 136.412 54.9311 136.412 55.2113Z" fill="white"/>
<path d="M139.906 58.2265C139.906 58.2265 139.749 58.2265 139.435 58.2265C139.435 58.2265 139.435 57.7132 139.435 56.6867C139.435 56.6867 138.742 56.6867 137.357 56.6867C137.357 56.6867 137.357 57.1999 137.357 58.2265C137.357 58.2265 137.2 58.2265 136.886 58.2265C136.886 58.2265 136.886 57.0813 136.886 54.791C136.886 54.791 137.043 54.791 137.357 54.791C137.357 54.791 137.357 55.2828 137.357 56.2664C137.357 56.2664 138.05 56.2664 139.435 56.2664C139.435 56.2664 139.435 55.7747 139.435 54.791C139.435 54.791 139.592 54.791 139.906 54.791C139.906 54.791 139.906 55.9361 139.906 58.2265Z" fill="white"/>
<path d="M144.235 54.7918C144.235 54.7918 144.235 55.9369 144.235 58.2272C144.235 58.2272 144.078 58.2272 143.764 58.2272C143.764 58.2272 143.764 58.0258 143.764 57.6229C143.581 57.8683 143.385 58.0442 143.179 58.1506C142.975 58.2569 142.726 58.31 142.432 58.31C142.079 58.31 141.761 58.2333 141.475 58.0799C141.193 57.9246 140.971 57.7109 140.81 57.4389C140.648 57.1649 140.568 56.8581 140.568 56.5187C140.568 56.1792 140.647 55.8715 140.806 55.5954C140.965 55.3193 141.185 55.1026 141.463 54.9452C141.742 54.7877 142.053 54.709 142.396 54.709C142.699 54.709 142.959 54.7642 143.176 54.8746C143.395 54.983 143.591 55.1579 143.764 55.3992V54.7918H144.235ZM142.389 55.1353C142.018 55.1353 141.701 55.2682 141.439 55.5341C141.176 55.7999 141.045 56.122 141.045 56.5003C141.045 56.8868 141.179 57.2139 141.447 57.4819C141.716 57.7477 142.043 57.8806 142.426 57.8806C142.804 57.8806 143.121 57.7487 143.377 57.4849C143.635 57.2191 143.764 56.8909 143.764 56.5003C143.764 56.1097 143.634 55.7845 143.371 55.5249C143.109 55.2652 142.782 55.1353 142.389 55.1353Z" fill="white"/>
<path d="M146.967 56.4168C146.967 56.4168 146.967 56.0149 146.967 55.2113C146.967 55.2113 146.699 55.2113 146.162 55.2113C145.602 55.2113 145.322 55.4127 145.322 55.8155C145.322 56.2163 145.602 56.4168 146.162 56.4168C146.162 56.4168 146.43 56.4168 146.967 56.4168ZM146.2 56.8369C146.2 56.8369 145.873 57.3001 145.22 58.2265C145.22 58.2265 145.043 58.2265 144.688 58.2265C144.688 58.2265 145.022 57.751 145.691 56.8001C145.429 56.7408 145.222 56.6233 145.072 56.4474C144.923 56.2695 144.849 56.0588 144.849 55.8155C144.849 55.519 144.957 55.2747 145.174 55.0824C145.393 54.8881 145.681 54.791 146.041 54.791H147.435V58.2265C147.435 58.2265 147.279 58.2265 146.967 58.2265C146.967 58.2265 146.967 57.7633 146.967 56.8369C146.967 56.8369 146.711 56.8369 146.2 56.8369Z" fill="white"/>
<path d="M149.994 54.791C149.994 54.791 150.15 54.791 150.464 54.791C150.464 54.791 150.464 55.3013 150.464 56.3216C150.464 56.3216 150.993 55.8115 152.05 54.791C152.05 54.791 152.252 54.791 152.657 54.791C152.657 54.791 152.08 55.3452 150.925 56.4535C150.925 56.4535 151.503 57.0445 152.657 58.2265C152.657 58.2265 152.452 58.2265 152.044 58.2265C152.044 58.2265 151.517 57.6866 150.464 56.6069C150.464 56.6069 150.464 57.1468 150.464 58.2265C150.464 58.2265 150.307 58.2265 149.994 58.2265C149.994 58.2265 149.994 57.0813 149.994 54.791Z" fill="white"/>
<path d="M154.68 54.709C155.016 54.709 155.32 54.7877 155.59 54.9452C155.862 55.1005 156.075 55.3163 156.228 55.5924C156.383 55.8685 156.46 56.1772 156.46 56.5187C156.46 57.034 156.294 57.4614 155.959 57.8008C155.625 58.1403 155.202 58.31 154.692 58.31C154.343 58.31 154.027 58.2323 153.744 58.0769C153.461 57.9215 153.239 57.7068 153.078 57.4327C152.919 57.1587 152.839 56.852 152.839 56.5125C152.839 55.9911 153.013 55.5606 153.36 55.2212C153.707 54.8797 154.147 54.709 154.68 54.709ZM154.642 55.1353C154.263 55.1353 153.947 55.2672 153.695 55.531C153.443 55.7927 153.317 56.122 153.317 56.5187C153.317 56.9113 153.446 57.2365 153.704 57.4941C153.962 57.7518 154.287 57.8806 154.68 57.8806C155.062 57.8806 155.374 57.7539 155.618 57.5003C155.863 57.2446 155.986 56.9195 155.986 56.5248C155.986 56.1199 155.861 55.7877 155.609 55.5279C155.357 55.2662 155.034 55.1353 154.642 55.1353Z" fill="white"/>
<path d="M157.129 58.2265C157.129 58.2265 157.129 57.0813 157.129 54.791C157.129 54.791 157.373 54.791 157.86 54.791C157.86 54.791 158.264 55.7204 159.072 57.5793C159.072 57.5793 159.475 56.6498 160.282 54.791C160.282 54.791 160.525 54.791 161.01 54.791C161.01 54.791 161.01 55.9361 161.01 58.2265C161.01 58.2265 160.854 58.2265 160.542 58.2265C160.542 58.2265 160.542 57.251 160.542 55.3002C160.542 55.3002 160.119 56.2756 159.273 58.2265C159.273 58.2265 159.137 58.2265 158.867 58.2265C158.867 58.2265 158.445 57.251 157.6 55.3002C157.6 55.3002 157.6 56.2756 157.6 58.2265C157.6 58.2265 157.443 58.2265 157.129 58.2265Z" fill="white"/>
<path d="M164.801 58.2265C164.801 58.2265 164.645 58.2265 164.33 58.2265C164.33 58.2265 164.33 57.2214 164.33 55.2113C164.33 55.2113 163.648 55.2113 162.284 55.2113C162.284 55.2113 162.284 56.2163 162.284 58.2265C162.284 58.2265 162.126 58.2265 161.812 58.2265C161.812 58.2265 161.812 57.0813 161.812 54.791C161.812 54.791 162.809 54.791 164.801 54.791C164.801 54.791 164.801 55.9361 164.801 58.2265Z" fill="white"/>
<path d="M169.131 54.7918C169.131 54.7918 169.131 55.9369 169.131 58.2272C169.131 58.2272 168.974 58.2272 168.661 58.2272C168.661 58.2272 168.661 58.0258 168.661 57.6229C168.476 57.8683 168.282 58.0442 168.075 58.1506C167.871 58.2569 167.622 58.31 167.329 58.31C166.976 58.31 166.656 58.2333 166.372 58.0799C166.089 57.9246 165.867 57.7109 165.705 57.4389C165.545 57.1649 165.464 56.8581 165.464 56.5187C165.464 56.1792 165.544 55.8715 165.703 55.5954C165.862 55.3193 166.08 55.1026 166.359 54.9452C166.638 54.7877 166.949 54.709 167.291 54.709C167.595 54.709 167.855 54.7642 168.072 54.8746C168.291 54.983 168.487 55.1579 168.661 55.3992V54.7918H169.131ZM167.285 55.1353C166.914 55.1353 166.597 55.2682 166.334 55.5341C166.072 55.7999 165.942 56.122 165.942 56.5003C165.942 56.8868 166.075 57.2139 166.344 57.4819C166.612 57.7477 166.938 57.8806 167.323 57.8806C167.7 57.8806 168.017 57.7487 168.274 57.4849C168.532 57.2191 168.661 56.8909 168.661 56.5003C168.661 56.1097 168.529 55.7845 168.267 55.5249C168.005 55.2652 167.677 55.1353 167.285 55.1353Z" fill="white"/>
<path d="M172.948 58.2265C172.948 58.2265 172.791 58.2265 172.476 58.2265C172.476 58.2265 172.476 57.7132 172.476 56.6867C172.476 56.6867 171.783 56.6867 170.399 56.6867C170.399 56.6867 170.399 57.1999 170.399 58.2265C170.399 58.2265 170.242 58.2265 169.927 58.2265C169.927 58.2265 169.927 57.0813 169.927 54.791C169.927 54.791 170.084 54.791 170.399 54.791C170.399 54.791 170.399 55.2828 170.399 56.2664C170.399 56.2664 171.091 56.2664 172.476 56.2664C172.476 56.2664 172.476 55.7747 172.476 54.791C172.476 54.791 172.633 54.791 172.948 54.791C172.948 54.791 172.948 55.9361 172.948 58.2265Z" fill="white"/>
<path d="M176.326 54.791C176.326 54.791 176.483 54.791 176.794 54.791C176.794 54.791 176.794 55.9361 176.794 58.2265C176.794 58.2265 176.638 58.2265 176.326 58.2265C176.326 58.2265 176.326 57.3011 176.326 55.4505C176.326 55.4505 175.622 56.3758 174.214 58.2265C174.214 58.2265 174.058 58.2265 173.743 58.2265C173.743 58.2265 173.743 57.0813 173.743 54.791C173.743 54.791 173.9 54.791 174.214 54.791C174.214 54.791 174.214 55.7163 174.214 57.567C174.214 57.567 174.918 56.6416 176.326 54.791Z" fill="white"/>
<path d="M179.532 56.4168C179.532 56.4168 179.532 56.0149 179.532 55.2113C179.532 55.2113 179.263 55.2113 178.727 55.2113C178.167 55.2113 177.887 55.4127 177.887 55.8155C177.887 56.2163 178.167 56.4168 178.727 56.4168C178.727 56.4168 178.995 56.4168 179.532 56.4168ZM178.764 56.8369C178.764 56.8369 178.438 57.3001 177.785 58.2265C177.785 58.2265 177.607 58.2265 177.252 58.2265C177.252 58.2265 177.587 57.751 178.256 56.8001C177.994 56.7408 177.787 56.6233 177.636 56.4474C177.488 56.2695 177.413 56.0588 177.413 55.8155C177.413 55.519 177.522 55.2747 177.739 55.0824C177.958 54.8881 178.246 54.791 178.606 54.791H180V58.2265C180 58.2265 179.844 58.2265 179.532 58.2265C179.532 58.2265 179.532 57.7633 179.532 56.8369C179.532 56.8369 179.275 56.8369 178.764 56.8369Z" fill="white"/>
<path d="M94.2443 1.61816C90.8568 1.61816 87.6016 2.34178 84.6789 3.59167C82.6197 4.51263 80.6933 5.76252 78.9663 7.14397L79.2984 8.39386C80.627 7.20975 82.0883 6.22301 83.6825 5.4336C91.7866 1.42082 102.282 2.99962 109.389 10.0385C114.902 15.5642 117.16 23.0635 115.899 29.905H103.078C103.411 30.2997 103.743 30.6287 104.008 31.0233H115.699C114.836 34.6414 113.042 38.128 110.186 40.8908C102.215 48.7848 89.2622 48.8507 80.4276 41.2855C79.8962 41.8776 79.4312 42.4039 78.9663 42.996C83.0846 46.4167 88.3991 48.5217 94.2443 48.5217C107.33 48.5217 117.892 38.0621 117.892 25.1028C117.892 12.1435 107.33 1.61816 94.2443 1.61816Z" fill="white"/>
<path d="M128.118 47.8639V3.46012H142.599V47.8639H144.857V2.3418C138.546 2.3418 132.237 2.3418 125.926 2.3418V47.8639H128.118Z" fill="white"/>
<path d="M166.523 1.61816C165.926 2.34178 165.394 3.0654 164.797 3.78902C160.81 18.4587 156.825 33.1284 152.906 47.8639H154.035C155.563 42.2066 157.091 36.6149 158.619 31.0234H172.17C173.698 36.6149 175.225 42.2066 176.686 47.8639H179.012C174.893 32.4706 170.708 17.0114 166.523 1.61816ZM158.885 29.905L165.394 5.95987L171.838 29.905H158.885Z" fill="white"/>
<path fill-rule="evenodd" clip-rule="evenodd" d="M84.3889 2.94141L84.3943 2.93907C87.4018 1.65292 90.7532 0.907343 94.2443 0.907343C107.728 0.907343 118.609 11.7535 118.609 25.1028C118.609 38.4546 107.726 49.2324 94.2443 49.2324C88.2209 49.2324 82.7454 47.0625 78.5051 43.5404L77.9751 43.1003L78.3997 42.5595C78.8803 41.9477 79.3587 41.4065 79.8912 40.8133L80.3615 40.2893L80.8971 40.7478C89.4721 48.091 101.997 47.9959 109.679 40.3882L109.681 40.3852L109.685 40.3824C112.202 37.9474 113.868 34.9208 114.773 31.734H103.624L103.411 31.4176C103.257 31.1877 103.094 31.0054 102.894 30.7801C102.784 30.6577 102.664 30.5224 102.527 30.36L101.546 29.1942H115.291C116.281 22.748 114.077 15.7488 108.88 10.5395C101.983 3.70999 91.82 2.19871 84.0034 6.06926C82.467 6.83001 81.0592 7.78059 79.7785 8.9221L78.9038 9.70175L78.154 6.87998L78.5153 6.59098C80.279 5.1802 82.2571 3.89486 84.3835 2.94383L84.3889 2.94141ZM109.389 10.0384C114.902 15.5642 117.16 23.0635 115.899 29.905H103.078C103.185 30.0308 103.291 30.15 103.394 30.2667C103.498 30.3841 103.601 30.499 103.698 30.6157C103.808 30.7471 103.912 30.881 104.008 31.0233H115.699C115.642 31.2608 115.582 31.4978 115.518 31.734C114.596 35.0961 112.855 38.3093 110.186 40.8908C102.215 48.7848 89.2622 48.8506 80.4276 41.2855C79.8962 41.8776 79.4313 42.4038 78.9662 42.9958C83.0846 46.4166 88.3982 48.5217 94.2443 48.5217C107.33 48.5217 117.891 38.0621 117.891 25.1028C117.891 12.1434 107.33 1.6181 94.2443 1.6181C90.8568 1.6181 87.6015 2.34172 84.6788 3.5916C82.6196 4.51257 80.6933 5.76245 78.9662 7.14391L79.2984 8.39379C79.4969 8.21681 79.6984 8.04426 79.9029 7.8761C81.0667 6.91914 82.3265 6.10495 83.6824 5.43353C91.7866 1.42074 102.281 2.99955 109.389 10.0384ZM128.836 48.5746H125.208V1.63095H145.575V48.5746H141.881V4.17079H128.836V48.5746ZM128.118 47.8638H125.926V2.34172H144.857V47.8638H142.598V3.46003H128.118V47.8638ZM166.853 0.0966797L167.216 1.43332C171.401 16.8271 175.586 32.2872 179.705 47.6818L179.944 48.5746H176.128L175.991 48.04C174.576 42.5651 173.1 37.1511 171.62 31.734H159.168C157.688 37.1507 156.208 42.5684 154.729 48.0475L154.586 48.5746H151.974L152.212 47.6828C156.131 32.9469 160.116 18.2771 164.102 3.60928L164.103 3.60428L164.143 3.45695L164.241 3.33887C164.532 2.98595 164.809 2.63192 165.091 2.26893L165.094 2.26591C165.374 1.90623 165.662 1.53768 165.968 1.16802L166.853 0.0966797ZM158.618 31.0233H172.169C173.697 36.6149 175.225 42.2064 176.686 47.8638H179.011C178.948 47.627 178.884 47.39 178.821 47.1531C174.84 32.2781 170.797 17.3436 166.754 2.46815C166.677 2.18478 166.6 1.90143 166.523 1.6181C166.333 1.84857 166.149 2.07904 165.968 2.30951C165.864 2.44085 165.762 2.57219 165.66 2.70353C165.377 3.06533 165.095 3.42714 164.796 3.78895C160.874 18.2228 156.953 32.6566 153.095 47.1531C153.032 47.39 152.969 47.6269 152.906 47.8638H154.035C155.562 42.2088 157.09 36.6195 158.617 31.0303L158.618 31.0233ZM158.884 29.905H171.837L165.393 5.9598L158.884 29.905ZM165.39 8.70688L159.82 29.1942H170.903L165.39 8.70688Z" fill="white"/>
</g>
<defs>
<clipPath id="clip0_4421_1417">
<rect width="180" height="60" fill="white"/>
</clipPath>
</defs>
</svg>
