<svg width="150" height="50" viewBox="0 0 150 50" fill="none" xmlns="http://www.w3.org/2000/svg">
<g clip-path="url(#clip0_4366_18)">
<path d="M46.5178 43.1567H9.08545V45.2863H46.5178V43.1567Z" fill="#073BA1"/>
<path d="M50.8185 46.5156H4.78711V48.6453H50.8185V46.5156Z" fill="#073BA1"/>
<path d="M40.625 41.949V24.6266V22.4969V10.6414V9.58752V8.51172H28.8125V8.97281V10.6414V22.4969V24.6266V41.949H30.9623V24.6266H38.4753V41.949H40.625ZM30.9401 22.4969V10.6414H38.4531V22.4969H30.9401Z" fill="#073BA1"/>
<path d="M43.9935 41.9491V7.28245V5.15283H41.8438H27.5711H25.4214V7.28245V41.9491H27.5711V7.28245H41.8438V41.9491H43.9935Z" fill="#073BA1"/>
<path d="M11.6143 39.8195V41.9491H22.0527H24.2025V5.15283H22.0527H11.6143V7.28245H22.0527V22.4972H11.6143V24.6268H22.0527V39.8195H11.6143Z" fill="#073BA1"/>
<path d="M55.2067 4.97741C54.8078 4.05531 54.1429 3.26493 53.3229 2.69411C52.5915 2.21111 51.7272 1.88178 50.7964 1.81592H4.76493V1.83787C4.21087 1.88178 3.67897 2.01351 3.19139 2.23306C2.23841 2.62824 1.44056 3.26493 0.8865 4.09922C0.332437 4.93351 0 5.92147 0 6.99726C0 7.6998 0.155137 8.40234 0.421087 9.01712C0.82001 9.93922 1.48488 10.7296 2.3049 11.2784C3.14707 11.8273 4.14438 12.1566 5.23035 12.1566C5.93954 12.1566 6.64874 12.003 7.26929 11.7615C8.2001 11.3663 8.99795 10.7076 9.552 9.89531C10.1061 9.06103 10.4385 8.07306 10.4385 6.99726C10.4385 6.36056 10.3277 5.74583 10.1061 5.175H7.66822C7.69039 5.21892 7.73473 5.26282 7.75683 5.30674C8.08932 5.78974 8.28878 6.36056 8.28878 6.99726C8.28878 7.41437 8.2001 7.80958 8.04498 8.18285C7.82334 8.73169 7.42441 9.19277 6.93686 9.52205C6.44928 9.8514 5.85089 10.049 5.23035 10.049C4.80926 10.049 4.41033 9.96118 4.03357 9.80748C3.47951 9.58792 3.01409 9.19277 2.68166 8.70973C2.34922 8.22676 2.14976 7.63393 2.14976 7.01921C2.14976 6.60207 2.23841 6.20688 2.39355 5.83365C2.63734 5.28478 3.01409 4.82373 3.50167 4.4944C3.98925 4.16508 4.58763 3.96749 5.20818 3.96749H9.41905H46.1866H50.331C50.3531 3.96749 50.3753 3.96749 50.3974 3.96749C50.8185 3.96749 51.2175 4.05531 51.5942 4.20899C52.1483 4.4505 52.6137 4.82373 52.9461 5.30674C53.2786 5.78974 53.4781 6.38252 53.4781 6.99726C53.4781 7.41437 53.3894 7.80958 53.2343 8.18285C52.9905 8.73169 52.6137 9.19277 52.1261 9.52205C51.6386 9.8514 51.0402 10.049 50.4196 10.049C49.9985 10.049 49.5996 9.96118 49.2228 9.80748C48.6688 9.58792 48.2033 9.19277 47.8709 8.70973C47.5385 8.22676 47.3391 7.63393 47.3391 7.01921C47.3391 6.60207 47.4277 6.20688 47.5829 5.83365C47.6715 5.6141 47.8044 5.39456 47.9596 5.19696H45.5439C45.3222 5.76779 45.2115 6.38252 45.2115 7.01921C45.2115 7.72176 45.3666 8.42429 45.6325 9.03908C46.0314 9.96118 46.6963 10.7515 47.5163 11.3004C48.3585 11.8493 49.3559 12.1786 50.4418 12.1786C51.151 12.1786 51.8602 12.0249 52.4808 11.7834C53.4116 11.3882 54.2094 10.7296 54.7856 9.91727C55.3397 9.08299 55.6721 8.09502 55.6721 7.01921C55.6278 6.27274 55.4726 5.59215 55.2067 4.97741Z" fill="#073BA1"/>
<path d="M66.1694 45.5908C66.4498 45.5908 66.7028 45.6564 66.9282 45.7876C67.1554 45.9171 67.3326 46.0969 67.4599 46.327C67.589 46.5571 67.6535 46.8143 67.6535 47.0989C67.6535 47.5284 67.5141 47.8845 67.2354 48.1673C66.9566 48.4502 66.6047 48.5917 66.1797 48.5917C65.8889 48.5917 65.6256 48.5269 65.3899 48.3974C65.1542 48.2679 64.9692 48.089 64.835 47.8606C64.7025 47.6323 64.6362 47.3767 64.6362 47.0938C64.6362 46.6592 64.7808 46.3005 65.0698 46.0177C65.3589 45.7331 65.7254 45.5908 66.1694 45.5908ZM66.1384 45.9461C65.8218 45.9461 65.5585 46.056 65.3486 46.2758C65.1387 46.4939 65.0338 46.7684 65.0338 47.0989C65.0338 47.4261 65.1413 47.697 65.3564 47.9118C65.5714 48.1265 65.8424 48.2339 66.1694 48.2339C66.4877 48.2339 66.7485 48.1282 66.9514 47.9169C67.1562 47.7039 67.2586 47.4329 67.2586 47.104C67.2586 46.7666 67.1537 46.4897 66.9437 46.2733C66.7338 46.0552 66.4653 45.9461 66.1384 45.9461Z" fill="#073BA1"/>
<path d="M70.6475 45.6597C70.6475 45.6597 70.6475 46.4972 70.6475 48.1723C70.6475 48.1723 70.804 48.1723 71.1172 48.1723C71.1172 48.1723 71.1172 48.5089 71.1172 49.182C71.1172 49.182 71.0278 49.182 70.8488 49.182C70.8488 49.182 70.8015 48.9622 70.7069 48.5226C70.7069 48.5226 69.8749 48.5226 68.2109 48.5226C68.2109 48.5226 68.2109 47.5682 68.2109 45.6597C68.2109 45.6597 68.3418 45.6597 68.6033 45.6597C68.6033 45.6597 68.6033 46.4972 68.6033 48.1723C68.6033 48.1723 69.1548 48.1723 70.2577 48.1723C70.2577 48.1723 70.2577 47.3348 70.2577 45.6597C70.2577 45.6597 70.3876 45.6597 70.6475 45.6597Z" fill="#073BA1"/>
<path d="M74.3079 47.2191C74.3079 47.2191 73.4364 47.2191 71.6931 47.2191C71.7086 47.5019 71.8256 47.7422 72.0441 47.9399C72.2626 48.1358 72.5208 48.2339 72.8184 48.2339C73.0387 48.2339 73.2418 48.1742 73.4276 48.0549C73.6135 47.9339 73.7467 47.7755 73.8279 47.5794H74.2354C74.1286 47.8811 73.9464 48.1256 73.6881 48.3131C73.4298 48.4988 73.1437 48.5917 72.8287 48.5917C72.6188 48.5917 72.4192 48.5525 72.23 48.4741C72.0407 48.3957 71.8781 48.2892 71.7421 48.1546C71.6062 48.02 71.4986 47.8589 71.4195 47.6715C71.3404 47.484 71.3008 47.2863 71.3008 47.0785C71.3008 46.8058 71.367 46.5553 71.4995 46.327C71.632 46.0986 71.8127 45.9189 72.0416 45.7876C72.2704 45.6564 72.5224 45.5908 72.7978 45.5908C73.0834 45.5908 73.3457 45.6607 73.585 45.8004C73.8257 45.9402 74.0093 46.1302 74.1345 46.3704C74.1981 46.4914 74.2435 46.6158 74.2691 46.7436C74.2947 46.8697 74.3079 47.0282 74.3079 47.2191ZM71.7034 46.8689H73.9179C73.8528 46.5843 73.7196 46.3594 73.5176 46.1941C73.3186 46.0287 73.0782 45.9461 72.7978 45.9461C72.5242 45.9461 72.2868 46.0313 72.0854 46.2017C71.8841 46.3704 71.7568 46.5928 71.7034 46.8689Z" fill="#073BA1"/>
<path d="M77.3664 48.5226C77.3664 48.5226 77.2355 48.5226 76.9742 48.5226C76.9742 48.5226 76.9742 48.0948 76.9742 47.2394C76.9742 47.2394 76.3969 47.2394 75.2423 47.2394C75.2423 47.2394 75.2423 47.6671 75.2423 48.5226C75.2423 48.5226 75.1113 48.5226 74.8501 48.5226C74.8501 48.5226 74.8501 47.5682 74.8501 45.6597C74.8501 45.6597 74.9803 45.6597 75.2423 45.6597C75.2423 45.6597 75.2423 46.0695 75.2423 46.8892C75.2423 46.8892 75.8196 46.8892 76.9742 46.8892C76.9742 46.8892 76.9742 46.4794 76.9742 45.6597C76.9742 45.6597 77.1045 45.6597 77.3664 45.6597C77.3664 45.6597 77.3664 46.6139 77.3664 48.5226Z" fill="#073BA1"/>
<path d="M79.4519 45.5908C79.7321 45.5908 79.9853 45.6564 80.2107 45.7876C80.4375 45.9171 80.6153 46.0969 80.7426 46.327C80.8714 46.5571 80.9358 46.8143 80.9358 47.0989C80.9358 47.5284 80.7968 47.8845 80.518 48.1673C80.2392 48.4502 79.8872 48.5917 79.4621 48.5917C79.1716 48.5917 78.9082 48.5269 78.6726 48.3974C78.4363 48.2679 78.2519 48.089 78.1172 47.8606C77.9848 47.6323 77.9189 47.3767 77.9189 47.0938C77.9189 46.6592 78.0631 46.3005 78.3521 46.0177C78.6411 45.7331 79.0077 45.5908 79.4519 45.5908ZM79.4211 45.9461C79.1043 45.9461 78.8409 46.056 78.6309 46.2758C78.4209 46.4939 78.3163 46.7684 78.3163 47.0989C78.3163 47.4261 78.4238 47.697 78.6389 47.9118C78.8541 48.1265 79.1248 48.2339 79.4519 48.2339C79.7702 48.2339 80.0307 48.1282 80.2341 47.9169C80.4389 47.7039 80.5414 47.4329 80.5414 47.104C80.5414 46.7666 80.436 46.4897 80.226 46.2733C80.016 46.0552 79.7475 45.9461 79.4211 45.9461Z" fill="#073BA1"/>
<path d="M83.5916 45.6597C83.5916 45.6597 83.5916 46.6139 83.5916 48.5226C83.5916 48.5226 83.4614 48.5226 83.2016 48.5226C83.2016 48.5226 83.2016 48.1425 83.2016 47.3825C82.9097 47.4166 82.6053 47.4337 82.2906 47.4337C82.1962 47.4337 82.0953 47.4192 81.9884 47.3902C81.8823 47.3595 81.796 47.3203 81.7309 47.2726C81.5084 47.1209 81.3979 46.873 81.3979 46.5287V45.6597C81.3979 45.6597 81.5282 45.6597 81.7901 45.6597C81.7901 45.6597 81.7901 45.9494 81.7901 46.5287C81.7901 46.6429 81.8011 46.7341 81.8238 46.8023C81.8479 46.8705 81.8918 46.9267 81.9555 46.971C82.0192 47.0136 82.1004 47.0434 82.2006 47.0605C82.3016 47.0758 82.4362 47.0834 82.6031 47.0834C82.756 47.0834 82.9558 47.0673 83.2016 47.0349V45.6597H83.5916Z" fill="#073BA1"/>
<path d="M86.7766 48.5226C86.7766 48.5226 86.6456 48.5226 86.3844 48.5226C86.3844 48.5226 86.3844 48.0948 86.3844 47.2394C86.3844 47.2394 85.8071 47.2394 84.6525 47.2394C84.6525 47.2394 84.6525 47.6671 84.6525 48.5226C84.6525 48.5226 84.5215 48.5226 84.2603 48.5226C84.2603 48.5226 84.2603 47.5682 84.2603 45.6597C84.2603 45.6597 84.3905 45.6597 84.6525 45.6597C84.6525 45.6597 84.6525 46.0695 84.6525 46.8892C84.6525 46.8892 85.2298 46.8892 86.3844 46.8892C86.3844 46.8892 86.3844 46.4794 86.3844 45.6597C86.3844 45.6597 86.5146 45.6597 86.7766 45.6597C86.7766 45.6597 86.7766 46.6139 86.7766 48.5226Z" fill="#073BA1"/>
<path d="M88.862 45.5908C89.1423 45.5908 89.3954 45.6564 89.6208 45.7876C89.8476 45.9171 90.0254 46.0969 90.1528 46.327C90.2815 46.5571 90.3459 46.8143 90.3459 47.0989C90.3459 47.5284 90.2069 47.8845 89.9281 48.1673C89.6493 48.4502 89.2974 48.5917 88.8723 48.5917C88.5818 48.5917 88.3184 48.5269 88.0828 48.3974C87.8471 48.2679 87.662 48.089 87.5274 47.8606C87.395 47.6323 87.3291 47.3767 87.3291 47.0938C87.3291 46.6592 87.4732 46.3005 87.7623 46.0177C88.0513 45.7331 88.4179 45.5908 88.862 45.5908ZM88.8313 45.9461C88.5145 45.9461 88.2511 46.056 88.0411 46.2758C87.8311 46.4939 87.7264 46.7684 87.7264 47.0989C87.7264 47.4261 87.834 47.697 88.0491 47.9118C88.2642 48.1265 88.535 48.2339 88.862 48.2339C89.1803 48.2339 89.4408 48.1282 89.6442 47.9169C89.8491 47.7039 89.9515 47.4329 89.9515 47.104C89.9515 46.7666 89.8462 46.4897 89.6362 46.2733C89.4262 46.0552 89.1576 45.9461 88.8313 45.9461Z" fill="#073BA1"/>
<path d="M90.7334 46.9736C90.7334 46.9736 91.2112 46.9736 92.1661 46.9736C92.1661 46.9736 92.1661 47.0836 92.1661 47.3034C92.1661 47.3034 91.689 47.3034 90.7334 47.3034C90.7334 47.3034 90.7334 47.1935 90.7334 46.9736Z" fill="#073BA1"/>
<path d="M92.9815 47.7124C93.0898 47.8743 93.2273 48.0021 93.3942 48.0958C93.5632 48.1879 93.7476 48.2339 93.9495 48.2339C94.2452 48.2339 94.5013 48.1401 94.7186 47.9526C94.9352 47.7652 95.0625 47.5309 95.1005 47.2497H93.3788V46.8995C93.3788 46.8995 93.951 46.8995 95.0954 46.8995C95.0508 46.6235 94.922 46.396 94.7105 46.2171C94.4991 46.0364 94.2503 45.9461 93.9649 45.9461C93.5383 45.9461 93.2105 46.1293 92.9815 46.4957H92.5322C92.6581 46.2128 92.8454 45.9913 93.0949 45.8311C93.3459 45.6709 93.6342 45.5908 93.9598 45.5908C94.2437 45.5908 94.5042 45.6573 94.742 45.7902C94.9791 45.9214 95.1656 46.1012 95.3017 46.3295C95.4393 46.5578 95.5081 46.8092 95.5081 47.0836C95.5081 47.3631 95.4393 47.6186 95.3017 47.8504C95.1642 48.0805 94.9747 48.262 94.7339 48.3949C94.4932 48.5261 94.2261 48.5917 93.9335 48.5917C93.6137 48.5917 93.3349 48.5133 93.0978 48.3565C92.8615 48.1997 92.6734 47.985 92.5322 47.7124H92.9815Z" fill="#073BA1"/>
<path d="M96.0605 45.6597C96.0605 45.6597 96.1915 45.6597 96.4527 45.6597C96.4527 45.6597 96.4527 46.0849 96.4527 46.9352C96.4527 46.9352 96.8932 46.51 97.7742 45.6597C97.7742 45.6597 97.9432 45.6597 98.2805 45.6597C98.2805 45.6597 97.7991 46.1215 96.8376 47.0451C96.8376 47.0451 97.3183 47.5376 98.2805 48.5226C98.2805 48.5226 98.1101 48.5226 97.7691 48.5226C97.7691 48.5226 97.3308 48.0726 96.4527 47.1729C96.4527 47.1729 96.4527 47.6228 96.4527 48.5226C96.4527 48.5226 96.3218 48.5226 96.0605 48.5226C96.0605 48.5226 96.0605 47.5682 96.0605 45.6597Z" fill="#073BA1"/>
<path d="M100.98 47.6792C100.98 47.6792 101.129 47.6792 101.424 47.6792C101.342 47.8342 101.266 47.956 101.197 48.0447C101.129 48.1316 101.046 48.2108 100.949 48.2824C100.685 48.4886 100.371 48.5917 100.008 48.5917C99.7151 48.5917 99.448 48.5261 99.2073 48.3949C98.9665 48.262 98.777 48.0805 98.6395 47.8504C98.5019 47.6186 98.4331 47.3631 98.4331 47.0836C98.4331 46.8092 98.5012 46.5578 98.6365 46.3295C98.7748 46.1012 98.9621 45.9214 99.1992 45.7902C99.437 45.6573 99.6975 45.5908 99.9814 45.5908C100.308 45.5908 100.6 45.6752 100.857 45.8439C101.115 46.0126 101.302 46.2409 101.419 46.5289H100.98C100.869 46.3415 100.726 46.1975 100.554 46.0969C100.382 45.9964 100.19 45.9461 99.9763 45.9461C99.6543 45.9461 99.3829 46.0568 99.1612 46.2784C98.9409 46.4999 98.8304 46.7718 98.8304 47.0938C98.8304 47.4125 98.9424 47.6826 99.1663 47.9041C99.3916 48.1239 99.6668 48.2339 99.9916 48.2339C100.199 48.2339 100.377 48.1913 100.527 48.106C100.677 48.0208 100.829 47.8785 100.98 47.6792Z" fill="#073BA1"/>
<path d="M104.457 48.5226C104.457 48.5226 104.326 48.5226 104.065 48.5226C104.065 48.5226 104.065 47.685 104.065 46.0099C104.065 46.0099 103.496 46.0099 102.359 46.0099C102.359 46.0099 102.359 46.8474 102.359 48.5226C102.359 48.5226 102.228 48.5226 101.966 48.5226C101.966 48.5226 101.966 47.5682 101.966 45.6597C101.966 45.6597 102.797 45.6597 104.457 45.6597C104.457 45.6597 104.457 46.6139 104.457 48.5226Z" fill="#073BA1"/>
<path d="M108.016 47.2191C108.016 47.2191 107.144 47.2191 105.401 47.2191C105.417 47.5019 105.534 47.7422 105.753 47.9399C105.971 48.1358 106.229 48.2339 106.527 48.2339C106.747 48.2339 106.95 48.1742 107.136 48.0549C107.321 47.9339 107.455 47.7755 107.536 47.5794H107.943C107.837 47.8811 107.654 48.1256 107.397 48.3131C107.139 48.4988 106.852 48.5917 106.537 48.5917C106.327 48.5917 106.127 48.5525 105.939 48.4741C105.749 48.3957 105.587 48.2892 105.45 48.1546C105.314 48.02 105.207 47.8589 105.128 47.6715C105.049 47.484 105.009 47.2863 105.009 47.0785C105.009 46.8058 105.075 46.5553 105.208 46.327C105.34 46.0986 105.521 45.9189 105.75 45.7876C105.979 45.6564 106.231 45.5908 106.506 45.5908C106.792 45.5908 107.054 45.6607 107.293 45.8004C107.534 45.9402 107.717 46.1302 107.843 46.3704C107.907 46.4914 107.951 46.6158 107.977 46.7436C108.003 46.8697 108.016 47.0282 108.016 47.2191ZM105.412 46.8689H107.627C107.561 46.5843 107.428 46.3594 107.226 46.1941C107.027 46.0287 106.787 45.9461 106.506 45.9461C106.233 45.9461 105.995 46.0313 105.794 46.2017C105.592 46.3704 105.465 46.5928 105.412 46.8689Z" fill="#073BA1"/>
<path d="M108.558 45.6598C108.558 45.6598 108.689 45.6598 108.95 45.6598C108.95 45.6598 108.95 45.8234 108.95 46.1506C109.071 45.9683 109.228 45.8294 109.42 45.7339C109.615 45.6385 109.836 45.5908 110.086 45.5908C110.37 45.5908 110.628 45.6564 110.86 45.7876C111.093 45.9189 111.275 46.0994 111.407 46.3295C111.542 46.5578 111.609 46.8126 111.609 47.0938C111.609 47.3715 111.542 47.6255 111.407 47.8555C111.273 48.0839 111.088 48.2636 110.853 48.3949C110.619 48.5261 110.36 48.5917 110.076 48.5917C109.836 48.5917 109.621 48.544 109.428 48.4486C109.237 48.3514 109.078 48.2117 108.95 48.0294V49.5272H108.558V45.6598ZM110.055 45.9461C109.737 45.9461 109.468 46.0568 109.25 46.2784C109.032 46.4999 108.922 46.7718 108.922 47.0938C108.922 47.4159 109.032 47.6868 109.252 47.9066C109.473 48.1248 109.746 48.2339 110.071 48.2339C110.395 48.2339 110.667 48.1265 110.883 47.9118C111.102 47.6953 111.211 47.4261 111.211 47.104C111.211 46.7666 111.102 46.4897 110.883 46.2733C110.667 46.0552 110.39 45.9461 110.055 45.9461Z" fill="#073BA1"/>
<path d="M113.676 46.0099C113.676 46.0099 113.426 46.0099 112.925 46.0099C112.925 46.0099 112.925 46.8474 112.925 48.5226C112.925 48.5226 112.795 48.5226 112.533 48.5226C112.533 48.5226 112.533 47.685 112.533 46.0099C112.533 46.0099 112.28 46.0099 111.774 46.0099C111.774 46.0099 111.774 45.8931 111.774 45.6597C111.774 45.6597 112.408 45.6597 113.676 45.6597C113.676 45.6597 113.676 45.7764 113.676 46.0099Z" fill="#073BA1"/>
<path d="M116.588 48.5226C116.588 48.5226 116.457 48.5226 116.196 48.5226C116.196 48.5226 116.196 48.0948 116.196 47.2394C116.196 47.2394 115.619 47.2394 114.464 47.2394C114.464 47.2394 114.464 47.6671 114.464 48.5226C114.464 48.5226 114.333 48.5226 114.072 48.5226C114.072 48.5226 114.072 47.5682 114.072 45.6597C114.072 45.6597 114.202 45.6597 114.464 45.6597C114.464 45.6597 114.464 46.0695 114.464 46.8892C114.464 46.8892 115.041 46.8892 116.196 46.8892C116.196 46.8892 116.196 46.4794 116.196 45.6597C116.196 45.6597 116.326 45.6597 116.588 45.6597C116.588 45.6597 116.588 46.6139 116.588 48.5226Z" fill="#073BA1"/>
<path d="M120.196 45.6598C120.196 45.6598 120.196 46.6141 120.196 48.5227C120.196 48.5227 120.065 48.5227 119.804 48.5227C119.804 48.5227 119.804 48.3548 119.804 48.0191C119.651 48.2236 119.488 48.3702 119.316 48.4588C119.146 48.5474 118.938 48.5917 118.694 48.5917C118.4 48.5917 118.134 48.5278 117.896 48.4C117.661 48.2705 117.476 48.0924 117.342 47.8657C117.207 47.6374 117.141 47.3818 117.141 47.0989C117.141 46.816 117.206 46.5596 117.339 46.3295C117.471 46.0994 117.654 45.9189 117.886 45.7876C118.119 45.6564 118.378 45.5908 118.663 45.5908C118.916 45.5908 119.133 45.6368 119.314 45.7289C119.496 45.8192 119.659 45.9649 119.804 46.166V45.6598H120.196ZM118.658 45.9461C118.349 45.9461 118.085 46.0568 117.866 46.2784C117.647 46.4999 117.538 46.7684 117.538 47.0836C117.538 47.4057 117.65 47.6783 117.873 47.9015C118.097 48.1231 118.369 48.2339 118.689 48.2339C119.004 48.2339 119.268 48.1239 119.481 47.9041C119.696 47.6826 119.804 47.4091 119.804 47.0836C119.804 46.7581 119.695 46.4871 119.476 46.2707C119.257 46.0543 118.985 45.9461 118.658 45.9461Z" fill="#073BA1"/>
<path d="M122.472 47.0144C122.472 47.0144 122.472 46.6796 122.472 46.0099C122.472 46.0099 122.249 46.0099 121.801 46.0099C121.335 46.0099 121.102 46.1777 121.102 46.5134C121.102 46.8474 121.335 47.0144 121.801 47.0144C121.801 47.0144 122.025 47.0144 122.472 47.0144ZM121.833 47.3646C121.833 47.3646 121.561 47.7506 121.017 48.5226C121.017 48.5226 120.869 48.5226 120.573 48.5226C120.573 48.5226 120.852 48.1263 121.409 47.3339C121.19 47.2845 121.018 47.1866 120.893 47.04C120.769 46.8917 120.707 46.7162 120.707 46.5134C120.707 46.2663 120.797 46.0627 120.978 45.9025C121.16 45.7406 121.401 45.6597 121.701 45.6597H122.862V48.5226C122.862 48.5226 122.732 48.5226 122.472 48.5226C122.472 48.5226 122.472 48.1366 122.472 47.3646C122.472 47.3646 122.259 47.3646 121.833 47.3646Z" fill="#073BA1"/>
<path d="M124.995 45.6597C124.995 45.6597 125.125 45.6597 125.387 45.6597C125.387 45.6597 125.387 46.0849 125.387 46.9352C125.387 46.9352 125.827 46.51 126.708 45.6597C126.708 45.6597 126.877 45.6597 127.214 45.6597C127.214 45.6597 126.733 46.1215 125.771 47.0451C125.771 47.0451 126.252 47.5376 127.214 48.5226C127.214 48.5226 127.043 48.5226 126.703 48.5226C126.703 48.5226 126.264 48.0726 125.387 47.1729C125.387 47.1729 125.387 47.6228 125.387 48.5226C125.387 48.5226 125.256 48.5226 124.995 48.5226C124.995 48.5226 124.995 47.5682 124.995 45.6597Z" fill="#073BA1"/>
<path d="M128.9 45.5908C129.18 45.5908 129.433 45.6564 129.659 45.7876C129.885 45.9171 130.063 46.0969 130.19 46.327C130.319 46.5571 130.384 46.8143 130.384 47.0989C130.384 47.5284 130.245 47.8845 129.966 48.1673C129.687 48.4502 129.335 48.5917 128.91 48.5917C128.619 48.5917 128.356 48.5269 128.12 48.3974C127.884 48.2679 127.699 48.089 127.565 47.8606C127.433 47.6323 127.366 47.3767 127.366 47.0938C127.366 46.6592 127.511 46.3005 127.8 46.0177C128.089 45.7331 128.456 45.5908 128.9 45.5908ZM128.868 45.9461C128.552 45.9461 128.289 46.056 128.079 46.2758C127.869 46.4939 127.764 46.7684 127.764 47.0989C127.764 47.4261 127.872 47.697 128.087 47.9118C128.302 48.1265 128.573 48.2339 128.9 48.2339C129.218 48.2339 129.479 48.1282 129.682 47.9169C129.886 47.7039 129.989 47.4329 129.989 47.104C129.989 46.7666 129.884 46.4897 129.674 46.2733C129.464 46.0552 129.195 45.9461 128.868 45.9461Z" fill="#073BA1"/>
<path d="M130.941 48.5226C130.941 48.5226 130.941 47.5682 130.941 45.6597C130.941 45.6597 131.144 45.6597 131.55 45.6597C131.55 45.6597 131.887 46.4342 132.56 47.9832C132.56 47.9832 132.896 47.2087 133.569 45.6597C133.569 45.6597 133.771 45.6597 134.176 45.6597C134.176 45.6597 134.176 46.6139 134.176 48.5226C134.176 48.5226 134.045 48.5226 133.786 48.5226C133.786 48.5226 133.786 47.7097 133.786 46.084C133.786 46.084 133.433 46.8968 132.727 48.5226C132.727 48.5226 132.615 48.5226 132.389 48.5226C132.389 48.5226 132.038 47.7097 131.334 46.084C131.334 46.084 131.334 46.8968 131.334 48.5226C131.334 48.5226 131.203 48.5226 130.941 48.5226Z" fill="#073BA1"/>
<path d="M137.334 48.5226C137.334 48.5226 137.204 48.5226 136.942 48.5226C136.942 48.5226 136.942 47.685 136.942 46.0099C136.942 46.0099 136.373 46.0099 135.236 46.0099C135.236 46.0099 135.236 46.8474 135.236 48.5226C135.236 48.5226 135.105 48.5226 134.843 48.5226C134.843 48.5226 134.843 47.5682 134.843 45.6597C134.843 45.6597 135.674 45.6597 137.334 45.6597C137.334 45.6597 137.334 46.6139 137.334 48.5226Z" fill="#073BA1"/>
<path d="M140.943 45.6598C140.943 45.6598 140.943 46.6141 140.943 48.5227C140.943 48.5227 140.812 48.5227 140.551 48.5227C140.551 48.5227 140.551 48.3548 140.551 48.0191C140.397 48.2236 140.235 48.3702 140.063 48.4588C139.892 48.5474 139.685 48.5917 139.441 48.5917C139.147 48.5917 138.88 48.5278 138.643 48.4C138.408 48.2705 138.223 48.0924 138.088 47.8657C137.954 47.6374 137.887 47.3818 137.887 47.0989C137.887 46.816 137.953 46.5596 138.086 46.3295C138.218 46.0994 138.4 45.9189 138.633 45.7876C138.865 45.6564 139.124 45.5908 139.409 45.5908C139.663 45.5908 139.879 45.6368 140.06 45.7289C140.243 45.8192 140.406 45.9649 140.551 46.166V45.6598H140.943ZM139.404 45.9461C139.095 45.9461 138.831 46.0568 138.612 46.2784C138.394 46.4999 138.285 46.7684 138.285 47.0836C138.285 47.4057 138.396 47.6783 138.62 47.9015C138.844 48.1231 139.115 48.2339 139.436 48.2339C139.75 48.2339 140.015 48.1239 140.228 47.9041C140.443 47.6826 140.551 47.4091 140.551 47.0836C140.551 46.7581 140.441 46.4871 140.223 46.2707C140.004 46.0543 139.731 45.9461 139.404 45.9461Z" fill="#073BA1"/>
<path d="M144.123 48.5226C144.123 48.5226 143.992 48.5226 143.73 48.5226C143.73 48.5226 143.73 48.0948 143.73 47.2394C143.73 47.2394 143.153 47.2394 141.999 47.2394C141.999 47.2394 141.999 47.6671 141.999 48.5226C141.999 48.5226 141.868 48.5226 141.606 48.5226C141.606 48.5226 141.606 47.5682 141.606 45.6597C141.606 45.6597 141.737 45.6597 141.999 45.6597C141.999 45.6597 141.999 46.0695 141.999 46.8892C141.999 46.8892 142.575 46.8892 143.73 46.8892C143.73 46.8892 143.73 46.4794 143.73 45.6597C143.73 45.6597 143.861 45.6597 144.123 45.6597C144.123 45.6597 144.123 46.6139 144.123 48.5226Z" fill="#073BA1"/>
<path d="M146.938 45.6597C146.938 45.6597 147.069 45.6597 147.328 45.6597C147.328 45.6597 147.328 46.6139 147.328 48.5226C147.328 48.5226 147.198 48.5226 146.938 48.5226C146.938 48.5226 146.938 47.7514 146.938 46.2092C146.938 46.2092 146.352 46.9803 145.178 48.5226C145.178 48.5226 145.048 48.5226 144.786 48.5226C144.786 48.5226 144.786 47.5682 144.786 45.6597C144.786 45.6597 144.917 45.6597 145.178 45.6597C145.178 45.6597 145.178 46.4308 145.178 47.973C145.178 47.973 145.765 47.2018 146.938 45.6597Z" fill="#073BA1"/>
<path d="M149.61 47.0144C149.61 47.0144 149.61 46.6796 149.61 46.0099C149.61 46.0099 149.386 46.0099 148.939 46.0099C148.473 46.0099 148.239 46.1777 148.239 46.5134C148.239 46.8474 148.473 47.0144 148.939 47.0144C148.939 47.0144 149.163 47.0144 149.61 47.0144ZM148.97 47.3646C148.97 47.3646 148.698 47.7506 148.154 48.5226C148.154 48.5226 148.006 48.5226 147.71 48.5226C147.71 48.5226 147.989 48.1263 148.547 47.3339C148.328 47.2845 148.156 47.1866 148.03 47.04C147.907 46.8917 147.844 46.7162 147.844 46.5134C147.844 46.2663 147.935 46.0627 148.116 45.9025C148.298 45.7406 148.539 45.6597 148.838 45.6597H150V48.5226C150 48.5226 149.87 48.5226 149.61 48.5226C149.61 48.5226 149.61 48.1366 149.61 47.3646C149.61 47.3646 149.396 47.3646 148.97 47.3646Z" fill="#073BA1"/>
<path d="M78.5373 1.34863C75.7144 1.34863 73.0017 1.95165 70.5662 2.99322C68.8502 3.76069 67.2449 4.80226 65.8057 5.95347L66.0824 6.99505C67.1895 6.00829 68.4073 5.186 69.7358 4.52816C76.4892 1.18418 85.2353 2.49984 91.1578 8.36557C95.7522 12.9704 97.6341 19.2198 96.5827 24.921H85.899C86.1763 25.2499 86.4529 25.524 86.6739 25.853H96.4166C95.6973 28.868 94.2024 31.7735 91.8222 34.0759C85.1797 40.6542 74.3856 40.709 67.0234 34.4048C66.5806 34.8982 66.1931 35.3367 65.8057 35.8301C69.2376 38.6807 73.6663 40.4349 78.5373 40.4349C89.4419 40.4349 98.2436 31.7186 98.2436 20.9192C98.2436 10.1198 89.4419 1.34863 78.5373 1.34863Z" fill="#073BA1"/>
<path d="M106.765 39.8867V2.8836H118.832V39.8867H120.714V1.95166C115.455 1.95166 110.197 1.95166 104.938 1.95166V39.8867H106.765Z" fill="#073BA1"/>
<path d="M138.769 1.34863C138.272 1.95165 137.828 2.55466 137.331 3.15768C134.009 15.3825 130.687 27.6072 127.422 39.8867H128.363C129.636 35.1723 130.909 30.5126 132.182 25.853H143.475C144.748 30.5126 146.021 35.1723 147.239 39.8867H149.176C145.744 27.059 142.257 14.1764 138.769 1.34863ZM132.404 24.921L137.828 4.96672L143.198 24.921H132.404Z" fill="#073BA1"/>
<path fill-rule="evenodd" clip-rule="evenodd" d="M70.3243 2.45118L70.3289 2.44923C72.8351 1.37743 75.6279 0.756119 78.5372 0.756119C89.774 0.756119 98.8413 9.79457 98.8413 20.919C98.8413 32.0455 89.7718 41.027 78.5372 41.027C73.5176 41.027 68.9548 39.2188 65.4212 36.2837L64.9795 35.9169L65.3333 35.4662C65.7338 34.9564 66.1325 34.5054 66.5762 34.0111L66.9682 33.5744L67.4145 33.9565C74.5603 40.0758 84.9974 39.9966 91.3991 33.6568L91.4013 33.6544L91.4042 33.652C93.502 31.6228 94.8901 29.1007 95.6445 26.445H86.354L86.1762 26.1813C86.0474 25.9897 85.912 25.8378 85.7452 25.6501C85.6537 25.5481 85.5535 25.4354 85.4393 25.3L84.622 24.3285H96.0762C96.9008 18.9567 95.0642 13.124 90.734 8.78291C84.9857 3.09166 76.5169 1.83226 70.0031 5.05771C68.7228 5.69168 67.5496 6.48383 66.4823 7.43508L65.7534 8.08479L65.1286 5.73331L65.4296 5.49248C66.8994 4.31684 68.5478 3.24571 70.3198 2.45319L70.3243 2.45118ZM91.1576 8.3653C95.752 12.9702 97.634 19.2196 96.5825 24.9208H85.8989C85.9874 25.0257 86.0759 25.125 86.1623 25.2223C86.2486 25.3201 86.3342 25.4158 86.4154 25.5131C86.5069 25.6226 86.594 25.7341 86.6737 25.8528H96.4164C96.3689 26.0507 96.3184 26.2482 96.265 26.445C95.4967 29.2467 94.0457 31.9244 91.822 34.0757C85.1796 40.654 74.3854 40.7088 67.0232 34.4046C66.5804 34.898 66.193 35.3365 65.8054 35.8299C69.2374 38.6805 73.6654 40.4347 78.5372 40.4347C89.4418 40.4347 98.2428 31.7184 98.2428 20.919C98.2428 10.1195 89.4418 1.34842 78.5372 1.34842C75.7142 1.34842 73.0015 1.95143 70.5659 2.993C68.8499 3.76047 67.2446 4.80204 65.8054 5.95326L66.0823 6.99482C66.2477 6.84734 66.4156 6.70355 66.586 6.56342C67.5558 5.76595 68.6057 5.08746 69.7356 4.52795C76.4891 1.18395 85.2345 2.49963 91.1576 8.3653ZM107.363 40.4788H104.34V1.35913H121.313V40.4788H118.234V3.47566H107.363V40.4788ZM106.765 39.8865H104.939V1.95143H120.714V39.8865H118.832V2.88336H106.765V39.8865ZM139.044 0.0805664L139.347 1.19443C142.834 14.0225 146.322 26.906 149.754 39.7349L149.953 40.4788H146.774L146.659 40.0333C145.48 35.4709 144.25 30.9592 143.017 26.445H132.64C131.407 30.9589 130.174 35.4736 128.941 40.0396L128.822 40.4788H126.645L126.844 39.7357C130.109 27.4557 133.431 15.2309 136.752 3.00774L136.753 3.00357L136.786 2.88079L136.867 2.78239C137.11 2.48829 137.341 2.19326 137.576 1.89078L137.579 1.88826C137.812 1.58852 138.052 1.2814 138.307 0.973351L139.044 0.0805664ZM132.182 25.8528H143.475C144.748 30.5124 146.021 35.172 147.239 39.8865H149.176C149.123 39.6891 149.07 39.4917 149.017 39.2942C145.7 26.8984 142.331 14.453 138.962 2.05679C138.898 1.82065 138.833 1.58453 138.769 1.34842C138.611 1.54047 138.457 1.73253 138.307 1.92459C138.22 2.03404 138.135 2.14349 138.05 2.25294C137.814 2.55445 137.579 2.85595 137.33 3.15746C134.062 15.1857 130.794 27.2139 127.579 39.2942C127.527 39.4917 127.474 39.6891 127.422 39.8865H128.363C129.635 35.174 130.908 30.5162 132.181 25.8586L132.182 25.8528ZM132.404 24.9208H143.197L137.828 4.9665L132.404 24.9208ZM137.825 7.25573L133.184 24.3285H142.42L137.825 7.25573Z" fill="#073BA1"/>
</g>
<defs>
<clipPath id="clip0_4366_18">
<rect width="150" height="50" fill="white"/>
</clipPath>
</defs>
</svg>
