<svg width="502" height="24" viewBox="0 0 502 24" fill="none" xmlns="http://www.w3.org/2000/svg">
<path d="M1.76 17C1.65333 17 1.56267 16.968 1.488 16.904C1.424 16.8293 1.392 16.7387 1.392 16.632V6.184C1.392 6.06667 1.424 5.976 1.488 5.912C1.56267 5.83733 1.65333 5.8 1.76 5.8H2.56C2.688 5.8 2.784 5.832 2.848 5.896C2.912 5.96 2.94933 6.01333 2.96 6.056L6.352 12.52L9.76 6.056C9.78133 6.01333 9.81867 5.96 9.872 5.896C9.936 5.832 10.032 5.8 10.16 5.8H10.944C11.0613 5.8 11.152 5.83733 11.216 5.912C11.2907 5.976 11.328 6.06667 11.328 6.184V16.632C11.328 16.7387 11.2907 16.8293 11.216 16.904C11.152 16.968 11.0613 17 10.944 17H10.16C10.0533 17 9.96267 16.968 9.888 16.904C9.824 16.8293 9.792 16.7387 9.792 16.632V8.76L7.12 13.976C7.07733 14.0827 7.01333 14.168 6.928 14.232C6.84267 14.2853 6.736 14.312 6.608 14.312H6.112C5.97333 14.312 5.86133 14.2853 5.776 14.232C5.70133 14.168 5.63733 14.0827 5.584 13.976L2.912 8.76V16.632C2.912 16.7387 2.87467 16.8293 2.8 16.904C2.736 16.968 2.65067 17 2.544 17H1.76ZM17.2951 17.16C16.4845 17.16 15.8071 17.0053 15.2631 16.696C14.7191 16.3867 14.3031 15.96 14.0151 15.416C13.7271 14.8613 13.5671 14.232 13.5351 13.528C13.5245 13.3467 13.5191 13.1173 13.5191 12.84C13.5191 12.552 13.5245 12.3227 13.5351 12.152C13.5671 11.4373 13.7271 10.808 14.0151 10.264C14.3138 9.72 14.7351 9.29333 15.2791 8.984C15.8231 8.67467 16.4951 8.52 17.2951 8.52C18.0951 8.52 18.7671 8.67467 19.3111 8.984C19.8551 9.29333 20.2711 9.72 20.5591 10.264C20.8578 10.808 21.0231 11.4373 21.0551 12.152C21.0658 12.3227 21.0711 12.552 21.0711 12.84C21.0711 13.1173 21.0658 13.3467 21.0551 13.528C21.0231 14.232 20.8631 14.8613 20.5751 15.416C20.2871 15.96 19.8711 16.3867 19.3271 16.696C18.7831 17.0053 18.1058 17.16 17.2951 17.16ZM17.2951 15.928C17.9565 15.928 18.4845 15.72 18.8791 15.304C19.2738 14.8773 19.4871 14.2587 19.5191 13.448C19.5298 13.288 19.5351 13.0853 19.5351 12.84C19.5351 12.5947 19.5298 12.392 19.5191 12.232C19.4871 11.4213 19.2738 10.808 18.8791 10.392C18.4845 9.96533 17.9565 9.752 17.2951 9.752C16.6338 9.752 16.1005 9.96533 15.6951 10.392C15.3005 10.808 15.0925 11.4213 15.0711 12.232C15.0605 12.392 15.0551 12.5947 15.0551 12.84C15.0551 13.0853 15.0605 13.288 15.0711 13.448C15.0925 14.2587 15.3005 14.8773 15.6951 15.304C16.1005 15.72 16.6338 15.928 17.2951 15.928ZM23.4266 17C23.3306 17 23.2453 16.968 23.1706 16.904C23.1066 16.8293 23.0746 16.7493 23.0746 16.664V9.048C23.0746 8.94133 23.1066 8.856 23.1706 8.792C23.2453 8.71733 23.336 8.68 23.4426 8.68H24.2106C24.3173 8.68 24.4026 8.71733 24.4666 8.792C24.5306 8.856 24.5626 8.94133 24.5626 9.048V15.832L24.1466 15.4L28.9946 8.92C29.048 8.856 29.1066 8.80267 29.1706 8.76C29.2346 8.70667 29.3146 8.68 29.4106 8.68H30.1466C30.232 8.68 30.3066 8.712 30.3706 8.776C30.4453 8.84 30.4826 8.91467 30.4826 9V16.632C30.4826 16.7387 30.4453 16.8293 30.3706 16.904C30.3066 16.968 30.2213 17 30.1146 17H29.3626C29.2453 17 29.1546 16.968 29.0906 16.904C29.0266 16.8293 28.9946 16.7387 28.9946 16.632V10.248L29.4426 10.232L24.5626 16.76C24.52 16.8133 24.4666 16.8667 24.4026 16.92C24.3386 16.9733 24.2533 17 24.1466 17H23.4266ZM39.6425 17.16C39.0132 17.16 38.4798 17.0853 38.0425 16.936C37.6158 16.776 37.2692 16.5787 37.0025 16.344C36.7465 16.0987 36.5598 15.848 36.4425 15.592C36.3252 15.3253 36.2612 15.08 36.2505 14.856C36.2505 14.76 36.2825 14.6853 36.3465 14.632C36.4105 14.568 36.4852 14.536 36.5705 14.536H37.3225C37.4185 14.536 37.4985 14.5627 37.5625 14.616C37.6265 14.6587 37.6745 14.7387 37.7065 14.856C37.8345 15.2613 38.0798 15.544 38.4425 15.704C38.8052 15.864 39.2478 15.944 39.7705 15.944C40.1118 15.944 40.4265 15.9013 40.7145 15.816C41.0025 15.72 41.2265 15.5707 41.3865 15.368C41.5572 15.1653 41.6425 14.9147 41.6425 14.616C41.6425 14.1787 41.5145 13.848 41.2585 13.624C41.0132 13.4 40.6292 13.288 40.1065 13.288H39.2265C39.1198 13.288 39.0345 13.256 38.9705 13.192C38.9065 13.128 38.8745 13.0427 38.8745 12.936V12.504C38.8745 12.408 38.9065 12.328 38.9705 12.264C39.0345 12.1893 39.1198 12.152 39.2265 12.152H40.0105C40.4478 12.152 40.7838 12.0667 41.0185 11.896C41.2532 11.7253 41.3705 11.4533 41.3705 11.08C41.3705 10.856 41.3172 10.6427 41.2105 10.44C41.1038 10.2373 40.9225 10.072 40.6665 9.944C40.4212 9.80533 40.0798 9.736 39.6425 9.736C39.0238 9.736 38.5865 9.84267 38.3305 10.056C38.0852 10.2587 37.9092 10.5627 37.8025 10.968C37.7598 11.0853 37.7065 11.1653 37.6425 11.208C37.5892 11.2507 37.5092 11.272 37.4025 11.272H36.6825C36.5865 11.272 36.5065 11.2453 36.4425 11.192C36.3785 11.1387 36.3465 11.064 36.3465 10.968C36.3572 10.648 36.4265 10.344 36.5545 10.056C36.6932 9.768 36.8958 9.50667 37.1625 9.272C37.4398 9.03733 37.7812 8.856 38.1865 8.728C38.6025 8.58933 39.0878 8.52 39.6425 8.52C40.4425 8.52 41.0718 8.64267 41.5305 8.888C41.9998 9.13333 42.3305 9.43733 42.5225 9.8C42.7252 10.152 42.8265 10.504 42.8265 10.856C42.8265 11.272 42.7572 11.6187 42.6185 11.896C42.4905 12.1733 42.2345 12.408 41.8505 12.6C42.3305 12.7813 42.6612 13.0533 42.8425 13.416C43.0238 13.7787 43.1198 14.2 43.1305 14.68C43.1412 15.2347 42.9918 15.6933 42.6825 16.056C42.3838 16.4187 41.9732 16.696 41.4505 16.888C40.9278 17.0693 40.3252 17.16 39.6425 17.16ZM47.254 17.16C46.7207 17.16 46.2353 17.0533 45.798 16.84C45.3607 16.6267 45.0087 16.3387 44.742 15.976C44.4753 15.6133 44.342 15.2027 44.342 14.744C44.342 14.008 44.6407 13.4213 45.238 12.984C45.8353 12.5467 46.614 12.2587 47.574 12.12L49.958 11.784V11.32C49.958 10.808 49.8087 10.408 49.51 10.12C49.222 9.832 48.7473 9.688 48.086 9.688C47.606 9.688 47.2167 9.784 46.918 9.976C46.63 10.168 46.4273 10.4133 46.31 10.712C46.246 10.872 46.134 10.952 45.974 10.952H45.254C45.1367 10.952 45.046 10.92 44.982 10.856C44.9287 10.7813 44.902 10.696 44.902 10.6C44.902 10.44 44.9607 10.2427 45.078 10.008C45.206 9.77333 45.398 9.544 45.654 9.32C45.91 9.096 46.2353 8.90933 46.63 8.76C47.0353 8.6 47.526 8.52 48.102 8.52C48.742 8.52 49.2807 8.60533 49.718 8.776C50.1553 8.936 50.4967 9.15467 50.742 9.432C50.998 9.70933 51.1793 10.024 51.286 10.376C51.4033 10.728 51.462 11.0853 51.462 11.448V16.632C51.462 16.7387 51.4247 16.8293 51.35 16.904C51.286 16.968 51.2007 17 51.094 17H50.358C50.2407 17 50.15 16.968 50.086 16.904C50.022 16.8293 49.99 16.7387 49.99 16.632V15.944C49.8513 16.136 49.6647 16.328 49.43 16.52C49.1953 16.7013 48.902 16.856 48.55 16.984C48.198 17.1013 47.766 17.16 47.254 17.16ZM47.59 15.96C48.0273 15.96 48.4273 15.8693 48.79 15.688C49.1527 15.496 49.4353 15.2027 49.638 14.808C49.8513 14.4133 49.958 13.9173 49.958 13.32V12.872L48.102 13.144C47.3447 13.2507 46.774 13.432 46.39 13.688C46.006 13.9333 45.814 14.248 45.814 14.632C45.814 14.9307 45.8993 15.1813 46.07 15.384C46.2513 15.576 46.4753 15.72 46.742 15.816C47.0193 15.912 47.302 15.96 47.59 15.96ZM54.1301 17C54.0235 17 53.9328 16.968 53.8581 16.904C53.7941 16.8293 53.7621 16.7387 53.7621 16.632V9.048C53.7621 8.94133 53.7941 8.856 53.8581 8.792C53.9328 8.71733 54.0235 8.68 54.1301 8.68H54.8821C54.9888 8.68 55.0741 8.71733 55.1381 8.792C55.2128 8.856 55.2501 8.94133 55.2501 9.048V12.12H56.7061L58.8661 8.92C58.9195 8.84533 58.9781 8.78667 59.0421 8.744C59.1061 8.70133 59.1915 8.68 59.2981 8.68H60.1301C60.2261 8.68 60.3061 8.70133 60.3701 8.744C60.4341 8.78667 60.4661 8.85067 60.4661 8.936C60.4661 8.95733 60.4555 8.98933 60.4341 9.032C60.4235 9.064 60.4075 9.096 60.3861 9.128L57.9861 12.664L60.7061 16.536C60.7595 16.6 60.7861 16.6693 60.7861 16.744C60.7861 16.8293 60.7541 16.8933 60.6901 16.936C60.6368 16.9787 60.5621 17 60.4661 17H59.4901C59.3941 17 59.3141 16.9787 59.2501 16.936C59.1861 16.8933 59.1275 16.8347 59.0741 16.76L56.7221 13.416H55.2501V16.632C55.2501 16.7387 55.2128 16.8293 55.1381 16.904C55.0741 16.968 54.9888 17 54.8821 17H54.1301ZM64.6603 17.16C64.1269 17.16 63.6416 17.0533 63.2043 16.84C62.7669 16.6267 62.4149 16.3387 62.1483 15.976C61.8816 15.6133 61.7483 15.2027 61.7483 14.744C61.7483 14.008 62.0469 13.4213 62.6443 12.984C63.2416 12.5467 64.0203 12.2587 64.9803 12.12L67.3643 11.784V11.32C67.3643 10.808 67.2149 10.408 66.9163 10.12C66.6283 9.832 66.1536 9.688 65.4923 9.688C65.0123 9.688 64.6229 9.784 64.3243 9.976C64.0363 10.168 63.8336 10.4133 63.7163 10.712C63.6523 10.872 63.5403 10.952 63.3803 10.952H62.6603C62.5429 10.952 62.4523 10.92 62.3883 10.856C62.3349 10.7813 62.3083 10.696 62.3083 10.6C62.3083 10.44 62.3669 10.2427 62.4843 10.008C62.6123 9.77333 62.8043 9.544 63.0603 9.32C63.3163 9.096 63.6416 8.90933 64.0363 8.76C64.4416 8.6 64.9323 8.52 65.5083 8.52C66.1483 8.52 66.6869 8.60533 67.1243 8.776C67.5616 8.936 67.9029 9.15467 68.1483 9.432C68.4043 9.70933 68.5856 10.024 68.6923 10.376C68.8096 10.728 68.8683 11.0853 68.8683 11.448V16.632C68.8683 16.7387 68.8309 16.8293 68.7563 16.904C68.6923 16.968 68.6069 17 68.5003 17H67.7643C67.6469 17 67.5563 16.968 67.4923 16.904C67.4283 16.8293 67.3963 16.7387 67.3963 16.632V15.944C67.2576 16.136 67.0709 16.328 66.8363 16.52C66.6016 16.7013 66.3083 16.856 65.9563 16.984C65.6043 17.1013 65.1723 17.16 64.6603 17.16ZM64.9963 15.96C65.4336 15.96 65.8336 15.8693 66.1963 15.688C66.5589 15.496 66.8416 15.2027 67.0443 14.808C67.2576 14.4133 67.3643 13.9173 67.3643 13.32V12.872L65.5083 13.144C64.7509 13.2507 64.1803 13.432 63.7963 13.688C63.4123 13.9333 63.2203 14.248 63.2203 14.632C63.2203 14.9307 63.3056 15.1813 63.4763 15.384C63.6576 15.576 63.8816 15.72 64.1483 15.816C64.4256 15.912 64.7083 15.96 64.9963 15.96ZM74.0644 17.16C73.435 17.16 72.9017 17.0853 72.4644 16.936C72.0377 16.776 71.691 16.5787 71.4244 16.344C71.1684 16.0987 70.9817 15.848 70.8644 15.592C70.747 15.3253 70.683 15.08 70.6724 14.856C70.6724 14.76 70.7044 14.6853 70.7684 14.632C70.8324 14.568 70.907 14.536 70.9924 14.536H71.7444C71.8404 14.536 71.9204 14.5627 71.9844 14.616C72.0484 14.6587 72.0964 14.7387 72.1284 14.856C72.2564 15.2613 72.5017 15.544 72.8644 15.704C73.227 15.864 73.6697 15.944 74.1924 15.944C74.5337 15.944 74.8484 15.9013 75.1364 15.816C75.4244 15.72 75.6484 15.5707 75.8084 15.368C75.979 15.1653 76.0644 14.9147 76.0644 14.616C76.0644 14.1787 75.9364 13.848 75.6804 13.624C75.435 13.4 75.051 13.288 74.5284 13.288H73.6484C73.5417 13.288 73.4564 13.256 73.3924 13.192C73.3284 13.128 73.2964 13.0427 73.2964 12.936V12.504C73.2964 12.408 73.3284 12.328 73.3924 12.264C73.4564 12.1893 73.5417 12.152 73.6484 12.152H74.4324C74.8697 12.152 75.2057 12.0667 75.4404 11.896C75.675 11.7253 75.7924 11.4533 75.7924 11.08C75.7924 10.856 75.739 10.6427 75.6324 10.44C75.5257 10.2373 75.3444 10.072 75.0884 9.944C74.843 9.80533 74.5017 9.736 74.0644 9.736C73.4457 9.736 73.0084 9.84267 72.7524 10.056C72.507 10.2587 72.331 10.5627 72.2244 10.968C72.1817 11.0853 72.1284 11.1653 72.0644 11.208C72.011 11.2507 71.931 11.272 71.8244 11.272H71.1044C71.0084 11.272 70.9284 11.2453 70.8644 11.192C70.8004 11.1387 70.7684 11.064 70.7684 10.968C70.779 10.648 70.8484 10.344 70.9764 10.056C71.115 9.768 71.3177 9.50667 71.5844 9.272C71.8617 9.03733 72.203 8.856 72.6084 8.728C73.0244 8.58933 73.5097 8.52 74.0644 8.52C74.8644 8.52 75.4937 8.64267 75.9524 8.888C76.4217 9.13333 76.7524 9.43733 76.9444 9.8C77.147 10.152 77.2484 10.504 77.2484 10.856C77.2484 11.272 77.179 11.6187 77.0404 11.896C76.9124 12.1733 76.6564 12.408 76.2724 12.6C76.7524 12.7813 77.083 13.0533 77.2644 13.416C77.4457 13.7787 77.5417 14.2 77.5524 14.68C77.563 15.2347 77.4137 15.6933 77.1044 16.056C76.8057 16.4187 76.395 16.696 75.8724 16.888C75.3497 17.0693 74.747 17.16 74.0644 17.16ZM79.7239 17C79.6172 17 79.5265 16.968 79.4519 16.904C79.3879 16.8293 79.3559 16.7387 79.3559 16.632V9.048C79.3559 8.94133 79.3879 8.856 79.4519 8.792C79.5265 8.71733 79.6172 8.68 79.7239 8.68H80.4919C80.5985 8.68 80.6839 8.71733 80.7479 8.792C80.8225 8.856 80.8599 8.94133 80.8599 9.048V11.4H82.5239C83.6119 11.4 84.4065 11.656 84.9079 12.168C85.4092 12.68 85.6599 13.3733 85.6599 14.248C85.6599 15.1867 85.3825 15.88 84.8279 16.328C84.2732 16.776 83.4412 17 82.3319 17H79.7239ZM80.8439 15.8H82.3799C83.0305 15.8 83.5052 15.688 83.8039 15.464C84.1025 15.2293 84.2519 14.824 84.2519 14.248C84.2519 13.6933 84.1079 13.2827 83.8199 13.016C83.5319 12.7387 83.0519 12.6 82.3799 12.6H80.8439V15.8ZM87.1639 17C87.0572 17 86.9665 16.968 86.8919 16.904C86.8279 16.8293 86.7959 16.7387 86.7959 16.632V9.048C86.7959 8.94133 86.8279 8.856 86.8919 8.792C86.9665 8.71733 87.0572 8.68 87.1639 8.68H87.9319C88.0385 8.68 88.1239 8.71733 88.1879 8.792C88.2625 8.856 88.2999 8.94133 88.2999 9.048V16.632C88.2999 16.7387 88.2625 16.8293 88.1879 16.904C88.1239 16.968 88.0385 17 87.9319 17H87.1639Z" fill="#073BA1"/>
<path d="M114.768 17.16C114.117 17.16 113.541 17.0853 113.04 16.936C112.539 16.7867 112.117 16.584 111.776 16.328C111.435 16.0613 111.163 15.7573 110.96 15.416C110.768 15.0747 110.656 14.7067 110.624 14.312C110.613 14.216 110.64 14.1413 110.704 14.088C110.779 14.0347 110.864 14.008 110.96 14.008H111.76C111.856 14.008 111.941 14.0293 112.016 14.072C112.101 14.1147 112.165 14.2053 112.208 14.344C112.336 14.7707 112.613 15.1227 113.04 15.4C113.467 15.6667 114.037 15.8 114.752 15.8C115.253 15.8 115.707 15.7253 116.112 15.576C116.517 15.416 116.843 15.192 117.088 14.904C117.333 14.6053 117.456 14.248 117.456 13.832C117.456 13.2027 117.227 12.7173 116.768 12.376C116.32 12.024 115.707 11.848 114.928 11.848H113.776C113.669 11.848 113.584 11.816 113.52 11.752C113.456 11.6773 113.424 11.5867 113.424 11.48V10.92C113.424 10.8027 113.456 10.712 113.52 10.648C113.584 10.5733 113.669 10.536 113.776 10.536H114.864C115.525 10.536 116.059 10.392 116.464 10.104C116.88 9.816 117.088 9.35733 117.088 8.728C117.088 8.376 116.981 8.072 116.768 7.816C116.565 7.56 116.293 7.36267 115.952 7.224C115.611 7.07467 115.227 7 114.8 7C114.149 7 113.605 7.11733 113.168 7.352C112.731 7.58667 112.459 7.96533 112.352 8.488C112.32 8.60533 112.272 8.69067 112.208 8.744C112.144 8.78667 112.064 8.808 111.968 8.808H111.104C111.008 8.808 110.923 8.776 110.848 8.712C110.784 8.648 110.757 8.568 110.768 8.472C110.8 8.06667 110.912 7.69333 111.104 7.352C111.296 7 111.557 6.696 111.888 6.44C112.229 6.184 112.645 5.98667 113.136 5.848C113.627 5.70933 114.187 5.64 114.816 5.64C115.68 5.64 116.395 5.784 116.96 6.072C117.525 6.36 117.952 6.73333 118.24 7.192C118.528 7.64 118.672 8.12533 118.672 8.648C118.672 8.968 118.629 9.28267 118.544 9.592C118.469 9.90133 118.336 10.184 118.144 10.44C117.963 10.696 117.712 10.92 117.392 11.112C117.776 11.2933 118.085 11.528 118.32 11.816C118.565 12.0933 118.747 12.408 118.864 12.76C118.992 13.1013 119.056 13.4693 119.056 13.864C119.056 14.5147 118.88 15.0853 118.528 15.576C118.187 16.0667 117.696 16.456 117.056 16.744C116.416 17.0213 115.653 17.16 114.768 17.16ZM123.442 17.16C122.908 17.16 122.423 17.0533 121.986 16.84C121.548 16.6267 121.196 16.3387 120.93 15.976C120.663 15.6133 120.53 15.2027 120.53 14.744C120.53 14.008 120.828 13.4213 121.426 12.984C122.023 12.5467 122.802 12.2587 123.762 12.12L126.146 11.784V11.32C126.146 10.808 125.996 10.408 125.698 10.12C125.41 9.832 124.935 9.688 124.274 9.688C123.794 9.688 123.404 9.784 123.106 9.976C122.818 10.168 122.615 10.4133 122.498 10.712C122.434 10.872 122.322 10.952 122.162 10.952H121.442C121.324 10.952 121.234 10.92 121.17 10.856C121.116 10.7813 121.09 10.696 121.09 10.6C121.09 10.44 121.148 10.2427 121.266 10.008C121.394 9.77333 121.586 9.544 121.842 9.32C122.098 9.096 122.423 8.90933 122.818 8.76C123.223 8.6 123.714 8.52 124.29 8.52C124.93 8.52 125.468 8.60533 125.906 8.776C126.343 8.936 126.684 9.15467 126.93 9.432C127.186 9.70933 127.367 10.024 127.474 10.376C127.591 10.728 127.65 11.0853 127.65 11.448V16.632C127.65 16.7387 127.612 16.8293 127.538 16.904C127.474 16.968 127.388 17 127.282 17H126.546C126.428 17 126.338 16.968 126.274 16.904C126.21 16.8293 126.178 16.7387 126.178 16.632V15.944C126.039 16.136 125.852 16.328 125.618 16.52C125.383 16.7013 125.09 16.856 124.738 16.984C124.386 17.1013 123.954 17.16 123.442 17.16ZM123.778 15.96C124.215 15.96 124.615 15.8693 124.978 15.688C125.34 15.496 125.623 15.2027 125.826 14.808C126.039 14.4133 126.146 13.9173 126.146 13.32V12.872L124.29 13.144C123.532 13.2507 122.962 13.432 122.578 13.688C122.194 13.9333 122.002 14.248 122.002 14.632C122.002 14.9307 122.087 15.1813 122.258 15.384C122.439 15.576 122.663 15.72 122.93 15.816C123.207 15.912 123.49 15.96 123.778 15.96ZM130.318 17C130.211 17 130.12 16.968 130.046 16.904C129.982 16.8293 129.95 16.7387 129.95 16.632V9.048C129.95 8.94133 129.982 8.856 130.046 8.792C130.12 8.71733 130.211 8.68 130.318 8.68H131.07C131.176 8.68 131.262 8.71733 131.326 8.792C131.4 8.856 131.438 8.94133 131.438 9.048V12.12H132.894L135.054 8.92C135.107 8.84533 135.166 8.78667 135.23 8.744C135.294 8.70133 135.379 8.68 135.486 8.68H136.318C136.414 8.68 136.494 8.70133 136.558 8.744C136.622 8.78667 136.654 8.85067 136.654 8.936C136.654 8.95733 136.643 8.98933 136.622 9.032C136.611 9.064 136.595 9.096 136.574 9.128L134.174 12.664L136.894 16.536C136.947 16.6 136.974 16.6693 136.974 16.744C136.974 16.8293 136.942 16.8933 136.878 16.936C136.824 16.9787 136.75 17 136.654 17H135.678C135.582 17 135.502 16.9787 135.438 16.936C135.374 16.8933 135.315 16.8347 135.262 16.76L132.91 13.416H131.438V16.632C131.438 16.7387 131.4 16.8293 131.326 16.904C131.262 16.968 131.176 17 131.07 17H130.318ZM140.848 17.16C140.314 17.16 139.829 17.0533 139.392 16.84C138.954 16.6267 138.602 16.3387 138.336 15.976C138.069 15.6133 137.936 15.2027 137.936 14.744C137.936 14.008 138.234 13.4213 138.832 12.984C139.429 12.5467 140.208 12.2587 141.168 12.12L143.552 11.784V11.32C143.552 10.808 143.402 10.408 143.104 10.12C142.816 9.832 142.341 9.688 141.68 9.688C141.2 9.688 140.81 9.784 140.512 9.976C140.224 10.168 140.021 10.4133 139.904 10.712C139.84 10.872 139.728 10.952 139.568 10.952H138.848C138.73 10.952 138.64 10.92 138.576 10.856C138.522 10.7813 138.496 10.696 138.496 10.6C138.496 10.44 138.554 10.2427 138.672 10.008C138.8 9.77333 138.992 9.544 139.248 9.32C139.504 9.096 139.829 8.90933 140.224 8.76C140.629 8.6 141.12 8.52 141.696 8.52C142.336 8.52 142.874 8.60533 143.312 8.776C143.749 8.936 144.09 9.15467 144.336 9.432C144.592 9.70933 144.773 10.024 144.88 10.376C144.997 10.728 145.056 11.0853 145.056 11.448V16.632C145.056 16.7387 145.018 16.8293 144.944 16.904C144.88 16.968 144.794 17 144.688 17H143.952C143.834 17 143.744 16.968 143.68 16.904C143.616 16.8293 143.584 16.7387 143.584 16.632V15.944C143.445 16.136 143.258 16.328 143.024 16.52C142.789 16.7013 142.496 16.856 142.144 16.984C141.792 17.1013 141.36 17.16 140.848 17.16ZM141.184 15.96C141.621 15.96 142.021 15.8693 142.384 15.688C142.746 15.496 143.029 15.2027 143.232 14.808C143.445 14.4133 143.552 13.9173 143.552 13.32V12.872L141.696 13.144C140.938 13.2507 140.368 13.432 139.984 13.688C139.6 13.9333 139.408 14.248 139.408 14.632C139.408 14.9307 139.493 15.1813 139.664 15.384C139.845 15.576 140.069 15.72 140.336 15.816C140.613 15.912 140.896 15.96 141.184 15.96ZM150.252 17.16C149.623 17.16 149.089 17.0853 148.652 16.936C148.225 16.776 147.879 16.5787 147.612 16.344C147.356 16.0987 147.169 15.848 147.052 15.592C146.935 15.3253 146.871 15.08 146.86 14.856C146.86 14.76 146.892 14.6853 146.956 14.632C147.02 14.568 147.095 14.536 147.18 14.536H147.932C148.028 14.536 148.108 14.5627 148.172 14.616C148.236 14.6587 148.284 14.7387 148.316 14.856C148.444 15.2613 148.689 15.544 149.052 15.704C149.415 15.864 149.857 15.944 150.38 15.944C150.721 15.944 151.036 15.9013 151.324 15.816C151.612 15.72 151.836 15.5707 151.996 15.368C152.167 15.1653 152.252 14.9147 152.252 14.616C152.252 14.1787 152.124 13.848 151.868 13.624C151.623 13.4 151.239 13.288 150.716 13.288H149.836C149.729 13.288 149.644 13.256 149.58 13.192C149.516 13.128 149.484 13.0427 149.484 12.936V12.504C149.484 12.408 149.516 12.328 149.58 12.264C149.644 12.1893 149.729 12.152 149.836 12.152H150.62C151.057 12.152 151.393 12.0667 151.628 11.896C151.863 11.7253 151.98 11.4533 151.98 11.08C151.98 10.856 151.927 10.6427 151.82 10.44C151.713 10.2373 151.532 10.072 151.276 9.944C151.031 9.80533 150.689 9.736 150.252 9.736C149.633 9.736 149.196 9.84267 148.94 10.056C148.695 10.2587 148.519 10.5627 148.412 10.968C148.369 11.0853 148.316 11.1653 148.252 11.208C148.199 11.2507 148.119 11.272 148.012 11.272H147.292C147.196 11.272 147.116 11.2453 147.052 11.192C146.988 11.1387 146.956 11.064 146.956 10.968C146.967 10.648 147.036 10.344 147.164 10.056C147.303 9.768 147.505 9.50667 147.772 9.272C148.049 9.03733 148.391 8.856 148.796 8.728C149.212 8.58933 149.697 8.52 150.252 8.52C151.052 8.52 151.681 8.64267 152.14 8.888C152.609 9.13333 152.94 9.43733 153.132 9.8C153.335 10.152 153.436 10.504 153.436 10.856C153.436 11.272 153.367 11.6187 153.228 11.896C153.1 12.1733 152.844 12.408 152.46 12.6C152.94 12.7813 153.271 13.0533 153.452 13.416C153.633 13.7787 153.729 14.2 153.74 14.68C153.751 15.2347 153.601 15.6933 153.292 16.056C152.993 16.4187 152.583 16.696 152.06 16.888C151.537 17.0693 150.935 17.16 150.252 17.16ZM157.863 17.16C157.33 17.16 156.845 17.0533 156.407 16.84C155.97 16.6267 155.618 16.3387 155.351 15.976C155.085 15.6133 154.951 15.2027 154.951 14.744C154.951 14.008 155.25 13.4213 155.847 12.984C156.445 12.5467 157.223 12.2587 158.183 12.12L160.567 11.784V11.32C160.567 10.808 160.418 10.408 160.119 10.12C159.831 9.832 159.357 9.688 158.695 9.688C158.215 9.688 157.826 9.784 157.527 9.976C157.239 10.168 157.037 10.4133 156.919 10.712C156.855 10.872 156.743 10.952 156.583 10.952H155.863C155.746 10.952 155.655 10.92 155.591 10.856C155.538 10.7813 155.511 10.696 155.511 10.6C155.511 10.44 155.57 10.2427 155.687 10.008C155.815 9.77333 156.007 9.544 156.263 9.32C156.519 9.096 156.845 8.90933 157.239 8.76C157.645 8.6 158.135 8.52 158.711 8.52C159.351 8.52 159.89 8.60533 160.327 8.776C160.765 8.936 161.106 9.15467 161.351 9.432C161.607 9.70933 161.789 10.024 161.895 10.376C162.013 10.728 162.071 11.0853 162.071 11.448V16.632C162.071 16.7387 162.034 16.8293 161.959 16.904C161.895 16.968 161.81 17 161.703 17H160.967C160.85 17 160.759 16.968 160.695 16.904C160.631 16.8293 160.599 16.7387 160.599 16.632V15.944C160.461 16.136 160.274 16.328 160.039 16.52C159.805 16.7013 159.511 16.856 159.159 16.984C158.807 17.1013 158.375 17.16 157.863 17.16ZM158.199 15.96C158.637 15.96 159.037 15.8693 159.399 15.688C159.762 15.496 160.045 15.2027 160.247 14.808C160.461 14.4133 160.567 13.9173 160.567 13.32V12.872L158.711 13.144C157.954 13.2507 157.383 13.432 156.999 13.688C156.615 13.9333 156.423 14.248 156.423 14.632C156.423 14.9307 156.509 15.1813 156.679 15.384C156.861 15.576 157.085 15.72 157.351 15.816C157.629 15.912 157.911 15.96 158.199 15.96ZM166.916 17C166.809 17 166.718 16.968 166.644 16.904C166.58 16.8293 166.548 16.7387 166.548 16.632V9.96H163.764C163.657 9.96 163.566 9.928 163.492 9.864C163.428 9.78933 163.396 9.69867 163.396 9.592V9.048C163.396 8.94133 163.428 8.856 163.492 8.792C163.566 8.71733 163.657 8.68 163.764 8.68H170.804C170.91 8.68 170.996 8.71733 171.06 8.792C171.134 8.856 171.172 8.94133 171.172 9.048V9.592C171.172 9.69867 171.134 9.78933 171.06 9.864C170.996 9.928 170.91 9.96 170.804 9.96H168.02V16.632C168.02 16.7387 167.988 16.8293 167.924 16.904C167.86 16.968 167.769 17 167.652 17H166.916ZM172.927 17C172.82 17 172.73 16.968 172.655 16.904C172.591 16.8293 172.559 16.7387 172.559 16.632V9.048C172.559 8.94133 172.591 8.856 172.655 8.792C172.73 8.71733 172.82 8.68 172.927 8.68H173.695C173.802 8.68 173.887 8.71733 173.951 8.792C174.026 8.856 174.063 8.94133 174.063 9.048V11.4H175.855C176.943 11.4 177.738 11.656 178.239 12.168C178.74 12.68 178.991 13.3733 178.991 14.248C178.991 15.1867 178.714 15.88 178.159 16.328C177.604 16.776 176.772 17 175.663 17H172.927ZM174.047 15.8H175.727C176.367 15.8 176.836 15.688 177.135 15.464C177.434 15.2293 177.583 14.824 177.583 14.248C177.583 13.6933 177.439 13.2827 177.151 13.016C176.863 12.7387 176.388 12.6 175.727 12.6H174.047V15.8ZM187.905 17.16C187.094 17.16 186.417 17.0053 185.873 16.696C185.329 16.3867 184.913 15.96 184.625 15.416C184.337 14.8613 184.177 14.232 184.145 13.528C184.134 13.3467 184.129 13.1173 184.129 12.84C184.129 12.552 184.134 12.3227 184.145 12.152C184.177 11.4373 184.337 10.808 184.625 10.264C184.923 9.72 185.345 9.29333 185.889 8.984C186.433 8.67467 187.105 8.52 187.905 8.52C188.705 8.52 189.377 8.67467 189.921 8.984C190.465 9.29333 190.881 9.72 191.169 10.264C191.467 10.808 191.633 11.4373 191.665 12.152C191.675 12.3227 191.681 12.552 191.681 12.84C191.681 13.1173 191.675 13.3467 191.665 13.528C191.633 14.232 191.473 14.8613 191.185 15.416C190.897 15.96 190.481 16.3867 189.937 16.696C189.393 17.0053 188.715 17.16 187.905 17.16ZM187.905 15.928C188.566 15.928 189.094 15.72 189.489 15.304C189.883 14.8773 190.097 14.2587 190.129 13.448C190.139 13.288 190.145 13.0853 190.145 12.84C190.145 12.5947 190.139 12.392 190.129 12.232C190.097 11.4213 189.883 10.808 189.489 10.392C189.094 9.96533 188.566 9.752 187.905 9.752C187.243 9.752 186.71 9.96533 186.305 10.392C185.91 10.808 185.702 11.4213 185.681 12.232C185.67 12.392 185.664 12.5947 185.664 12.84C185.664 13.0853 185.67 13.288 185.681 13.448C185.702 14.2587 185.91 14.8773 186.305 15.304C186.71 15.72 187.243 15.928 187.905 15.928ZM200.772 19.016C200.655 19.016 200.564 18.984 200.5 18.92C200.436 18.856 200.404 18.7653 200.404 18.648V17H194.052C193.945 17 193.855 16.968 193.78 16.904C193.716 16.8293 193.684 16.7387 193.684 16.632V9.048C193.684 8.94133 193.716 8.856 193.78 8.792C193.855 8.71733 193.945 8.68 194.052 8.68H194.82C194.927 8.68 195.012 8.71733 195.076 8.792C195.14 8.856 195.172 8.94133 195.172 9.048V15.72H199.284V9.048C199.284 8.94133 199.316 8.856 199.38 8.792C199.444 8.71733 199.529 8.68 199.636 8.68H200.404C200.511 8.68 200.596 8.71733 200.66 8.792C200.735 8.856 200.772 8.94133 200.772 9.048L200.756 15.72H201.524C201.631 15.72 201.716 15.7573 201.78 15.832C201.855 15.896 201.892 15.9813 201.892 16.088V18.648C201.892 18.7653 201.855 18.856 201.78 18.92C201.716 18.984 201.631 19.016 201.524 19.016H200.772ZM206.871 17.16C205.772 17.16 204.898 16.824 204.247 16.152C203.596 15.4693 203.239 14.5413 203.175 13.368C203.164 13.2293 203.159 13.0533 203.159 12.84C203.159 12.616 203.164 12.4347 203.175 12.296C203.218 11.5387 203.394 10.8773 203.703 10.312C204.012 9.736 204.434 9.29333 204.967 8.984C205.511 8.67467 206.146 8.52 206.871 8.52C207.682 8.52 208.359 8.69067 208.903 9.032C209.458 9.37333 209.879 9.85867 210.167 10.488C210.455 11.1173 210.599 11.8533 210.599 12.696V12.968C210.599 13.0853 210.562 13.176 210.487 13.24C210.423 13.304 210.338 13.336 210.231 13.336H204.695C204.695 13.3467 204.695 13.368 204.695 13.4C204.695 13.432 204.695 13.4587 204.695 13.48C204.716 13.9173 204.812 14.328 204.983 14.712C205.154 15.0853 205.399 15.3893 205.719 15.624C206.039 15.8587 206.423 15.976 206.871 15.976C207.255 15.976 207.575 15.9173 207.831 15.8C208.087 15.6827 208.295 15.5547 208.455 15.416C208.615 15.2667 208.722 15.1547 208.775 15.08C208.871 14.9413 208.946 14.8613 208.999 14.84C209.052 14.808 209.138 14.792 209.255 14.792H210.023C210.13 14.792 210.215 14.824 210.279 14.888C210.354 14.9413 210.386 15.0213 210.375 15.128C210.364 15.288 210.279 15.4853 210.119 15.72C209.959 15.944 209.73 16.168 209.431 16.392C209.132 16.616 208.77 16.8027 208.343 16.952C207.916 17.0907 207.426 17.16 206.871 17.16ZM204.695 12.232H209.079V12.184C209.079 11.704 208.988 11.2773 208.807 10.904C208.636 10.5307 208.386 10.2373 208.055 10.024C207.724 9.8 207.33 9.688 206.871 9.688C206.412 9.688 206.018 9.8 205.687 10.024C205.367 10.2373 205.122 10.5307 204.951 10.904C204.78 11.2773 204.695 11.704 204.695 12.184V12.232ZM212.88 17C212.773 17 212.683 16.968 212.608 16.904C212.544 16.8293 212.512 16.7387 212.512 16.632V9.048C212.512 8.94133 212.544 8.856 212.608 8.792C212.683 8.71733 212.773 8.68 212.88 8.68H213.648C213.755 8.68 213.84 8.71733 213.904 8.792C213.968 8.856 214 8.94133 214 9.048V12.12H218.368V9.048C218.368 8.94133 218.4 8.856 218.464 8.792C218.539 8.71733 218.629 8.68 218.736 8.68H219.488C219.595 8.68 219.68 8.71733 219.744 8.792C219.819 8.856 219.856 8.94133 219.856 9.048V16.632C219.856 16.7387 219.819 16.8293 219.744 16.904C219.68 16.968 219.595 17 219.488 17H218.736C218.629 17 218.539 16.968 218.464 16.904C218.4 16.8293 218.368 16.7387 218.368 16.632V13.4H214V16.632C214 16.7387 213.968 16.8293 213.904 16.904C213.84 16.968 213.755 17 213.648 17H212.88ZM222.63 17C222.523 17 222.433 16.968 222.358 16.904C222.294 16.8293 222.262 16.7387 222.262 16.632V9.048C222.262 8.94133 222.294 8.856 222.358 8.792C222.433 8.71733 222.523 8.68 222.63 8.68H223.382C223.489 8.68 223.574 8.71733 223.638 8.792C223.713 8.856 223.75 8.94133 223.75 9.048V12.12H225.206L227.366 8.92C227.419 8.84533 227.478 8.78667 227.542 8.744C227.606 8.70133 227.691 8.68 227.798 8.68H228.63C228.726 8.68 228.806 8.70133 228.87 8.744C228.934 8.78667 228.966 8.85067 228.966 8.936C228.966 8.95733 228.955 8.98933 228.934 9.032C228.923 9.064 228.907 9.096 228.886 9.128L226.486 12.664L229.206 16.536C229.259 16.6 229.286 16.6693 229.286 16.744C229.286 16.8293 229.254 16.8933 229.19 16.936C229.137 16.9787 229.062 17 228.966 17H227.99C227.894 17 227.814 16.9787 227.75 16.936C227.686 16.8933 227.627 16.8347 227.574 16.76L225.222 13.416H223.75V16.632C223.75 16.7387 223.713 16.8293 223.638 16.904C223.574 16.968 223.489 17 223.382 17H222.63ZM231.224 20.04C231.107 20.04 231.016 20.0027 230.952 19.928C230.888 19.864 230.856 19.7787 230.856 19.672V19.128C230.856 19.0213 230.888 18.9307 230.952 18.856C231.016 18.792 231.107 18.76 231.224 18.76H231.64C231.886 18.76 232.083 18.712 232.232 18.616C232.382 18.52 232.515 18.3547 232.632 18.12C232.76 17.896 232.91 17.5867 233.08 17.192L236.552 8.952C236.584 8.86667 236.627 8.80267 236.68 8.76C236.744 8.70667 236.835 8.68 236.952 8.68H237.656C237.752 8.68 237.832 8.712 237.896 8.776C237.96 8.84 237.992 8.91467 237.992 9C237.992 9.04267 237.987 9.08533 237.976 9.128C237.966 9.16 237.944 9.21333 237.912 9.288L234.872 16.488C234.712 16.872 234.536 17.272 234.344 17.688C234.163 18.104 233.955 18.488 233.72 18.84C233.496 19.2027 233.23 19.4907 232.92 19.704C232.611 19.928 232.248 20.04 231.832 20.04H231.224ZM233.448 16.76L230.216 9.288C230.163 9.16 230.136 9.06933 230.136 9.016C230.147 8.92 230.184 8.84 230.248 8.776C230.312 8.712 230.387 8.68 230.472 8.68H231.224C231.342 8.68 231.427 8.70667 231.48 8.76C231.544 8.81333 231.592 8.87733 231.624 8.952L234.28 15.304L233.448 16.76Z" fill="#073BA1"/>
<path d="M264.408 17.16C263.501 17.16 262.723 17.0053 262.072 16.696C261.421 16.376 260.92 15.8907 260.568 15.24C260.216 14.5787 260.019 13.752 259.976 12.76C259.965 12.2907 259.96 11.8427 259.96 11.416C259.96 10.9787 259.965 10.5253 259.976 10.056C260.019 9.07467 260.221 8.25867 260.584 7.608C260.957 6.94667 261.469 6.456 262.12 6.136C262.781 5.80533 263.544 5.64 264.408 5.64C265.283 5.64 266.045 5.80533 266.696 6.136C267.357 6.456 267.875 6.94667 268.248 7.608C268.621 8.25867 268.824 9.07467 268.856 10.056C268.877 10.5253 268.888 10.9787 268.888 11.416C268.888 11.8427 268.877 12.2907 268.856 12.76C268.824 13.752 268.627 14.5787 268.264 15.24C267.912 15.8907 267.411 16.376 266.76 16.696C266.109 17.0053 265.325 17.16 264.408 17.16ZM264.408 15.8C265.229 15.8 265.896 15.5547 266.408 15.064C266.931 14.5733 267.213 13.7787 267.256 12.68C267.277 12.2 267.288 11.7733 267.288 11.4C267.288 11.016 267.277 10.5893 267.256 10.12C267.235 9.384 267.096 8.78667 266.84 8.328C266.595 7.86933 266.264 7.53333 265.848 7.32C265.432 7.10667 264.952 7 264.408 7C263.885 7 263.416 7.10667 263 7.32C262.584 7.53333 262.248 7.86933 261.992 8.328C261.747 8.78667 261.608 9.384 261.576 10.12C261.565 10.5893 261.56 11.016 261.56 11.4C261.56 11.7733 261.565 12.2 261.576 12.68C261.619 13.7787 261.901 14.5733 262.424 15.064C262.947 15.5547 263.608 15.8 264.408 15.8ZM275.302 17C275.195 17 275.105 16.968 275.03 16.904C274.966 16.8293 274.934 16.7387 274.934 16.632V9.048C274.934 8.94133 274.966 8.856 275.03 8.792C275.105 8.71733 275.195 8.68 275.302 8.68H276.054C276.161 8.68 276.246 8.71733 276.31 8.792C276.385 8.856 276.422 8.94133 276.422 9.048V12.12H277.878L280.038 8.92C280.091 8.84533 280.15 8.78667 280.214 8.744C280.278 8.70133 280.363 8.68 280.47 8.68H281.302C281.398 8.68 281.478 8.70133 281.542 8.744C281.606 8.78667 281.638 8.85067 281.638 8.936C281.638 8.95733 281.627 8.98933 281.606 9.032C281.595 9.064 281.579 9.096 281.558 9.128L279.158 12.664L281.878 16.536C281.931 16.6 281.958 16.6693 281.958 16.744C281.958 16.8293 281.926 16.8933 281.862 16.936C281.809 16.9787 281.734 17 281.638 17H280.662C280.566 17 280.486 16.9787 280.422 16.936C280.358 16.8933 280.299 16.8347 280.246 16.76L277.894 13.416H276.422V16.632C276.422 16.7387 276.385 16.8293 276.31 16.904C276.246 16.968 276.161 17 276.054 17H275.302ZM286.92 17.16C286.109 17.16 285.432 17.0053 284.888 16.696C284.344 16.3867 283.928 15.96 283.64 15.416C283.352 14.8613 283.192 14.232 283.16 13.528C283.149 13.3467 283.144 13.1173 283.144 12.84C283.144 12.552 283.149 12.3227 283.16 12.152C283.192 11.4373 283.352 10.808 283.64 10.264C283.939 9.72 284.36 9.29333 284.904 8.984C285.448 8.67467 286.12 8.52 286.92 8.52C287.72 8.52 288.392 8.67467 288.936 8.984C289.48 9.29333 289.896 9.72 290.184 10.264C290.483 10.808 290.648 11.4373 290.68 12.152C290.691 12.3227 290.696 12.552 290.696 12.84C290.696 13.1173 290.691 13.3467 290.68 13.528C290.648 14.232 290.488 14.8613 290.2 15.416C289.912 15.96 289.496 16.3867 288.952 16.696C288.408 17.0053 287.731 17.16 286.92 17.16ZM286.92 15.928C287.581 15.928 288.109 15.72 288.504 15.304C288.899 14.8773 289.112 14.2587 289.144 13.448C289.155 13.288 289.16 13.0853 289.16 12.84C289.16 12.5947 289.155 12.392 289.144 12.232C289.112 11.4213 288.899 10.808 288.504 10.392C288.109 9.96533 287.581 9.752 286.92 9.752C286.259 9.752 285.725 9.96533 285.32 10.392C284.925 10.808 284.717 11.4213 284.696 12.232C284.685 12.392 284.68 12.5947 284.68 12.84C284.68 13.0853 284.685 13.288 284.696 13.448C284.717 14.2587 284.925 14.8773 285.32 15.304C285.725 15.72 286.259 15.928 286.92 15.928ZM293.052 17C292.945 17 292.86 16.968 292.796 16.904C292.732 16.84 292.7 16.7547 292.7 16.648V8.984C292.7 8.89867 292.732 8.82933 292.796 8.776C292.87 8.712 292.945 8.68 293.02 8.68H293.836C294.006 8.68 294.14 8.76533 294.236 8.936L296.956 14.024L299.692 8.936C299.788 8.76533 299.921 8.68 300.092 8.68H300.892C300.977 8.68 301.052 8.712 301.116 8.776C301.18 8.82933 301.212 8.89867 301.212 8.984V16.648C301.212 16.7547 301.18 16.84 301.116 16.904C301.052 16.968 300.972 17 300.876 17H300.092C299.985 17 299.9 16.968 299.836 16.904C299.772 16.84 299.74 16.7547 299.74 16.648V10.264L300.3 10.328L297.692 15.256C297.638 15.3627 297.574 15.4587 297.5 15.544C297.425 15.6293 297.313 15.672 297.164 15.672H296.748C296.609 15.672 296.502 15.6293 296.428 15.544C296.353 15.4587 296.284 15.3627 296.22 15.256L293.692 10.568L294.188 10.52V16.648C294.188 16.7547 294.156 16.84 294.092 16.904C294.028 16.968 293.942 17 293.836 17H293.052ZM303.974 17C303.867 17 303.777 16.968 303.702 16.904C303.638 16.8293 303.606 16.7387 303.606 16.632V9.048C303.606 8.94133 303.638 8.856 303.702 8.792C303.777 8.71733 303.867 8.68 303.974 8.68H310.326C310.433 8.68 310.518 8.71733 310.582 8.792C310.657 8.856 310.694 8.94133 310.694 9.048V16.632C310.694 16.7387 310.657 16.8293 310.582 16.904C310.518 16.968 310.433 17 310.326 17H309.558C309.451 17 309.366 16.968 309.302 16.904C309.238 16.8293 309.206 16.7387 309.206 16.632V9.96H305.094V16.632C305.094 16.7387 305.062 16.8293 304.998 16.904C304.934 16.968 304.849 17 304.742 17H303.974ZM315.395 17.16C314.861 17.16 314.376 17.0533 313.939 16.84C313.501 16.6267 313.149 16.3387 312.883 15.976C312.616 15.6133 312.483 15.2027 312.483 14.744C312.483 14.008 312.781 13.4213 313.379 12.984C313.976 12.5467 314.755 12.2587 315.715 12.12L318.099 11.784V11.32C318.099 10.808 317.949 10.408 317.651 10.12C317.363 9.832 316.888 9.688 316.227 9.688C315.747 9.688 315.357 9.784 315.059 9.976C314.771 10.168 314.568 10.4133 314.451 10.712C314.387 10.872 314.275 10.952 314.115 10.952H313.395C313.277 10.952 313.187 10.92 313.123 10.856C313.069 10.7813 313.043 10.696 313.043 10.6C313.043 10.44 313.101 10.2427 313.219 10.008C313.347 9.77333 313.539 9.544 313.795 9.32C314.051 9.096 314.376 8.90933 314.771 8.76C315.176 8.6 315.667 8.52 316.243 8.52C316.883 8.52 317.421 8.60533 317.859 8.776C318.296 8.936 318.637 9.15467 318.883 9.432C319.139 9.70933 319.32 10.024 319.427 10.376C319.544 10.728 319.603 11.0853 319.603 11.448V16.632C319.603 16.7387 319.565 16.8293 319.491 16.904C319.427 16.968 319.341 17 319.235 17H318.499C318.381 17 318.291 16.968 318.227 16.904C318.163 16.8293 318.131 16.7387 318.131 16.632V15.944C317.992 16.136 317.805 16.328 317.571 16.52C317.336 16.7013 317.043 16.856 316.691 16.984C316.339 17.1013 315.907 17.16 315.395 17.16ZM315.731 15.96C316.168 15.96 316.568 15.8693 316.931 15.688C317.293 15.496 317.576 15.2027 317.779 14.808C317.992 14.4133 318.099 13.9173 318.099 13.32V12.872L316.243 13.144C315.485 13.2507 314.915 13.432 314.531 13.688C314.147 13.9333 313.955 14.248 313.955 14.632C313.955 14.9307 314.04 15.1813 314.211 15.384C314.392 15.576 314.616 15.72 314.883 15.816C315.16 15.912 315.443 15.96 315.731 15.96ZM322.271 17C322.164 17 322.073 16.968 321.999 16.904C321.935 16.8293 321.903 16.7387 321.903 16.632V9.048C321.903 8.94133 321.935 8.856 321.999 8.792C322.073 8.71733 322.164 8.68 322.271 8.68H323.039C323.145 8.68 323.231 8.71733 323.295 8.792C323.359 8.856 323.391 8.94133 323.391 9.048V12.12H327.759V9.048C327.759 8.94133 327.791 8.856 327.855 8.792C327.929 8.71733 328.02 8.68 328.127 8.68H328.879C328.985 8.68 329.071 8.71733 329.135 8.792C329.209 8.856 329.247 8.94133 329.247 9.048V16.632C329.247 16.7387 329.209 16.8293 329.135 16.904C329.071 16.968 328.985 17 328.879 17H328.127C328.02 17 327.929 16.968 327.855 16.904C327.791 16.8293 327.759 16.7387 327.759 16.632V13.4H323.391V16.632C323.391 16.7387 323.359 16.8293 323.295 16.904C323.231 16.968 323.145 17 323.039 17H322.271ZM332.005 17C331.909 17 331.823 16.968 331.749 16.904C331.685 16.8293 331.653 16.7493 331.653 16.664V9.048C331.653 8.94133 331.685 8.856 331.749 8.792C331.823 8.71733 331.914 8.68 332.021 8.68H332.789C332.895 8.68 332.981 8.71733 333.045 8.792C333.109 8.856 333.141 8.94133 333.141 9.048V15.832L332.725 15.4L337.573 8.92C337.626 8.856 337.685 8.80267 337.749 8.76C337.813 8.70667 337.893 8.68 337.989 8.68H338.725C338.81 8.68 338.885 8.712 338.949 8.776C339.023 8.84 339.061 8.91467 339.061 9V16.632C339.061 16.7387 339.023 16.8293 338.949 16.904C338.885 16.968 338.799 17 338.693 17H337.941C337.823 17 337.733 16.968 337.669 16.904C337.605 16.8293 337.573 16.7387 337.573 16.632V10.248L338.021 10.232L333.141 16.76C333.098 16.8133 333.045 16.8667 332.981 16.92C332.917 16.9733 332.831 17 332.725 17H332.005ZM341.755 17C341.659 17 341.573 16.968 341.499 16.904C341.435 16.8293 341.403 16.7493 341.403 16.664V9.048C341.403 8.94133 341.435 8.856 341.499 8.792C341.573 8.71733 341.664 8.68 341.771 8.68H342.539C342.645 8.68 342.731 8.71733 342.795 8.792C342.859 8.856 342.891 8.94133 342.891 9.048V15.832L342.475 15.4L347.323 8.92C347.376 8.856 347.435 8.80267 347.499 8.76C347.563 8.70667 347.643 8.68 347.739 8.68H348.475C348.56 8.68 348.635 8.712 348.699 8.776C348.773 8.84 348.811 8.91467 348.811 9V16.632C348.811 16.7387 348.773 16.8293 348.699 16.904C348.635 16.968 348.549 17 348.443 17H347.691C347.573 17 347.483 16.968 347.419 16.904C347.355 16.8293 347.323 16.7387 347.323 16.632V10.248L347.771 10.232L342.891 16.76C342.848 16.8133 342.795 16.8667 342.731 16.92C342.667 16.9733 342.581 17 342.475 17H341.755Z" fill="#073BA1"/>
<path d="M391.648 17C391.531 17 391.435 16.9627 391.36 16.888C391.285 16.8133 391.248 16.7227 391.248 16.616V6.2C391.248 6.08267 391.285 5.98667 391.36 5.912C391.435 5.83733 391.531 5.8 391.648 5.8H392.912C393.061 5.8 393.173 5.84267 393.248 5.928C393.323 6.00267 393.371 6.06133 393.392 6.104L396.48 11.864L399.6 6.104C399.621 6.06133 399.669 6.00267 399.744 5.928C399.819 5.84267 399.931 5.8 400.08 5.8H401.328C401.445 5.8 401.541 5.83733 401.616 5.912C401.691 5.98667 401.728 6.08267 401.728 6.2V16.616C401.728 16.7227 401.691 16.8133 401.616 16.888C401.541 16.9627 401.445 17 401.328 17H399.984C399.867 17 399.771 16.9627 399.696 16.888C399.632 16.8133 399.6 16.7227 399.6 16.616V9.688L397.36 13.96C397.307 14.056 397.237 14.1413 397.152 14.216C397.067 14.28 396.955 14.312 396.816 14.312H396.16C396.011 14.312 395.893 14.28 395.808 14.216C395.733 14.1413 395.669 14.056 395.616 13.96L393.376 9.688V16.616C393.376 16.7227 393.339 16.8133 393.264 16.888C393.189 16.9627 393.099 17 392.992 17H391.648ZM406.441 17.16C405.886 17.16 405.385 17.0533 404.937 16.84C404.489 16.616 404.131 16.3227 403.865 15.96C403.609 15.5867 403.481 15.1707 403.481 14.712C403.481 13.9653 403.779 13.3733 404.377 12.936C404.985 12.488 405.785 12.1893 406.777 12.04L408.969 11.72V11.384C408.969 10.936 408.857 10.5893 408.633 10.344C408.409 10.0987 408.025 9.976 407.481 9.976C407.097 9.976 406.782 10.056 406.537 10.216C406.302 10.3653 406.126 10.568 406.009 10.824C405.923 10.9627 405.801 11.032 405.641 11.032H404.377C404.259 11.032 404.169 11 404.105 10.936C404.051 10.872 404.025 10.7867 404.025 10.68C404.035 10.5093 404.105 10.3013 404.233 10.056C404.361 9.81067 404.563 9.576 404.841 9.352C405.118 9.11733 405.475 8.92 405.913 8.76C406.35 8.6 406.878 8.52 407.497 8.52C408.169 8.52 408.734 8.60533 409.193 8.776C409.662 8.936 410.035 9.15467 410.313 9.432C410.59 9.70933 410.793 10.0347 410.921 10.408C411.049 10.7813 411.113 11.176 411.113 11.592V16.616C411.113 16.7227 411.075 16.8133 411.001 16.888C410.926 16.9627 410.835 17 410.729 17H409.433C409.315 17 409.219 16.9627 409.145 16.888C409.081 16.8133 409.049 16.7227 409.049 16.616V15.992C408.91 16.1947 408.723 16.3867 408.489 16.568C408.254 16.7387 407.966 16.8827 407.625 17C407.294 17.1067 406.899 17.16 406.441 17.16ZM406.985 15.64C407.358 15.64 407.694 15.56 407.993 15.4C408.302 15.24 408.542 14.9947 408.713 14.664C408.894 14.3227 408.985 13.896 408.985 13.384V13.048L407.385 13.304C406.755 13.4 406.286 13.5547 405.977 13.768C405.667 13.9813 405.513 14.2427 405.513 14.552C405.513 14.7867 405.582 14.9893 405.721 15.16C405.87 15.32 406.057 15.4427 406.281 15.528C406.505 15.6027 406.739 15.64 406.985 15.64ZM413.549 17C413.443 17 413.352 16.9627 413.277 16.888C413.203 16.8133 413.165 16.7227 413.165 16.616V9.064C413.165 8.95733 413.203 8.86667 413.277 8.792C413.352 8.71733 413.443 8.68 413.549 8.68H414.861C414.968 8.68 415.059 8.71733 415.133 8.792C415.208 8.86667 415.245 8.95733 415.245 9.064V11.928H416.397L418.349 8.936C418.392 8.86133 418.445 8.80267 418.509 8.76C418.584 8.70667 418.68 8.68 418.797 8.68H420.221C420.328 8.68 420.413 8.70667 420.477 8.76C420.541 8.81333 420.573 8.88267 420.573 8.968C420.573 9 420.563 9.03733 420.541 9.08C420.531 9.112 420.515 9.144 420.493 9.176L418.189 12.68L420.829 16.504C420.883 16.568 420.909 16.6373 420.909 16.712C420.909 16.7973 420.877 16.8667 420.813 16.92C420.749 16.9733 420.669 17 420.573 17H418.957C418.851 17 418.76 16.9787 418.685 16.936C418.621 16.8933 418.563 16.8347 418.509 16.76L416.397 13.624H415.245V16.616C415.245 16.7227 415.208 16.8133 415.133 16.888C415.059 16.9627 414.968 17 414.861 17H413.549ZM425.906 17.16C425.138 17.16 424.461 17.016 423.874 16.728C423.298 16.44 422.845 16.024 422.514 15.48C422.194 14.9253 422.018 14.2587 421.986 13.48C421.975 13.32 421.97 13.112 421.97 12.856C421.97 12.5893 421.975 12.3707 421.986 12.2C422.018 11.4213 422.194 10.76 422.514 10.216C422.845 9.66133 423.298 9.24 423.874 8.952C424.461 8.664 425.138 8.52 425.906 8.52C426.589 8.52 427.17 8.616 427.65 8.808C428.13 9 428.525 9.24 428.834 9.528C429.143 9.816 429.373 10.12 429.522 10.44C429.682 10.7493 429.767 11.032 429.778 11.288C429.789 11.4053 429.751 11.5013 429.666 11.576C429.591 11.64 429.501 11.672 429.394 11.672H427.986C427.879 11.672 427.794 11.6453 427.73 11.592C427.677 11.5387 427.623 11.4587 427.57 11.352C427.41 10.9253 427.197 10.6267 426.93 10.456C426.674 10.2747 426.343 10.184 425.938 10.184C425.405 10.184 424.978 10.3547 424.658 10.696C424.349 11.0267 424.183 11.5547 424.162 12.28C424.141 12.6853 424.141 13.0587 424.162 13.4C424.183 14.136 424.349 14.6693 424.658 15C424.978 15.3307 425.405 15.496 425.938 15.496C426.354 15.496 426.69 15.4107 426.946 15.24C427.202 15.0587 427.41 14.7547 427.57 14.328C427.623 14.2213 427.677 14.1413 427.73 14.088C427.794 14.0347 427.879 14.008 427.986 14.008H429.394C429.501 14.008 429.591 14.0453 429.666 14.12C429.751 14.184 429.789 14.2747 429.778 14.392C429.767 14.584 429.714 14.8027 429.618 15.048C429.533 15.2827 429.389 15.528 429.186 15.784C428.994 16.0293 428.749 16.2587 428.45 16.472C428.151 16.6747 427.789 16.84 427.362 16.968C426.946 17.096 426.461 17.16 425.906 17.16ZM431.815 17C431.719 17 431.633 16.9627 431.559 16.888C431.484 16.8133 431.447 16.728 431.447 16.632V9.064C431.447 8.95733 431.484 8.86667 431.559 8.792C431.633 8.71733 431.724 8.68 431.831 8.68H433.159C433.276 8.68 433.367 8.71733 433.431 8.792C433.505 8.86667 433.543 8.95733 433.543 9.064V15.384L432.983 14.984L437.383 8.936C437.436 8.86133 437.495 8.80267 437.559 8.76C437.623 8.70667 437.708 8.68 437.815 8.68H439.031C439.127 8.68 439.212 8.71733 439.287 8.792C439.361 8.856 439.399 8.936 439.399 9.032V16.616C439.399 16.7227 439.361 16.8133 439.287 16.888C439.212 16.9627 439.121 17 439.015 17H437.687C437.569 17 437.473 16.9627 437.399 16.888C437.335 16.8133 437.303 16.7227 437.303 16.616V10.584L437.895 10.664L433.463 16.744C433.42 16.808 433.361 16.8667 433.287 16.92C433.223 16.9733 433.137 17 433.031 17H431.815ZM441.767 17C441.661 17 441.575 16.968 441.511 16.904C441.447 16.84 441.415 16.76 441.415 16.664V8.984C441.415 8.89867 441.447 8.82933 441.511 8.776C441.586 8.712 441.661 8.68 441.735 8.68H443.079C443.261 8.68 443.399 8.77067 443.495 8.952L445.959 13.432L448.423 8.952C448.519 8.77067 448.658 8.68 448.839 8.68H450.167C450.263 8.68 450.343 8.712 450.407 8.776C450.471 8.82933 450.503 8.89867 450.503 8.984V16.664C450.503 16.76 450.471 16.84 450.407 16.904C450.343 16.968 450.258 17 450.151 17H448.775C448.669 17 448.583 16.968 448.519 16.904C448.466 16.84 448.439 16.76 448.439 16.664V10.856L449.095 10.968L446.727 15.336C446.674 15.432 446.61 15.5227 446.535 15.608C446.461 15.6827 446.354 15.72 446.215 15.72H445.687C445.559 15.72 445.458 15.6827 445.383 15.608C445.309 15.5333 445.245 15.4427 445.191 15.336L442.871 11.144L443.479 11.048V16.664C443.479 16.76 443.447 16.84 443.383 16.904C443.319 16.968 443.239 17 443.143 17H441.767ZM456.898 17C456.791 17 456.7 16.968 456.626 16.904C456.551 16.8293 456.514 16.7333 456.514 16.616V6.2C456.514 6.08267 456.551 5.98667 456.626 5.912C456.7 5.83733 456.791 5.8 456.898 5.8H465.282C465.399 5.8 465.495 5.83733 465.57 5.912C465.644 5.98667 465.682 6.08267 465.682 6.2V16.616C465.682 16.7227 465.644 16.8133 465.57 16.888C465.495 16.9627 465.399 17 465.282 17H463.842C463.735 17 463.644 16.9627 463.57 16.888C463.495 16.8133 463.458 16.7227 463.458 16.616V7.8H458.738V16.616C458.738 16.7227 458.7 16.8133 458.626 16.888C458.562 16.9627 458.471 17 458.354 17H456.898ZM468.266 17C468.159 17 468.069 16.9627 467.994 16.888C467.919 16.8133 467.882 16.7227 467.882 16.616V15.032C467.882 14.9147 467.919 14.8187 467.994 14.744C468.069 14.6693 468.159 14.632 468.266 14.632H469.866C469.973 14.632 470.063 14.6693 470.138 14.744C470.213 14.8187 470.25 14.9147 470.25 15.032V16.616C470.25 16.7227 470.213 16.8133 470.138 16.888C470.063 16.9627 469.973 17 469.866 17H468.266Z" fill="#073BA1"/>
<path d="M485 10L490 14L495 10" stroke="#073BA1" stroke-linecap="round"/>
</svg>
